<mxfile host="Electron" agent="Mozilla/5.0 (Windows NT 10.0; Win64; x64) AppleWebKit/537.36 (KHTML, like Gecko) draw.io/28.2.7 Chrome/138.0.7204.251 Electron/37.7.1 Safari/537.36" version="28.2.7">
  <diagram name="Page-1" id="7Q4kEnkL9qCp9C_KvMJU">
    <mxGraphModel dx="1111" dy="537" grid="1" gridSize="10" guides="1" tooltips="1" connect="1" arrows="1" fold="1" page="1" pageScale="1" pageWidth="700" pageHeight="1000" math="0" shadow="0">
      <root>
        <mxCell id="0" />
        <mxCell id="1" parent="0" />
        <mxCell id="mUBdkkdLRuT3rxrUyl42-1" value="&lt;font face=&quot;Garamond&quot; style=&quot;font-size: 18px;&quot;&gt;&lt;b&gt;NYC Taxi Data Architecture&lt;/b&gt;&lt;/font&gt;" style="rounded=0;whiteSpace=wrap;html=1;fillColor=#f5f5f5;fontColor=#333333;strokeColor=none;" parent="1" vertex="1">
          <mxGeometry x="493" y="121" width="250" height="40" as="geometry" />
        </mxCell>
        <mxCell id="mUBdkkdLRuT3rxrUyl42-4" value="" style="rounded=1;whiteSpace=wrap;html=1;arcSize=5;glass=1;" parent="1" vertex="1">
          <mxGeometry x="55" y="195" width="135" height="325" as="geometry" />
        </mxCell>
        <mxCell id="mUBdkkdLRuT3rxrUyl42-5" value="&lt;font style=&quot;font-size: 14px;&quot; face=&quot;Garamond&quot;&gt;&lt;b&gt;Data Source&lt;/b&gt;&lt;/font&gt;" style="rounded=1;whiteSpace=wrap;html=1;strokeColor=none;" parent="1" vertex="1">
          <mxGeometry x="67" y="175" width="110" height="30" as="geometry" />
        </mxCell>
        <mxCell id="mUBdkkdLRuT3rxrUyl42-6" value="&lt;font face=&quot;Garamond&quot;&gt;&lt;b&gt;TLC website&lt;/b&gt;&lt;/font&gt;" style="verticalLabelPosition=bottom;html=1;verticalAlign=top;align=center;strokeColor=#6c8ebf;fillColor=#dae8fc;shape=mxgraph.azure.azure_website;pointerEvents=1;" parent="1" vertex="1">
          <mxGeometry x="84" y="289" width="80" height="70" as="geometry" />
        </mxCell>
        <mxCell id="mUBdkkdLRuT3rxrUyl42-9" value="parquet" style="shape=image;verticalLabelPosition=bottom;labelBackgroundColor=default;verticalAlign=top;aspect=fixed;imageAspect=0;image=data:image/png,iVBORw0KGgoAAAANSUhEUgAAAGQAAABkCAYAAABw4pVUAAAPoUlEQVR4Aezd6YolSxUF4LrqCwiiIijoCzldcUb/OYA+jIr+VHEeEPWFFBSuA/gETvElvYqs3RF5IjNPVVc3RzJOnNyx19pTxs7MOjb3XXe3/z2rDNwK8qzKcXd3K8itIM8sA8/MndsOuRXkmWXgmblz2yG3gjyzDDwzd66xQz7ZYnqnjX+28XYbe49PN8Df28CBq33ddXy2af+rDfhPtHnvwSbsUf/h/9aM4vhUm08dZwsiGb9uHnywjfe18YM29hzwv2yA97eBAxdZO5063mpa32/jvW3A/6bNe/B02YQ96j/8B5pdHL5/rn0/fJwpiGB+2iy/p40c/1m+zH308Lhwzgb1v2bqv23kCB53ZKOZDlsw0Tnr/7sbEc5Z/5v6w+NoQXrB/LtRf7ONmaOHD06CftJOZoP6WtNlu03LAS8pbCyCzoc1OnSzjOMa/p8qypGCjIL5Uovsd21cOkZ4CQlWomaLwibbFS/hbIUzM5k1NiKDxYErstE8wuMI5nBR9hbkM81iDcY2/2qT/6qNS8cW/vMNvA5KwtiSqLa0ebDdw/+sodb4Lfs4mvrmsYWv9lOUtf1Ncot7CsKZnzeQRLVpORTjK+2bwNu0eVzC/7ahe0H9qMlngrqEv2S/mdk8LuEv2d8kz+JsQWzTWgxX8xcb0UwxZvGCknzcjXo5XGk/bN9m7ilb+Ffpv4tqxv+pv/Z6ttc61jtDwiRuZpsrxh48TtxstDosB9s4ZoIa4XEsZO0DNxt02+nmcQ3/XVT8986yaWxmh3y3MTxVMM3UckiUhEncImgfgnKjl6B2unn08AHgxE0nstHMlkTujR83G2yFm//fycloninICHtJfjSYLV6JkSDcW3rWekkhnx1ssMVmMBIs0bgjG81eWo31uvem9flL32cK8q2G4kibloODHOXwIuh8WKNDN8s4ZoPp4cODEzedyEazxLHJdnRm8LjZoBscDlw4IxvNWiu8XREdeLnMeXeeKcjvG5IjCNvX5eAogxxfBKsPMmt0IobFMRNMD+9pzggfbjboRjaa2WSbD9HZwuPETSf6sDhwRTaaR8WA/8MIFPlMQehypD6SctgTFkN0DI+GNRiJfKz3lGqfD73xlP67z613xp74p56yEqBHyloUhj3SKYpi1EdLzpx9T1FMRfaHwy80Z1ytbVqOtf1FsPHxqvyfjX9xfXaHLMrtQ1CSX5PiPaEWg87Z9xS2FKOZXg5F+XL7hrtNy6Eo7Gs1i2Dj47H816bOxH/v8t6CAI62vxZm3bAzXNl0nW8NO0vSe3h/mq9YsrpTYM+2Lxyxtdd/beooPjaX+UhBAF1ptX2RG4KZ3aaKUa+sGbydUotip6R98mNrvGr/h74dLQjC+oxNNpNMekavGORGj5t8Pc4WpWfjKf1fx3L//WhB9Ot6ZevrZ+4ZccqV7p6gL0c2mhXlyD3lrP98q/HHxz3+B3M/HymIYGrPVww34Jl7xgiPI47px/qywCMbze4ptSjwfGSr4sis0cka27P+84lvFY8jfNbo0I1sat5bEG2mBmObX+MGXu9JgmJLoi4Foyg9fL3RX8N/ieZbfEr8Pfuz/odr13uIYOo25cy1buC9G63tf+ZGvcb3/b+7ey7+L0WZ3SG2eS2GLerqdRUuZBsfI3y95ygKTtyhk9TZewp8bV/Bn/Ff6+nhr+3/1A4Z/R4icK0iiRvNimHrrre5hEt8755DZo1OOGFxSExko5lPPTyOYHDP+s9mbVPwbPA1nJnJrNGJjG3+P8rvIdrUbDB7i5EAekG50gUlQdEbzT18dPf4z9aeYsRGzz7/X+vfQ7wnGAnSLCgJkijnW6OXlC39uuZiYsvVnTVXvasfd2Sjme/Gev1Rfg+ZSYpgXM1Hg5FwyWBrHZDvOK3Rcb41JE4CJTJ6OC/hr+G/+NmKXT486u8ho6CuEQxuiU8w2oyRc2t0jhZlC38N/3vFcGE8+u8hDDOURHm0JBNwZBK55z1Fonv4M8/5dsoM/lr+r3fGnvinnrKSWI+UNSiG854gmPpoyJmzz/mKqcj+THLtPyg+hf+z8S95nn0PWZTbh6LYEfphO10OQXlPqMWgU5/TF0DnQ5vo4dlSjEAUxRMe7shif6Z9PZb/bPf8n40/sezaIQHZ/hK1TooWY0THGh26kY1mxZD0ipd47xQVR2aNjazBanUSE9lo5hPfKh5HMNbo0I1sNLPJ9hq/B/+Ad+8OCZijtX1lTZvSZuhENpq1uVqM4CV+hLNW25eE4JLIES5yvl3L/1qM+M9G7E3PRwvCQH3GJuPMbM9UjLrNcRg9bvL10L5qUbSv3NPWur3vPRtP6X/Pp0MtC5E2U5Npm872zB4eryGp7klagfOtoSi1fc3ge/b3+M+3Gn/8nLEf3ZfmIztEMFqDFhFCwWgVM9t0hMcRPtxagcAjG83aVy1K8GxVHNkZ//nENzbCzXcj59bo0I1sat5bEG2mBmObX+OeUXu6oNhS6EvBKEptX/D+Er3G+0epOK2Fc6//Et3Dn/E/vuxqWYpRt6lgztwz1niPpDUo23/2nqB91aKs8YrxixZ5TeZz8b+5djddENu8FsMWdfW5CheyjY8Rvt5zFAUn7tBJ6jXuKbUYbLA147/W04v/2v5PFeQ5/R6isCnUaNa+eveU9c5QDDp0RzyRK0ZtU/CK2btnklmjEw62tco38veQo0VJcrTJxypGbPSKYqe/cb+H5Eo7W5QkbmtmY8/OqFxvNYHRpvvj3O8hL2j8DX+9/VSao7byC5WXJsHYohKYRRy2sqsnstGMmw22qg5O3GzUtXquJdkNbGcNJ242IqszbjbYyhqOPf7Ds7XGy2XOu/PMY+/o34eMgrpGMLjXydBmjARhTcBsRTaae0WBZ6NXFJy46YTzGsVQzDf+9xBPSJ50krjRrCj1kVrCJV6igvNoT2YtMhfCnvcshV7vjD34qaesOOaRtAbFcN4TBFMfDTlz9jlfMiRp9J7x4+bgTFFelf+z8bcw7nYVBEBQrihb2LmhKN4TajHoSJSrmN7W0CZ6eLYUI1hF6d0TXBQ4ojeaH8t/ra/n/2z89/7O3EPulV98cVOWKAl/IbqzxY2cW6NDN7LRLJGSXvESr9VUHJk1NrIGiwNXZKOZT3yreBzBWKNDN7LRrBja1FH8A94jBUHA0dq+yA1tSpuh43xraHMSuQ4meIkfYa3VP5PgsBslcoSLnG/X8r8WI/6zEXvT89GCMPCWjzI4M9szFaNu89D1uLOWWfuqRdE+ta+ZovRsPKX/iePBfLQgWkNNpm0+2zN7+Dgmqe5JWkFko1lRavsKno0RztoZ//lW8bEV+3Qim56PFEQwtc0ohqtyZpuO8DjiuPajFcwEpX3VosDzka1wZiazRicytmf95xPfKh5H+KzRoRvZ1Ly3INpMDcY233HPuBvha08XFF2JuhSMotT2BV/vKf4Ej9NaOPf6L9E9/Bn/48uux17FqNtUMGfuGWu8R9IalO0/e0/QvmpR1njFqH+CX9u/T8rgy6X4z/q/mJ3dIbZ5LYYt6up1FS5kGx8jfL3nCAon7tBJ6jXuKbUYbLA147/W04v/2v5P7ZDn9HuIxKRQo1n76t1T1m1GMejQHfFEzmZtU/CK2btnklmjEw62tco37vcQibHbEuholmgJXyclutqUNTqRjea9xQhPryh2+u33kJahXlGa+OKh8C4AV3eUcbn6JTyy0ew9x1iv334PadmwGySyfV0OV6pEu/oXQedDMbSYo8XADc9W6PnwxvweIhgjwUmUgAUe2WjWmmpR4EdFeaxi2Flv/O8hiiLQUTEiV5T6SK0oFe/RlsxasO45e96zFHq9M/bgp56y4phH0hoUw3lPEEx9NOTMc3lPedX+J4+b8+x7SEgE5Ypctw9F8Z5Qi0GnPqeHp87axAx+aL8RzrSvLfyM/Wame7Dde8+Zjf+edG9BAD1h1KLY4oZ1QzHo0HW+NRSjtoktPE7cdMLLtlYhMZGN5hEeRzC42aAb2Whmk/8uzOjswQezzEcKAsjR2r7IDW1qT88VzDoZM/iefRy4JJIfW6OHj/6M/ehq0y6EdTH24MNzPx8tCIL6jE3GmTP3DBxGj5t8PbSfelFITO5pa93e956Np/S/59Oum/qaQJs503N7+PBLqnsSnchGs6LYEVpEdILXSiKrM+4z/uOu+NiIfTYim56P7BCGtAYtIoYkRGK0gshG8wiPIxjcbNCNbDSzyXbFayUSV3E4cbORNVgcuCIbzThxVzyOYKyxwVZkU/PeguiZDDEYA7b5Ne4Ztf2w4S+xEhVbo1kie3i+rvH+BE+GO1x7/a/FCL5nf9b/+LKrZSlG3aacOXPPWOO1nxqU7T97T7iEV4z6aLq2f5+UwZdL8V+yP6B9KJ7dIbZeLYYt6upzFTxkfflshK/P6YLCiTssinL2nqKotRhssDXjvzbVi//a/k/tkOf0e4jCplCjWfuSaAmPjqKu25Q1f9/yJ5XojGbFqG0Kng22Ko7MGp2ssa1VymVk3Xlmh9T/fohtPhuMBHKEQ3GAoxzmeGR1tkaHbtZw4MIZ2Wju4aO7w/+7vcWIjZ59/stldLrzTEG6wAmhxEkgR6IuwRLN4cj2zLhw4r6EY4MtNi/p9taPFqPHFdlr+3uIhEu8AiSYzGTW6EQ2mntF0b60IAkf4azRYSs6CqvAOCMbzXzjY8V/ewSIfGaHPPW/DxkFIyHxW6ACphvZaJZAiax4CZf4isNpjY2sweLAFdlohudbDy+XI9winykIRY7UR1IGGeYoHcOjIZk154ae/bq8pzym/3IoH5tjtiBIPJLWotj+HikVRTD10VAxXpf3lMf2Xw4vjj0FQaYokm8LOzcUxXtCLQad+pxOvzds8xn8ln0cPe61bAs/Y3/Ntf7O9hn8PdfeggDaerUoWpRh3VAMOnSdb42Pt8Xa5rbwOHHTadDlYBsHrkWw8THC4wgMNxt0IxvNbLJ9FP+A90hBEHCUwxx3vh5k1uis5aPv32sLe4PBzQZbDb4cOC4+5y+ad3c9/IulO5y46US2NR/xf8h3tCAIOcxxATg3fCez5nxmaHnR24Nngy2Y4BUl3y/NPTwunNYu4bN+1P/gH8xnCoKI426Gf20nf2nDd7L2dfr4RtOE/VOb325jD54uzJ8bDsfX27zngOfzOw30jzY8tJC1r9PHbv+3mM8WBLdn6w+3Lx9pw/c27Tr8f5VgP9ZQvrdp1wHz0YbA8cc27z34/KEG+kAbbvpt2nWwz/ZR/x8Yu0ZBHhDeTs5l4FaQc/m7OvpWkKun9BzhrSDn8nd19K0gV0/pOcJbQc7l7+roW0GuntJzhP8HAAD//6ljh+IAAAAGSURBVAMAeKCcFAa/rxYAAAAASUVORK5CYII=;fontFamily=Garamond;" parent="1" vertex="1">
          <mxGeometry x="225" y="306" width="50" height="50" as="geometry" />
        </mxCell>
        <mxCell id="mUBdkkdLRuT3rxrUyl42-10" value="csv" style="shape=image;verticalLabelPosition=bottom;labelBackgroundColor=default;verticalAlign=top;aspect=fixed;imageAspect=0;image=data:image/png,iVBORw0KGgoAAAANSUhEUgAAAGQAAABkCAYAAABw4pVUAAAKcklEQVR4AeydBah8xRfH13/yD+xCUTBQMcHEwlZM7MBW7BZbFLu7WwxMMLCwQGwRRexW7O7u72d/7yxnZ++97+3dO2/vvp3HOfecqTsz57s3ZubMfX9rpL9aWSABUis4Go0ESAKkZhaoWXPSFZIAqZkFatac8bhCZlGf9xJfLb5HfO8AMu2+UO1eVhyVYgLyH7X8LPEb4jPEm4tXEa88gEy7d1S7HxSfLo5GsQCZTi2m8XtI/lM8kWhvdQZwJKqnGIAAxv1q6qLiLDpEkTsNGO+u9j4lNjrIlKpl1YBMAqPRWMA19Fyno16rw0UDxvRhfbXZaDYp04orpyoByQLjVLWYX5fEwNM7QQ/+H4QrCVYFSB4Y+1XSyiE6SRWAJDAq/MH0CkgCo0IwOFUvgCQwsGDFXBaQBEbFQNjpygCSwDDrRZDdApLAiACCP2U3gCQwvOUi6WMFpA5gRDJBvU47FkASGOOI2WiAMIV+h9rj56ZOVDiNwGWEGDQaICeo0sXERoDR7UwnoFp55G8cEmdboAgQVvp2dsXOkV4GjENVzuh7KR+LE+VYoAgQppv/5coxa/unwt3wD8rvAblO4V/FiXIsUASIv1XlFO8q+nXlPlCcqMACRYDMUFCumyRuU5eowJLiz8WJCixQBMg/XLkDpM9RgnkOTaVyO4g/EycaxQJFgPiinyrwZgl+T2XSM0NGGCuNFZCxnm/w8tWsxQmQBEjNLFCz5qQrZMgAWVj9PU6MX+xEYHWlRd326wKV3Ec8uTiXYl4hG6vWJ8QHi3G9nAisrrRoM2nd9AlvzdNU5hnx1OJMignImarRj2UUTCQL4PWYO1seC5CZVPGMYiNmiYed7zRjSC4izqRYgPhJSSpmlnjY+UYMMcKhfUai06bPliHqosS6QurSv361o3S9CZDSpotTMAESx66lzzoIgPxdvcPJwu9NXFpx04vHQlMqE2sxvjwD1twHq/JPIZ5fXETYbiFlIK9ENcRJqzlTnLNso9Myhf+spN+9+7DCH4pvEvvXawVbxIj4MoU+ET8q9uXZnsbaPuOByZTmCQO/qIjnxGw4ksiksxXLIO8FSeqS6J3qDAibKy9XF/MMTtvXU/pDYhbBJFr0b2lsZd5WMm/TKVfOyUo/ReyJhTjGUcTh5BF6zRBPHD8W9Jl1mFNcCdGpSk5U8UkAgbkiOy2LXG8pYItkLJgp2CSM4R0piMSQS6CM8FeSVhb5k8JGAL+gBSS5Mr6WhP6rw0rikIgjjXjyUga9Z64rIGuoZ/wKJRof6cCvdvYRic7zwwO2odI8beACV0pngybljLkCuNUoqfkBHjxs0GHAvxtlhNcekV74OPJSxqeX1usKCLcB6xRbrN+1gJPMnloQg5uO9OX5gsTvRDr+Uvr1YiPcZU1H3sZhhNeU9M8ZdOIU3SSftxnRy6GugPBmZf3K+/UB0sXK9K2YeTKJFvl+5ZW/SrlfEnMeHv5SW3SXNAMRcHkrU1ST0IkjQB7yolfCvuGVnHCcT8L0N284Rwf1fufC3KZcsKW+LW1e8axi3rokWoS7Em9mFrGWKZJeJw95FV0NFQJSTRV9Ocvjrlbeoo5VGCc9Y96Q5lJcEd3uEv0zw+s+j8teXp2ogADCjyNm4fWWz3ngOG7M6/TLSue29T/JLPLPBm5TvAjA6Jbf57G4nuREBeQVWYUVS54vUjOJh/MWSrlGnEU8X/iSEWnk5VYFoxNHGnnQK+OJCggG4nYytxSuDozOeoQxV4eSmrSOjiuKs8hfAdyqYMvn0yyuZzmRAcE4TK8cL4VvdXHFGDNP9YDijVYzJZCAalEMBmEL+zSL61kOOiBbywL8UhlISm0Ro/RbFWKuSqKDeF3le16WwEDTdC/Jw0icOAaqMDpxpKFXynUFhD0o1lG7Z1vYJPNXlyrAff0KSU98TolbEXNVzBT7NNN9HRYXSsYwjMTDeOJIC+N7DtcVkC9cz3AIyPJeWV15/ABSwRZ5EP2o2jKQzpS8hYs887kCLZ/JrDhL60nWFRCmS+wXzP2eaW72mJizHQ9nP7pmat0b4j4XYAyCAa0sEn+xVV0en99FN1VG4tzimgEd0ImTWj3VFRDWIxgrWI/nk7K9mJE5zGQiU+yKajAqPxLFMesYTEoSRR+5rVHO2O8OY5oeJm8WMxJnRG5p6MRZuFJJYys94egnG3OOXZWTq8CuFAU7iHkoHuiMO3wii1J8SdS/3vp003nw8+ZVVAd5/UQk+ySJi8J1BuRn9ZirgquDr5sy3c4kInyY0licYvqDBSoFO+h5xfBABzB8wigHM1rHx5aPdK6rPLwxSRTS+UrljW4rST/LrGC1VGdArKeMhtmSzSIUhoWPUeItYr/QpGAHsSee+z1AUA7G15jvCIcTih2FXcQf0llXYaoFXcE4NAiAxOl5Tc+aAKkZMAmQBEjNLFCz5sS6QsIHn3dSG1ad1UmDP/c1OxYgH6hmvnMi0SRG0sPO+zctMenw6iTReYwFCK+bUf+tQ2dXBiaG8RVej5kNjgUIlR2uw55iphpwTovKqmc8zq9qWsS34Lup8zWVZGZgKUnzCZPaTjEB4TnCLwHHaDw/JgJ76y2nQDd9YlaBmYGnVS6XYgKSW2lKyLdAAiTfNn1JSYD0xez5lSZA8m3Tl5QESF/Mnl9pAiTfNn1JSYD0xez5lSZA8m3Tl5QygOCczJImK2hZXy7FvZ91Z1blsna6jubEtpEsgZcIjgxSO4g5IUa8i3ekNBrUR738az7aEWahvaz60X76Eaazte1mRTLLMFmjIW2cqQwg26mN7OHbUhLjSLQRndlEMXuJcSCQaCPvxIaLj0/EoDi94SUC4OGGTdbIT1IBnODOkwzJ6t1UCbRDoo1oLw7WtJ8NoW2JCvD5JEbTeLEww6Co8aUygEzjmuh1i/Zx4VYz8hSls5HS3DWR4a/Yl/U654V9nNdJg31ct22jfHQuA0j0Rg1zBWUAyV1cyTBkN3kzincd1U193eTtuiFlC5QBxDuf4aIT1u3jvG75LO4XRfA9eIkWfSONxS2Jxvs6hD5TbJKhnJIaeDciPY/WttHSrW24i4bOd76eaHoZQG5Qa3h48nDnIahgGx2lEN8X5OGY5aKJsxmOassrH5/NkGgRU/YrKLSvmE004a8YT0XSKY/jmrK1EV7pONBRPw/mtkQFaC/Od7Qf/2BFtdEuCrGGwzKzgaOo8aMygGAkQMH3lpXBsLU4r/HfoHk1DdMI42nOq+ljBDKY5U1WG5EZyQ0WvCjPebLScaCjflbmwnS2EOCeSvvpR5jOFckajt/ME+aJGi4ChP9qYJXzUX3Th1WG4xqcvCu3RREgT7ra+O8IvNeb9/iwyd1kCwaMEk1i6TbvCm1mKHsoAgSnYj7awrn53+Hck9lbMYyMb7HfDs2+RexSiosKFQHC96R4QBooRecZpjT2nrB5KEqfiwChQh5u80g5QsyuU3YaDSPjU8adYRnZIW8jqZJ6p9EAoQauFG5X7NFmE8wwMtvfmP96BIPE5LEAErP+dO7AAgmQwCD9DiZA+o1AUH8CJDBIv4MJkH4jENT/FwAAAP//By782AAAAAZJREFUAwDj73D2q/c8+gAAAABJRU5ErkJggg==;fontFamily=Garamond;" parent="1" vertex="1">
          <mxGeometry x="305" y="307" width="50" height="50" as="geometry" />
        </mxCell>
        <mxCell id="mUBdkkdLRuT3rxrUyl42-13" value="" style="rounded=1;whiteSpace=wrap;html=1;arcSize=5;glass=1;" parent="1" vertex="1">
          <mxGeometry x="390" y="192" width="480" height="328" as="geometry" />
        </mxCell>
        <mxCell id="mUBdkkdLRuT3rxrUyl42-19" value="" style="html=1;verticalLabelPosition=bottom;align=center;labelBackgroundColor=#ffffff;verticalAlign=top;strokeWidth=2;strokeColor=#CD7F32;shadow=0;dashed=0;shape=mxgraph.ios7.icons.data;fillColor=none;fontColor=#ffffff;" parent="1" vertex="1">
          <mxGeometry x="423" y="260" width="90" height="140" as="geometry" />
        </mxCell>
        <mxCell id="mUBdkkdLRuT3rxrUyl42-22" value="" style="html=1;verticalLabelPosition=bottom;align=center;labelBackgroundColor=#ffffff;verticalAlign=top;strokeWidth=2;strokeColor=#666666;shadow=0;dashed=0;shape=mxgraph.ios7.icons.data;fillColor=none;fontColor=#333333;" parent="1" vertex="1">
          <mxGeometry x="583" y="260" width="90" height="140" as="geometry" />
        </mxCell>
        <mxCell id="mUBdkkdLRuT3rxrUyl42-23" value="" style="html=1;verticalLabelPosition=bottom;align=center;labelBackgroundColor=#ffffff;verticalAlign=top;strokeWidth=2;strokeColor=#d6b656;shadow=0;dashed=0;shape=mxgraph.ios7.icons.data;fillColor=none;" parent="1" vertex="1">
          <mxGeometry x="743" y="260" width="90" height="140" as="geometry" />
        </mxCell>
        <mxCell id="mUBdkkdLRuT3rxrUyl42-24" value="&lt;font face=&quot;Garamond&quot;&gt;&lt;span style=&quot;font-size: 14px;&quot;&gt;Bronze&amp;nbsp;&lt;/span&gt;&lt;/font&gt;" style="rounded=1;whiteSpace=wrap;html=1;strokeColor=none;" parent="1" vertex="1">
          <mxGeometry x="440" y="230" width="60" height="30" as="geometry" />
        </mxCell>
        <mxCell id="mUBdkkdLRuT3rxrUyl42-25" value="&lt;font face=&quot;Garamond&quot;&gt;&lt;span style=&quot;font-size: 14px;&quot;&gt;Silver&lt;/span&gt;&lt;/font&gt;" style="rounded=1;whiteSpace=wrap;html=1;strokeColor=none;" parent="1" vertex="1">
          <mxGeometry x="598" y="230" width="60" height="30" as="geometry" />
        </mxCell>
        <mxCell id="mUBdkkdLRuT3rxrUyl42-26" value="&lt;font face=&quot;Garamond&quot;&gt;&lt;span style=&quot;font-size: 14px;&quot;&gt;Gold&lt;/span&gt;&lt;/font&gt;" style="rounded=1;whiteSpace=wrap;html=1;strokeColor=none;" parent="1" vertex="1">
          <mxGeometry x="753" y="230" width="60" height="30" as="geometry" />
        </mxCell>
        <mxCell id="mUBdkkdLRuT3rxrUyl42-27" value="" style="line;strokeWidth=1;fillColor=none;align=left;verticalAlign=middle;spacingTop=-1;spacingLeft=3;spacingRight=3;rotatable=0;labelPosition=right;points=[];portConstraint=eastwest;strokeColor=inherit;" parent="1" vertex="1">
          <mxGeometry x="399" y="426" width="460" height="8" as="geometry" />
        </mxCell>
        <mxCell id="mUBdkkdLRuT3rxrUyl42-28" value="&lt;font face=&quot;Garamond&quot;&gt;&lt;span style=&quot;font-size: 14px;&quot;&gt;&lt;b&gt;Loading Scenerios:&lt;/b&gt;&lt;/span&gt;&lt;/font&gt;" style="rounded=1;whiteSpace=wrap;html=1;strokeColor=none;" parent="1" vertex="1">
          <mxGeometry x="410" y="440" width="150" height="30" as="geometry" />
        </mxCell>
        <mxCell id="mUBdkkdLRuT3rxrUyl42-29" value="" style="sketch=0;html=1;aspect=fixed;strokeColor=none;shadow=0;fillColor=#3B8DF1;verticalAlign=top;labelPosition=center;verticalLabelPosition=bottom;shape=mxgraph.gcp2.data_increase" parent="1" vertex="1">
          <mxGeometry x="815" y="468" width="20.28" height="26" as="geometry" />
        </mxCell>
        <mxCell id="mUBdkkdLRuT3rxrUyl42-30" value="&lt;font style=&quot;font-size: 14px;&quot; face=&quot;Garamond&quot;&gt;Incremental load&lt;/font&gt;" style="rounded=1;whiteSpace=wrap;html=1;strokeColor=none;" parent="1" vertex="1">
          <mxGeometry x="705" y="470" width="110" height="30" as="geometry" />
        </mxCell>
        <mxCell id="mUBdkkdLRuT3rxrUyl42-31" value="" style="shape=image;verticalLabelPosition=bottom;labelBackgroundColor=default;verticalAlign=top;aspect=fixed;imageAspect=0;image=data:image/png,iVBORw0KGgoAAAANSUhEUgAAAgAAAAIACAYAAAD0eNT6AAAQAElEQVR4AezdCbCtWVUY4EOaMFgYGwyhWyU2QnVZaFQigiAoTVACFogSHFACVFMllqKRDAiCJQENSRlNmZhQ0RCiIQxJhEQGFSODRGIQtUASVLBREboVBEe6aQHXbt55vnf7Dv/5x733+rr2eue+c8+//7W+dfr969137zl/Zec/AgQIECBAIJ2AASBdyxVMgAABAgR2OwOAZwEBAgQIEEgoYABI2HQlEyBAgEBugVK9AaAoCAIECBAgkEzAAJCs4colQIAAgewCH6/fAPBxB78SIECAAIFUAgaAVO1WLAECBAhkF9jXbwDYS7glQIAAAQKJBAwAiZqtVAIECBDILvCX9RsA/tLCRwQIECBAII2AASBNqxVKgAABAtkFLqzfAHChho8JECBAgEASAQNAkkYrkwABAgSyC1xcvwHgYg+/I0CAAAECKQQMACnarEgCBAgQyC5wtH4DwFERvydAgAABAgkEDAAJmqxEAgQIEMgucPP6DQA3N3EPAQIECBDoXsAA0H2LFUiAAAEC2QWOq98AcJyK+wgQIECAQOcCBoDOG6w8AgQIEMgucHz9BoDjXdxLgAABAgS6FjAAdN1exREgQIBAdoGT6jcAnCTjfgIECBAg0LGAAaDj5iqNAAECBLILnFy/AeBkG58hQIAAAQLdChgAum2twggQIEAgu8Bp9RsATtPxOQIECBAg0KmAAaDTxiqLAAECBLILnF6/AeB0H58lQIAAAQJdChgAumyroggQIEAgu8BZ9RsAzhLyeQIECBAg0KGAAaDDpiqJAAECBLILnF2/AeBsI48gQIAAAQLdCRgAumupgggQIEAgu8CQ+g0AQ5Q8hgABAgQIdCZgAOisocohQIAAgewCw+o3AAxz8igCBAgQINCVgAGgq3YqhgABAgSyCwyt3wAwVMrjCBAgQIBARwIGgI6aqRQCBAgQyC4wvH4DwHArjyRAgAABAt0IGAC6aaVCCBAgQCC7wCH1GwAO0fJYAgQIECDQiYABoJNGKoMAAQIEsgscVr8B4DAvjyZAgAABAl0IGAC6aKMiCBAgQCC7wKH1GwAOFfN4AgQIECDQgYABoIMmKoEAAQIEsgscXr8B4HAzRxAgQIAAgeYFDADNt1ABBAgQIJBdYEz9BoAxao4hQIAAAQKNCxgAGm+g9AkQIEAgu8C4+g0A49wcRYAAAQIEmhYwADTdPskTIECAQHaBsfUbAMbKOY4AAQIECDQsYABouHlSJ0CAAIHsAuPrNwCMt3MkAQIECBBoVsAA0GzrJE6AAAEC2QWm1G8AmKLnWAIECBAg0KiAAaDRxkmbAAECBLILTKvfADDNz9EECBAgQKBJAQNAk22TNAECBAhkF5havwFgqqDjCRAgQIBAgwIGgAabJmUCBAgQyC4wvX4DwHRDOxAgQIAAgeYEDADNtUzCBAgQIJBdYI76DQBzKNqDAAECBAg0JmAAaKxh0iVAgACB7ALz1G8AmMfRLgQIECBAoCkBA0BT7ZIsAQIECGQXmKt+A8BckvYhQIAAAQINCRgAGmqWVAkQIEAgu8B89RsA5rO0EwECBAgQaEbAANBMqyRKgAABAtkF5qzfADCnpr0IECBAgEAjAgaARholTQIECBDILjBv/QaAeT3tRoAAAQIEmhAwADTRJkkSIECAQHaBues3AMwtaj8CBAgQINCAgAGggSZJkQABAgSyC8xfvwFgflM7EiBAgACB6gUMANW3SIIECBAgkF1gifoNAEuo2pMAAQIECFQuYACovEHSI0CAAIHsAsvUbwBYxtWuBAgQIECgagEDQNXtkRwBAgQIZBdYqn4DwFKy9iVAgAABAhULGAAqbo7UCBAgQCC7wHL1GwCWs7UzAQIECBCoVsAAUG1rJEaAAAEC2QWWrN8AsKSuvQkQIECAQKUCBoBKGyMtAgQIEMgusGz9BoBlfe1OgAABAgSqFDAAVNkWSREgQIBAdoGl6zcALC1sfwIECBAgUKGAAaDCpkiJAAECBLILLF+/AWB5Y2cgQIAAAQLVCRgAqmuJhAgQIEAgu8Aa9RsA1lB2DgIECBAgUJmAAaCyhkiHAAECBLILrFO/AWAdZ2chQIAAAQJVCRgAqmqHZAgQIEAgu8Ba9RsA1pJ2HgIECBAgUJGAAaCiZkiFAAECBLILrFe/AWA9a2ciQIAAAQLVCBgAqmmFRAgQIEAgu8Ca9RsA1tR2LgIECBAgUImAAaCSRkiDAAECBLILrFu/AWA+79vGVpc1EHeIHA9Zl8aDW6ir1RxvFb6nrdvHJ1utrYW8z/IPfotAnwIGgPn6+jWx1XsbiFdGjoes58eDW6ir1RwfGL6nrRfGJ1utrYW87xu+FoEqBNZOwgCwtrjzESBAgACBCgQMABU0QQoECBAgkF1g/foNAOubOyMBAgQIENhcwACweQskQIAAAQLZBbao3wCwhbpzEiBAgACBjQUMABs3wOkJECBAILvANvUbALZxd1YCBAgQILCpgAFgU34nJ0CAAIHsAlvVbwDYSt55CRAgQIDAhgIGgA3xnZoAAQKdCdw16vm0CGuwwHYPNABsZ+/MBAgQ6EngblHMayNeE2EICITalwGg9g7JjwABAvULlIv//sJ/4cf1Z75xhlue3gCwpb5zEyCQTeCTo+DPjrgq4h4R5R0TW/9z+LgL/nH3RblWTQKtP/FqspySy/Vx8HUHxB/EY1tYH4wkD6mr1cd+OOqscX0gkmrV9JC8b4w6a1y3i6QeFfGCiHdF3BDxvoi3RvxsxC9FlHdMLM+f98THL4+4OuKOEa2s0y70p32ulfoWznPb7Q0A2/rvz/7i+KD8TWBofHk8voX1+EhyaE0tP6586TNKrW49OjJq2XVo7j8fdda0yv+fr4iEysX+JXFb+vDpcXuriOPWJXHn5RHluB+J22sjXh/x2Iia/4wecoEf8pgo09pCoOYn1xYezkmAAIGxAveKA8s3wZW/yT80Pr51xJhV/ly+fxz4/Ii3RDw8orZ1yIX9kMfWVuei+Wy9eXmibZ2D8xMgQKBlgTtE8uVv+r8Qt18SMef6rNjsf0S8IeLKiBrWmAv6mGNqqLXrHAwAXbdXcQQILCxQLtD/N85R/q0/bhZbXxQ7lwHjwXG75ZpyIZ9y7JY1L3Tu7bc1AGzfAxkQINCmwMMi7TdGlBe/iZvF16VxhvK9BU+O2y3WHBfwOfbYovYuz2kA6LKtiiJAYGGBr4/9XxbxiRFrrvINg/8yTviciDXXnBfuOfda02DWc9WwmQGghi7IgQCBlgTuHcmW79bf8s/Pp0QOj4lYYy1xwV5izzUsujrHlk/griAVQ4BACoHyErflb/63qaDafx85lJ88iJvF1pIX6iX3Xgxkno3r2MUAUEcfZEGAQP0C5cvvL400y+sTxM3mqwwhJZ/bL5TJGhfoNc6xEE/72xoA2u+hCggQWEfg78dp7hlR0/qUSOZpEXOvNS/Ma55rbqdR+9VykAGglk7IgwCBmgXK37afWWmCT4q8yisNxs0sa4sL8hbnnAWr5U0MAC13T+4ECKwl8C1xojtH1LjKKw4+a6bEtrwQb3numfiGbFPPYwwA9fRCJgQI1Clwy0irfNd93FS7viEyu0vElFXDBbiGHKYYNnWsAaCpdkmWAIENBMrr8v/1Gc9b3iWzvIFReSfAuba9RWz0iIixq6YLb025jPU88biaPmEAqKkbOXMp38Fcvqu61ihfXu25M+V17Gu1L3md9A56a/bkK2c42Q2xx3dGlItbec6Xl/Yt38BX4uq4//0RU9fYPEtO5R0ty484Ts1hruNrzGmu2qrZxwBQTSvSJvLCqLz8TajWeEjk1/P68SiuVvuS1wMjv63XV0xM4Bfj+HtEfG/EOyMuXKXG58Ud5T0FyrsIxoejVxkq7njg0TVfaGvO7UDm/cPrujUA1NUP2RAgUJfA3SOdvxkxdpW/2X95HPz/I05b18UnHxnx1oixq/x5/qUHHLzEBfZP4vzlqx1xM8taIsdZEuthk/KE6aEONRAgQGAJgak/Xld+RO/3Bib24XjcYyNujBi7hua7xIW1XPzLV8zK9yIYAo7pYG13GQBq64h8CBCoSeDyCcn8Zhxb/okrbgavX45H/kTE2DUk3yUv/m+IxH8ywhAQCLUvA0DtHZIfAQJbCgy5oJ6UX/m3/5M+d9r9Y48re56V79IX/5JDCUNAUbgo6vuNAaC+nsiIAIF6BM66oJ6W6ZtP++Qpnxt7XNnytHzXuviXPEoYAopCxWEAqLg5UiNAYHOBj0zIYOyPMI49rqT60fLLMbH2xX+fgiHgnESNNwaAGrsiJwIEahEoP6Y3NpfPH3nglDccuvaYc2518d+nYgjYS1R2awCorCHSIUCgKoEpA8AXRCVj/oy9dxw3dh0dALa++O/rKD8hMOWnG/b7XHhb3qCpkRfqujDtej4e8+SsJ3uZECBAYFmBKQPAp0Zq3xpxyHpQPPjBEWPXhQNALRf/+0Uxr4q4XcRc692x0VURR19YKe6yhgoYAIZKeRwBAhkFpl5gyqv/XTkQ7pPicf8xoryuf9yMWm8/d1SGi/87ztVa/U2tCRoAau2MvAgQqEGgDAD7i+qYfG4bB/2viC+LOG19TnzydRFTXo+/vJDQq2MPF/9AsM4WMACcbeQRBAjkFnjpxPLLRf2nYo8fjvg7EZdGlPUJ8ct9Iv5pxJsiPjdiynptHHyniLnf2Kf8+315hb/yIj+x/aC15Jf9G/ub/yCvTR5kANiE3UkJEGhIYOoAsC/1CfHBz0R8IOJ3I/4o4ucjnhEx5Uf/4vCbVnm/ARf/myj8MkTAADBEyWNqFSh/kJY3UTkr5nxd8lottshrqH/50vQW+c11zvLKfNfMtdm5fcrbAF9y7uO5bp4YG5WvNsTNLMvf/GdgrHkLA0DN3ZHbWQKPjgdcNiDKzyHHw6yZBb4q9hviX/5WGg9tdn0sMn9mRO1rzh+Jc/Gvvdsz5GcAmAHRFgQIdC/wY1Hhr0ZkWC7+s3W57o0MAHX3R3YECNQhUF5i96l1pLJoFi7+i/LWtbkBoK5+yIYAgXoFXh6pTXmr3ji86uXiP3N7at/OAFB7h+RHgEBNAl8fybwtorfl4t9bRwfUYwAYgOQhBAgQOCfwx3H78Ij3R/SyXPwX6WT9mxoA6u+RDAkQqEvgNyOdR0b8aUTry8W/9Q5OyN8AMAHPoQQIpBUoL9t736j+tyJaXS7+C3auha0NAC10SY4ECNQo8JZI6gsiXh/R2nLxb61jC+RrAFgA1ZYECKQR+P2otLyF77Pi9s8iWlgu/ot3qY0TGADa6JMsCRCoV+DGSO27Iq6MeF5Eec2AuKlyufhX2ZZtkjIAbOPurAQI9CdQ3uDn6ijr8yL+bUT5fdwcvD4YR7w5Yu7l4j+36An7tXK3AaCVTsmTAIFWBN4aiX5zxJ0j7hXxvRHlmwZ/I27LRThuzq8PxUfvjPi5iO+LeEDEfSLuE9/X0QAAEABJREFUFDHnKud9SGz4hoih637xwFdF3C5irvXu2OiqiHdEWBsLGAA2boDTEyDQrUB5E6E3RXXfGVEu7OWfCD4xPi7xGXF7+4hPiLhbxBdH/OOI8lWDV8etd/ULhDZXO1kbANrplUwJEOhDoPxt/JoopXypP27OrzIIlHdOdPE/T+KDJQUMAEvq2psAAQLDBFz8hzlV/6iWEjQAtNQtuRIg0KOAi3+PXW2gJgNAA02SIgEC3Qq4+HfV2raKMQC01S/ZEiDQj4CLfz+9bLISA0CTbZM0AQKNC7j4N97A49Jv7T4DQGsdky8BAq0LuPi33sFO8jcAdNJIZRAg0ISAi38TbRqTZHvHGADa65mMCRBoU8DFv82+dZu1AaDb1iqMAIGKBFz8K2rGEqm0uKcBoMWuyZkAgZYEXPxb6laiXA0AiZqtVAIEVhfIcPG/LlS/KuJpET8Y8ZKI10eUNx76r3Fb7ntq3D464o4RHa42SzIAtNk3WRMgUL9Azxf/G4L/v0f8UMT7IsrH3xO3T4p4VMT9I74o4u9FlPvKOyK+ID6+NqIMB98et3eJsDYUMABsiO/UBAh0K9Dzxb807dbxy7dFfFnErSKGrnLNKcPB98cB5W2Qfyxur4hoerWafGlGq7nLmwABAjUK9H7xn8v8FrHRN0S8PaIMBJ8ct9aKAgaAFbGdigCB7gVc/A9vcflqQvkngbfGofeOaGy1m64BoN3eyZwAgboEXPyn9ePyOPx1EY+JsFYQMACsgOwUBAh0L+DiP0+Ly1cDfjS2ek5EE6vlJA0ALXdP7gQI1CDg4j9/F54SWz45wlpQwACwIK6tCRDoXsDFf7kW/4vY+sERFa+2UzMAtN0/2RMgsJ2Ai/+y9pfE9i+KuDLCWkDAALAAqi0JEOhewMV/nRZfGqf54YgqV+tJGQBa76D8CRBYW8DFf13xL47TPSzCmlnAADAzqO0IEOhawMV/m/aWnwoo/ySwzdmPPWv7dxoA2u9h5grKa4w/NwDOis+Nx1jzC5Tv0j7Lvnz+7vOfepMdXfw3Yb/ppOU59LibPvLLbAIGgNkobbSBwEPjnN84ILzWeCAtsMqXZYf433mBc6+9Zc8X/3cH5i9F1L4eX1OCPeRiAOihi2ogQGBJgd4v/uUNfUqNUw0/Fhu8KuKZEWU4LD/C97T4+McjboyYuu4TG/yNCGsmAQPATJC2IUCgS4FyYXxNVPZpEXOtP4mNHhLxhoih637xwHJxvV3czrXK3/yvis0+NeKvRUxZ74qDHxRRvir33XH78oifjvhnEY+MuFfEWyKmrHK9eviUDeY7to+dCmgflaiCAAEC8wpkuPi/I8imXlTLPx/8rdjnZyNOWr8Sn7hnxCsipqxHTDnYsRcLGAAu9vA7AgQIFIEsF/9S65R34LshNnhsRPmqRtycuso/AzwhHvH+iLHrb489cM7jetnLANBLJ9VBgMBcApku/sXssvLLyCgv1/urBxx7bTz2n0SMXeV7AFy3xuodOQ7kERC/JUAgvcA3h8Cc/+Yf2+3Kl75r+Tf/8mX/ktM+pgwA5fsS9vsMvR1zzH7v8loAZQjY/36D235OaQDop5cqIUBgHoF/FNu8IGLO9TWx2Q9EDFlLfsPf0Yv/HSKhW0WMWR+Jg8q/7cfNQeu98egScTNqXT7qKAfdTMAAcDMSdxAgkFygXNjKv2vPPQT8g3A9awhY8+If6ew+qfwyMq6L4z4UMWZdM+agc8eU9wc49+H6Nz2d0QDQUzfVQoDAXAJbDAFrX/yL1e+XX0bGp8RxYy/G5ZX94vBRa0rOo07Y60EGgF47qy4CBKYKrDkEbHHxLz7lu/dLlI/HxOePOOiucczYwSEO3U3554Ny/ITo61ADQF/9VA0BAvMKrDEEbHXx30tNuaB+3X6TA27HHLPf/sPxwZQfI4zDrb2AAWAv4ZYAAQLHCyw5BLwoTlm+K36JV/g7+g1/capj13uOvXfYnVfHw8qrGsbNoPU58ahnRIxdU4aVsec8f1xvHxgAeuuoeggQWEJgqSGg/HTAlhf/YvW/yy8T4kfi2CH/pl9+tLJ8Y+XYnzqI0+ym5lr2EOcEDADnINxsJvCDceZvqjjG/JhTlNPM+v7ItGb/t0V+taylhoC56tu/tv/Qv/nvz/vS/Qcjb8s3A5aXA/6HcfxJ15THxOfKCwZ9dtxOWVNznXDu/g49qVn9VaqiWgVeGYk9t+Iob3IS6XW7/mdUVrP/70R+Na1ah4CxF/9i+4vxy1TnW8ce3xfx2xEvi3h6RHnFvxfH7TsjfjRiyo8cxuG76+OXn4ywZhIwAMwEaRsCBNII1DYETLn475tWLtr7j6fclncW/IrY4FkR/zziqyM+I2KO9erYZMpPLMTh41ePRxoAeuyqmggQWFqgliFgjot/sSpfBSo1lY9rjX9Ta2Kt5mUAaLVz8iZAYGuBcsFc4hUDh9Y118W/nO//xS/ly/RxU+Uqf/v/6e0y6/PMBoA++6oqAgTWEdhqCJjz4r+X+q74oPw7e9xUtT4W2TwlwppZwAAwM6jtCBBIJ7D2ELDExb80rexbfiqnfFxT/OdI5pcjNlu9ntgA0Gtn1UWAwJoCaw0B5SJ9VRR26I/6xSGDVvkqwBsHPXKdB/16nOZJEdYCAgaABVBtSYBASoGlh4ClL/6laTfEL18ZMfXHAmOLyeuPYofyEwV/GLcbrn5PbQDot7cqI0BgfYGlhoA1Lv57revig4dH/FnEVuujceJHR7w9wlpIwACwEKxtCRBIKzD3ELDmxX/ftPIKmH83frPFW+9+KM5bXjnwFXG7+eo5AQNAz91VGwECWwnMNQRscfHfm/1cfHCviLdErLXKPz3cP072XyKshQUMAAsD254AgbQCU4eALS/++6aVl8K+b/zmv0UsvV4fJ7hnxJsjKll9p2EA6Lu/qiNAYFuBsUNADRf/vdyfxgePinhwxBJfDbgm9v26iAdE/F6EtZKAAWAlaKchQCCtwKFDQE0X/wubVl6J7x5xx+Mjypv+xM2k9b44+skRnxnxoojygj9xU8/qPRMDQB0dvk+kUV6Le2iUd9mKQ6pfT4wMh9bU8uPuHnXWuMrPT7fsOjT3K2vEP5LT0CGg1ov/vpzy3fnPj99cEfGFEeUNf34tboeuMjj863jwAyMuj/iBiA9HWBsIGAA2QD/mlOUPsG+M+4dG+TndeHj1q3zJcGhNLT/uzpV24qGRV8uuQ3MvF5Iotfp11hBQ+8X/QuDyt/VfiDu+I6L8Df5ucVv+f39c3D41oryi4A/FbXlb4KvjtjwXPytuPz3iWyNeE/HnERWv/lMzAPTfYxUSIFCPwElDQEsX/+M03xl3ln8i+E9x+5yIb4v4lojviXhexKsiyhsOxY1Vi4ABoJZOyIMAgSwCR4eA1i/+XfYtQ1EGgAxdViMBArUJ7IeAfxWJLfna/rG9ReB4AQPA8S7uJUCAwNICZQj49jjJUm/sE1tb4wRyHGUAyNFnVRIgQIAAgYsEDAAXcfgNAQIECGQXyFK/ASBLp9VJgAABAgQuEDAAXIDhQwIECBDILpCnfgNAnl6rlAABAgQInBcwAJyn8AEBAgQIZBfIVL8BIFO31UqAAAECBM4JGADOQbghQIAAgewCueo3AOTqt2oJECBAgMBNAgaAmxhm+eWNscs3NRDl7TsjzcHr38UjW6ir1RzfFr6nrfKuaq3W1kLev34avs/lEshWrQFgvo7/Wmz13AbipZHjIeun4sEt1NVqjr8TvqetV8YnW62thbzfE74WgZQCBoCUbVc0AQIECFwskO93BoB8PVcxAQIECBDYGQA8CQgQIEAgvUBGAANAxq6rmQABAgTSCxgA0j8FABAgQCC7QM76DQA5+65qAgQIEEguYABI/gRQPgECBLILZK3fAJC18+omQIAAgdQCBoDU7Vc8AQIEsgvkrd8AkLf3KidAgACBxAIGgMTNVzoBAgSyC2SuvwwAlwWA2O0YMPAc8BzwHPAcSPMcKAPAe2MAELsdAwaeA54DngOpngO5/9wvA0Bc/y0CBAgQIEAgk4ABIFO31UqAAAEC5wWyf2AAyP4MUD8BAgQIpBQwAKRsu6IJECCQXUD9BgDPAQIECBAgkFDAAJCw6UomQIBAdgH173YGAM8CAgQIECCQUMAAkLDpSiZAgEBuAdUXAQNAURAECBAgQCCZgAEgWcOVS4AAgewC6v+4gAHg4w5+JUCAAAECqQQMAKnarVgCBAhkF1D/XsAAsJdwS4AAAQIEEglMHQCuCyux2zFg4DngOeA50MBzoMNrVpQ0bk0dAC6L04rdjgEDzwHPAc8Bz4EtngNxGR63pg4A487qKAIECBAgsLqAE14oYAC4UMPHBAgQIEAgiYABIEmjlUmAAIHsAuq/WMAAcLGH3xEgQIAAgRQCBoAUbVYkAQIEsguo/6iAAeCoiN8TIECAAIEEAgaABE1WIgECBLILqP/mAgaAm5u4hwABAgQIdC9gAOi+xQokQIBAdgH1HydgADhOxX0ECBAgQKBzAQNA5w1WHgECBLILqP94ga0HgFtGWrcROwY7Bv4/8BzwHEj3HLhl9HyztfUA8PSo/ENix2DHwP8HngOeA0s8B6res1wDo+3brK0HgG2qdlYCBAgQIJBcwACQ/AmgfAIECPQsoLaTBQwAJ9v4DAECBAgQ6FbAANBtaxVGgACB7ALqP03AAHCajs8RIECAAIFOBQwAnTZWWQQIEMguoP7TBQwAp/v4LAECBAgQ6FLAANBlWxVFgACB7ALqP0vAAHCWkM8TIECAAIEOBQwAHTZVSQQIEMguoP6zBQwAZxt5BAECBAgQ6E7AANBdSxVEgACB7ALqHyJgABii5DEECBAgQKAzgZYHgI9EL24Qu5MMPho2Y9eNceBJ+7o/cCYsfrsTn7PFZgLtqfuWvTNH+X96rG35s6Qpuyh0zXzLtShO2d5qeQB4dnDfRuxOMviJsBm7vjoOPGlf9+9214XP2HVFHMhwd+zzttgEz6hVesL1eNfiUv6fHgUbB5U/S8oe4njfci0KpvZWywNAe9oyJkCAAIGFBWw/VMAAMFTK4wgQIECAQEcCBoCOmqkUAgQIZBdQ/3ABA8BwK48kQIAAAQLdCBgAummlQggQIJBdQP2HCBgADtHyWAIECBAg0ImAAaCTRiqDAAEC2QXUf5hAbwPAd0T5H6s4Lovcjq7vjjum5vzE2GPp9do4wdQ8lzr+VyK349b/iTunnvMzY48lV/nZ6qk5Lnn8c44p/tK4b+o53xV7LL0eESeYmueSxz8g8ju6vjbumHrO58YeS69yjql5LnX89ScU//y4f+o5y3Mqtulj9TYA9NEVVRAgQIDAgQIefqiAAeBQMY8nQIAAAQIdCBgAOmiiEggQIJBdQP2HCxgADjdzBAECBAgQaF7AANB8CxVAgACB7ALqHyNgABij5hgCBAgQINC4gAGg8QZKnwABAtkF1MP5+d8AAAzcSURBVD9OwAAwzs1RBAgQIECgaQEDQNPtkzwBAgSyC6h/rIABYKyc4wgQIECAQMMCBoCGmyd1AgQIZBdQ/3gBA8B4O0cSIECAAIFmBQwAzbZO4gQIEMguoP4pAgaAKXqOJUCAAAECjQr0NgCUty69RfSi1rg2cju6ytsBT823vDXn0X3n/n1569KpeS51/OedUOwXxv1Tz/n22GPJVd66dGqOSx5f3mL7aP0fjDumnvOK2GPp9bI4wdQ8lzy+vMV2pHjRelH8buo513h78HKOqXlOPv4Eq9vE/cetx8WdU89ZnlOxTR+rtwGgj66oggABAgQILCxgAFgY2PYECBAgsISAPacKGACmCjqeAAECBAg0KGAAaLBpUiZAgEB2AfVPFzAATDe0AwECBAgQaE7AANBcyyRMgACB7ALqn0PAADCHoj0IECBAgEBjAgaAxhomXQIECGQXUP88AgaAeRztQoAAAQIEmhIwADTVLskSIEAgu4D65xIwAMwlaR8CBAgQINCQgAGgoWZJlQABAtkF1D+fgAFgPks7ESBAgACBZgQMAM20SqIECBDILqD+OQUMAHNq2osAAQIECDQiYABopFHSJECAQHYB9c8rYACY19NuBAgQIECgCYFeBoC7hvbXit2lu/n/u2dsyTYQFlgPij2z2xaDYJh9ZXct9Zf/d+eGLX/GlL03iF1N57zL3LBb7NfLAPClgfdCsbtiN/9/T4gt2QbCAuvZsWd222IQDLOv7K6l/vL/7tyw5c+Ysnf2+JK5YbfYr5cBYAs75yRAgACBlQScZn4BA8D8pnYkQIAAAQLVCxgAqm+RBAkQIJBdQP1LCBgAllC1JwECBAgQqFzAAFB5g6RHgACB7ALqX0bAALCMq10JECBAgEDVAgaAqtsjOQIECGQXUP9SAgaApWTtS4AAAQIEKhYwAFTcHKkRIEAgu4D6lxMwACxna2cCBAgQIFCtgAGg2tZIjAABAtkF1L+kgAFgSV17EyBAgACBSgUMAJU2RloECBDILqD+ZQV6GQDeEUwvFrsPhMHc602xIdtAWGC9OvbMblsMgmH2ld211F/+350btvwZU/bOHtfMDbvFfr0MAD8TeDW9V/RWufxWOMy9/kNsuFU9NZ03GGZfz4gda6pxi1yKQTDMvraopbZzlv9354Ytf8asVOeu5vO8bm7YLfbrZQDYws45CRAgQIBAswIGgGZbJ3ECBAj0K6Cy5QUMAMsbOwMBAgQIEKhOwABQXUskRIAAgewC6l9DoOUB4OkBdL3YnWTwsLAZu14SB560r/t3uzuFz9j1rjiQ4e7Y522xCZ5Rq/SE6/GuxaX8Pz0KNg4qf5aUPcTxvk8PoyZXywPAJSF+a7E7yWBKb/8q1xNdi3fwjF7leLE70Xc0bBzI9WTX8v90EI1a5c+SVW0jy5bOd0nk2+QqjW0ycUkTIECAAAEC4wUMAOPtHEmAAAECswvYcC0BA8Ba0s5DgAABAgQqEjAAVNQMqRAgQCC7gPrXEzAArGftTAQIECBAoBoBA0A1rZAIAQIEsguof00BA8Ca2s5FgAABAgQqETAAVNIIaRAgQCC7gPrXFTAArOvtbAQIECBAoAoBA0AVbZAEAQIEsguof20BA8Da4s5HgAABAgQqEDAAVNAEKRAgQCC7gPrXFzAArG/ujAQIECBAYHOBrQeAZ4fAbcWOwY6B/w88B/I+B9L2vlwDo+3brK0HgD+Psq8XOwY7Bv4/8BzwHEj3HCjXwGj7NmvrAWCbqp2VAAECBKoRkMg2AgaAbdydlQABAgQIbCpgANiU38kJECCQXUD9WwkYALaSd14CBAgQILChgAFgQ3ynJkCAQHYB9W8nYADYzt6ZCRAgQIDAZgIGgM3onZgAAQLZBdS/pYABYEt95yZAgAABAhsJGAA2gndaAgQIZBdQ/7YCBoBt/Z2dAAECBAhsImAA2ITdSQkQIJBdQP1bC0wdAK6NAsRux4CB54DngOeA58AWz4G4DI9bUweAO8VpxW7HgIHngOeA58ABzwHXjtmuG0E5bk0dAMad1VEECBAgQIDApgIGgE35nZwAAQIZBdRcg4ABoIYuyIEAAQIECKwsYABYGdzpCBAgkF1A/XUIGADq6IMsCBAgQIDAqgIGgFW5nYwAAQLZBdRfi4ABoJZOyIMAAQIECKwoYABYEdupCBAgkF1A/fUIGADq6YVMCBAgQIDAagIGgNWonYgAAQLZBdRfk4ABoKZuyIUAAQIECKwkYABYCdppCBAgkF1A/XUJGADq6odsCBAgQIDAKgJlALg8ziR2OwYMPAc8BzwHFnsO+DO2tmttGQCujaTEbseAgeeA54DngOdAmudAGQDi+m8RIECAAIHlBOxcn4ABoL6eyIgAAQIECCwuYABYnNgJCBAgkF1A/TUKGABq7IqcCBAgQIDAwgIGgIWBbU+AAIHsAuqvU8AAUGdfZEWAAAECBBYVMAAsymtzAgQIZBdQf60CBoBaOyMvAgQIECCwoIABYEFcWxMgQCC7gPrrFTAA1NsbmREgQIAAgcUEDACL0dqYAAEC2QXUX7OAAaDm7siNAAECBAgsJGAAWAjWtgQIEMguoP66BQwAdfdHdgQIECBAYBEBA8AirDYlQIBAdgH11y5gAKi9Q/IjQIAAAQILCBgAFkC1JQECBLILqL9+AQNA/T2SIQECBAgQmF3AADA7qQ0JECCQXUD9LQgYAFrokhwJECBAgMDMAgaAmUFtR4AAgewC6m9DwADQRp9kSYAAAQIEZhUwAMzKaTMCBAhkF1B/KwIGgFY6JU8CBAgQIDCjgAFgRkxbESBAILuA+tsRMAC00yuZEiBAgACB2QQMALNR2ogAAQLZBdTfkoABoKVuyZUAAQIECMwkYACYCdI2BAgQyC6g/rYEDABt9Uu2BAgQIEBgFgEDwCyMNiFAgEB2AfW3JmAAaK1j8iVAgAABAjMIGABmQLQFAQIEsguovz0BA0B7PZMxAQIECBCYLGAAmExoAwIECGQXUH+LAgaAFrsmZwIECBAgMFHAADAR0OEECBDILqD+NgUMAG32TdYECBAgQGCSgAFgEp+DCRAgkF1A/a0KGABa7Zy8CRAgQIDABAEDwAQ8hxIgQCC7gPrbFTAAtNs7mRMgQIAAgdECBoDRdA4kQIBAdgH1tyxgAGi5e3InQIAAAQIjBQwAI+EcRoAAgewC6m9bwADQdv9kT4AAAQIERgkYAEaxOYgAAQLZBdTfuoABoPUOyp8AAQIECIwQMACMQHMIAQIEsguov30BA0D7PVQBAQIECBA4WMAAcDCZAwgQIJBdQP09CBgAeuiiGggQIECAwIECBoADwTycAAEC2QXU34eAAaCPPqqCAAECBAgcJGAAOIjLgwkQIJBdQP29CBgAeumkOggQIECAwAECBoADsDyUAAEC2QXU34+AAaCfXqqEAAECBAgMFjAADKbyQAIECGQXUH9PAgaAnrqpFgIECBAgMFDAADAQysMIECCQXUD9fQkYAPrqp2oIECBAgMAgAQPAICYPIkCAQHYB9fcmYADoraPqIUCAAAECAwQMAAOQPIQAAQLZBdTfn4ABoL+eqogAAQIECJwpYAA4k8gDCBAgkF1A/T0KGAB67KqaCBAgQIDAGQIGgDOAfJoAAQLZBdTfp4ABoM++qooAAQIECJwqYAA4lccnCRAgkF1A/b0KGAB67ay6CBAgQIDAKQIGgFNwfIoAAQLZBdTfr4ABoN/eqowAAQIECJwoYAA4kcYnCBAgkF1A/T0LGAB67q7aCBAgQIDACQIGgBNg3E2AAIHsAurvW8AA0Hd/VUeAAAECBI4VMAAcy+JOAgQIZBdQf+8CBoDeO6w+AgQIECBwjIAB4BgUdxEgQCC7gPr7FzAA9N9jFRIgQIAAgZsJGABuRuIOAgQIZBdQfwYBA0CGLquRAAECBAgcETAAHAHxWwIECGQXUH8OAQNAjj6rkgABAgQIXCRgALiIw28IECCQXUD9WQQMAFk6rU4CBAgQIHCBgAHgAgwfEiBAILuA+vMIGADy9FqlBAgQIEDgvIAB4DyFDwgQIJBdQP2ZBAwAmbqtVgIECBAgcE7AAHAOwg0BAgSyC6g/l4ABIFe/VUuAAAECBG4SMADcxOAXAgQIZBdQfzYBA0C2jquXAAECBAiEgAEgECwCBAhkF1B/PgEDQL6eq5gAAQIECOwMAJ4EBAgQSC8AIKOAASBj19VMgAABAukFDADpnwIACBDILqD+nAIGgJx9VzUBAgQIJBcwACR/AiifAIHsAurPKmAAyNp5dRMgQIBAagEDQOr2K54AgewC6s8rYADI23uVEyBAgEBiAQNA4uYrnQCB7ALqzyxgAMjcfbUTIECAQFoBA0Da1iucAIHsAurPLfAXAAAA///nSHviAAAABklEQVQDAHn2dWl3Ot9VAAAAAElFTkSuQmCC;" parent="1" vertex="1">
          <mxGeometry x="565" y="462" width="40" height="40" as="geometry" />
        </mxCell>
        <mxCell id="mUBdkkdLRuT3rxrUyl42-32" value="&lt;font style=&quot;font-size: 14px;&quot; face=&quot;Garamond&quot;&gt;Full load&lt;/font&gt;" style="rounded=1;whiteSpace=wrap;html=1;strokeColor=none;" parent="1" vertex="1">
          <mxGeometry x="505" y="472" width="50" height="30" as="geometry" />
        </mxCell>
        <mxCell id="mUBdkkdLRuT3rxrUyl42-33" value="" style="rounded=1;whiteSpace=wrap;html=1;arcSize=5;glass=1;" parent="1" vertex="1">
          <mxGeometry x="920" y="195" width="135" height="325" as="geometry" />
        </mxCell>
        <mxCell id="mUBdkkdLRuT3rxrUyl42-34" value="&lt;font face=&quot;Garamond&quot;&gt;Analytics&lt;/font&gt;" style="verticalLabelPosition=bottom;aspect=fixed;html=1;shape=mxgraph.salesforce.analytics;fillColorStyles=fillColor2,fillColor3,fillColor4,fillColor5,fillColor6,fillColor7,fillColor8;fillColor2=#7099a6;fillColor3=#eb912c;fillColor4=#c72035;fillColor5=#1f447e;fillColor6=#59879b;fillColor7=#e8762c;fillColor8=#5b6591;fillColor=none;strokeColor=none;" parent="1" vertex="1">
          <mxGeometry x="950" y="250" width="60" height="58.8" as="geometry" />
        </mxCell>
        <mxCell id="mUBdkkdLRuT3rxrUyl42-35" value="" style="image;aspect=fixed;html=1;points=[];align=center;fontSize=12;image=img/lib/azure2/analytics/Power_BI_Embedded.svg;" parent="1" vertex="1">
          <mxGeometry x="990" y="255" width="37.49" height="50" as="geometry" />
        </mxCell>
        <mxCell id="mUBdkkdLRuT3rxrUyl42-36" value="Machine Learning" style="shape=image;verticalLabelPosition=bottom;labelBackgroundColor=default;verticalAlign=top;aspect=fixed;imageAspect=0;image=data:image/png,iVBORw0KGgoAAAANSUhEUgAAAgAAAAIACAYAAAD0eNT6AAAQAElEQVR4AexdBYCU1ROfvS66u7u7U6VbUgQFFFREwAK7FRVFwAKRRlIapEGku7u74e64rv/M+gcPbu9u97331e4cM/u+eDNv3u9b9s33Yp4X8B8jwAgQAhnxoxFyH+TPkGcgb0Y+inwW+Q5yNHI8Mh3TtUN4vB15OfJPyIOQmyEXQrYhMzECjAAjYFoE2AEw7aNhwzRGgBrpvljGb8gHke8ib0CeiPw+8jPIdZFLIxdGzoLsj+yNTMd0rRwe10RuifwK8hjklcjnkO8jr0F+D7kOsg8yEyPACDACJkEAgB0A0zwKNkQHBCphGR8i70GmRvp3TF9ALo+s+v9CEOp8Avlz5C3I1GuwFNPnkDMgMzECjAAjYCgCqn/0DK0MF84IOEAgE17rj7wfeR/yJ8hVkPUmavRbY6GTkW8gz0Fui8w9AwgCEyPACOiLAJXGDgChwOyOCFTFSk1Bvoo8DrkislkoAA3pgrwYmeYSDMGUegwwYWIEGAFGQB8E2AHQB2cuRT8EKmBR9Ha9C9PeyIHIZqb8aNwo5PPIHyNnRmZiBBgBRkBDBP5VzQ7Avzjwp/URKINVWIBMXf30dm3DYytRdjT2I2TqEXgHUz9kJkaAEWAENEOAHQDNoGXFOiFAXef05rwXy+uAbLWGH01+hKgH4Eu8QksMm2PKxAgwAoyAUgQeKGMH4AESnFoRAWrwaZ0+vTnTEj0r1iE1m0vgjRXIM5HzIjMxAowAI6AUAXYAlMLJynRCgGbU08Q+6vIvqFOZRhXTHQsmJ6crpkyMACPACEgi8J84OwD/YcFH1kCgGpq5G5mW9mHiEURRCmdjTcnp4bkBCAQTI8AIyCPADoA8hqxBPwQo1C4F1aHucf1KNU9J5PRQeOKi5jGJLWEEGAErIZDcVnYAkqPBx2ZFgILlUKx9CrXr6W/A1fEh7USmMMWYMGmIgC/qpsiNFN75Fh7HIl9Cno/cHpl/PxEEJusiwF9g6z47T7E8BCtKY/0Uax8PmRCBrMjrkDshM2mDAMWToJDRFLmRNnjKhsWQQ5AP047IC5H/Rnb3OShYRSb3QeDRmrAD8CgefGYuBHKgOdTl3QZTpkcRoFUPNC+A3lAfvcNnsgjQnhHUuNMeEWnpqo83KR8Fc8JDJkbAWgiwA2Ct5+VJ1lLjvxYrrFsIXy+bDSpnywH9SpWDr2rUg3lPtoZ9nXrCqW7Pw+1eL0FUn1chrt9r9uOz3fvCwaefhZUtO8LYuo3h1bKV4Kl8BSGjr64jFDQ0MgkAXkNmUoMAhWmehaqyIDtDtCskhZy2evwJZ+rKeSyOwOPmswPwOCJ8bgYEHjT+1A2rqT35gkNgSPkqsLhZO7jVawDs6fgM/NbgSRhWqTp0KlwcKmbNDkUzZIIs/v7g7+0N3ugk0HGhkAxQLks2oEZ/IDb+Y9AJIGeAdGxt1w2+qFEXGubOB+RUgLZ/1PD8gEX0QmaSR+BZVFEa2RVqipk5aBOCwGQtBLysZS5b6wEI0JK3NVhPzRr/YD8/eLFaTVj3fH849+Jr8H3tRtCmYBHI7OePxcqRj5cX1MqZG96pVAM2tOkMp7v1gU+r1YFSmZx9oRQqn5wA2tq4pZA0CyVHYEDyExeOe7qQl7MyAgYgkLJIdgBSYsJXjEPAG4uegaxJt3+ukBD4sPETcHbIMPi1bUdoVLgIeGXOAJA1EwC+2YMGf9RT8H6VmnC0S29YhcMFdXLm0aAUu0pf/PwTuR4ykxgCtLyyupgoiMoJFsdijIA8AuwAyGPIGtQhMBpVKZ/wlykgAEY81dLe8H/U+EnIFkTbB2BJ/6ekoABIyo5v6Bo5Af8vBp7MVxA2t+sKa1s/be8leHBdYRqIumh2egFMmVxHQCbaIu3h4HqJLMEI6ISAo2LYAXCECl8zAoFXsdCByMrIBjZ7V/+xQW/AW/Uagr+PT+q6/f3QCcgKOGifeh5Fd5rkyQ+b23aFcfWfgGz+AYq0PlRDuwrS/gFpVPZhXj54FIHOj566dBbqUm7OzAiYAAF2AEzwENgEqIIYjERWRgUyZYJVvfvZu/pzBlMoASdU+/v+6wRo3BNAltDkwBdLl7cPDXQvVpIuqWQaBvhcpUIP0FUM61gNWZQoOJOoLMsxAhoj4Fg9OwCOceGr+iFA/fF/YHHyM/BQCVH3CpVg38tDoGlR+k2nKy6wHw6l6zAc8MCi7AGB8EeTlvBL/aYQ4O394LKK9G1U0gqZyTkEujmXLdVcy1K9wzcYAZMi4GVSu9gsz0FgFFbV1WVXKJKS6K2axvpnPN0dMuO4f8oczl1JwuEAyEKLEZzLryLXgNIVYGv77vYlhyr0oQ4bMkWxy4YpU/oIdEk/S6o5IvHOUmQmRsCUCKRmFDsAqSHD1/VAoDkWQhvcYCJHIX5+ML97L/tYv5ymf6WTggIhKUPwvyc6fVbKmh02tesKFIxIUZE5UM8IZKa0EaCuosppZ0nz7l949z4yEyNgKQTYAbDU43IrYylkHs36l64Uretf/Mzz0LZUGWldjyjIGAJJAcpGJh5RndpJ7sAg2Nimiz3AUGp5XLzeF/PXQWZKHYHuqd9y6s5cp3JxJkbAEARSL5QdgNSx4TvaIvAWqi+FLEUZ/f1hZa9+9jX9UoocCdNkwCyZALz1/W8S4usLi5q1s0cSdGSWi9fI+J9RRukEA9TnTiTb/c/j/+70bfCgutCPgwdVl6tqEgQKoR3vIktRgI8PLO3ZB+oU0HBDNmr8KViQlKWuC9OEwIXN2tpDEbsunUKCurdfTnGVLxACtASjEh0IMjX+3P0vCB6LaY9AWiWwA5AWOnxPKwQ+RsU0+x8TMbKBDX5r9zTUK0i+hJgOZ6WSAgMhKVDfoQCyjUITL2/RAQqFZKBTWX4HFSgPOoA6rU4ywX+o7tz9TygwWxIBdgAs+dgsbXQRtL4nshS907AxPFORXmyl1DgvnDkj6BEk6HGD8gYFw+wnWoGfl3QPfl7U3QeZ6VEEZLv/lz+qjs8YATMhkLYt7ACkjQ/fVY/AcFTpiyxMDQoVho8bPyksLyRIa/R1XhXwwM6aOXLDVzUpts+DK8IpYU+TL4UVuJkgzUGpKFEnWvoXISHPooyAoQiwA2Ao/B5XeH6s8XPIwkRx/ad07AbeXvp/dZNCggELFrZdRpC2LG5bkPaqkdECNFniGSkN7iUsG/yHu//d6/vgdrVJr0L6/4qmZxHfd2cEBmDlpAbTR7dsC4UyZ0Y1BhCtCjCoF8CG1f2pXhOgFQJ4KEOvywi7maxs9z+t/3czSLg6noQAOwCe9LSNrSt913rLmECz/Z+tSNsGyGiRk00KDgKg4QA5NULS+YND4IMqtYRkkwlVwGNjQUQDTEDU/V9ewo4lKMvd/wgCk1kRSN8u+lFOPxfnYATkEWiOKqgLGhPXicL8/oBv/zabzXVhlRJUfkigSo0u6aKhgHJZpKP7SjliLhls3swc/Me8z4Yt0wkBdgB0ApqLAYpIJwwDzfivnpemEAirUCaYFIS9AOQIKNPovCJfLy/4qKp0L0APLNEH2ZNJpvuf3vxXeDJ4XHfzI+CMhewAOIMS55FFIBgVtEEWIhvYYHj9xkKymgh5exkSF+BBXToVLg7l5XoBcqGuZsieSrT5VDmJyi9GWXICMGFiBKyLADsA1n12VrK8CRorHISmdanSUCZHTlRhHrIFGTcMQMMhb1WqLgtGJ1kFFpbn7n8LPzw23RkEnMvDDoBzOHEuOQRayoi/UbeBjLgmsvZNgrA7XhPlTijtXrQk5AzEoQgn8qaShZyyVG65/WWZ7n8K+8vd/27/FfGMCrID4BnP2ehathA1oHjWbNCwEAUPFNWgnZwR4YEf1IbmAvQoRmHsH1xxOaWgAoVdlrK+AM38LytRDer+j5KQZ1FGQHMEnC2AHQBnkeJ8DxCgSHK0jOxZvEAb+nyH6RRk2hRlG6a7kDcir/4/L8KUGhtMXKfuFWT2aXG9PFckbAHCoxquFJNq3meLl0n1npM3mjqZz52yybz9Ew4c/IdQYHYLBNgBcIvHqGkliqH2QcjTkA8gUxfoHkzp/AtMKbAMLStrhcc0Pb0aptRnT7F6idvhuTB1K29eByDJH30hg1YDEKDVsueE0pmz0KEoe6ID0FoULJQLR+bufwSBycwIOG+bl/NZOaeHIEBx+p/Cuo5CPo58CnkMMr3xV8CU7mOiPZXMlh3Kmmzy3yO19rIB+Ehv0vOISldPnsonHFqBiiKHjVJPYeqykfEoKfhPtKeAxfV0fwS83L+KXEMnESiO+Wib3tOYrkIegiw1yIzyUtSwsDnH/pNXyt4LkPyCzsdN8haQKZEAlgrNLFO4AbK0HFUm/sEcA2zmIhkBlxBwJTM7AK6g5X556fnTmOharNoJ5I+QpVoUlFdGDQpS+6RMnSaKbL4y7Ym8SY1y5wdv8WEI6r6gIR55Q6yhgYav4gVNDUO5lchMjIDbIEANgNtUhiviNALYdw2dMTeN6dNbDY0F0zW8ZB6qW7CQeYxJxZIkX91GRBxakMXfH0plkpoHQDHxHep2w4sxWKdDyCJEs/+5+18EOZbREQHXimIHwDW83CE3TcqjSXw0m1kmGpqmWARiw1pYboKbpvY9VO5jbA8A2VFKDidPcgAILpq8Sqmr/JurApyfETA7AuwAmP0JqbOPluJRFyYty6usTq02mopmyQpe4l3b2hjlSKsXdpwQO7qn0zXJHgD6XuhkqSmK+QWtOIPsCtHMf1ra6ooM52UEdEfA1QLZAXAVMevlp1fUN9Dsg8iWif9eLGs2NNci5EVD6cbZWlJuCCCTcZYbUjIF8emGJdOSPkzSJXIWnk83F2dgBCyIADsAFnxoLphMXfzbMf9IZKm4sSivK2UPso65ST7G/jfKJRcSOIOuD9YchVGwqsZoCk18xSRV+hvv1Ee+jszECJgcAdfNM/aXy3V7WcJ5BGjDE2r8qzovYp6ckXFx5jEmXUtwGCDdPNplCPGVmogYop1lptZM82AqooX9kGkVzB1ME5GvIi9Abo9M+yXQOR4yMQLuhwA7AO73TKnLfwRWayYyrXvGxHp0PzbWOkYbPAcgo5/UUv6M1gFauaW0KmAiaqWIlTTmRGM5efGcdkqkWf9JeMzECFgCAREj2QEQQc28MjnQtHXIw5AtTfdj6bfZIlUweLJiBrkeAE8cArDIF4vNZAS0RYAdAG3x1VN7HiyMGn+Kw4+H1qar4c7O0bJ2PVVY722T+m9Mb70qzGAdjAAjYBgCYgVL/XKIFclSGiBAIfP+Qb3lkd2Czt+7C4lJ3APrFg+TK8EIMAKmRIAdAFM+FpeMoolMW1BC15CuOYNDoE2pMjC0Tn34rnlrmNapG6x7vj9sfuFlWNW7n50X9egNNvyHtrlM0fHxwL0ALsPGAowAI+CBCIhWmR0AUeTMIUeN/ho0JTeyppTB3x96VqwC05/uBicHvwVX33oPqIEfiY3/EHQCnqlYt7ABnwAAEABJREFUGRoVLgK18xeEJ4oWtzM5CPkzic8xO3H7pqZ1YuWMACPACHgyAuwAWPfp04S/v9B8SjFRTz5eXtCxTDmY27UnXH3zPZjaqSv0qFAZKEqfs6WVzCZu3q4rl50thvMxAowAI+ChCIhXmx0AceyMlAzEwhcil0BWTv4+PvBspSpwcOBQmNftWehUtjxQbH6RgkpnF3cAdl6+KFIkyzACjAAjwAg4gQA7AE6AZLIsNrRnBnJdZKVEb/yDa9eDc0OHwZSOXaFktuzS+ktJOADbLl2QLp8VMAKMACPgzgjI1I0dABn0jJF9HYvtiKyU6hcsDDsHDILvW7QBmuCnSrlMD8DlsDDYf40Dsal6FqyHEWAEGIHkCLADkBwN8x9XRxO/RFZGwX5+ML5dJ9jQpz9UzKV+LmG1vPnB20v8a7b85DFldWVFqSJAsQBorKYU5qCepTaY9kbuj/wmMgWW+hhTijD5HaZfI9Mx8Qd4TPeJyTklmT54rS0y6SqJaVZkJkaAEVCOgJxC8V9muXJZ2nUEKGIbhff1c13UsUSZHDlh6wuvQL+qNcBmo5EFx/lkrmYOCIDqefMJq1hy/KiwLAs6hUAhzBWPfAOZvK3NmC5BnoI8DvlbZGroP8L0QSP/9v+P6fxTPKb7xOQckAyF16VQuqTrON6/jUxlXMP0MPIGZMrzHqbdkWsgZ0VmYgQYAR0RYAdAR7AlixqL8sWRlVD3CpVg24sDoVzOXEr0paWkaRFxs7dfugjHb/FywLTwtcg96mWgL1tZtLcRMvUSfI4pObU7MCUngTbk2YnHs5DfQabtq+UnoqAiJkbAHRGQrRM7ALII6iNfH4uhLllM5GlgzTowvVM3CMHuf3lt6WtoWqRY+pnSyDFt/9407vItN0IgC9aFhrm6YUpDXSsxJe/vCqbUK0HDEDS0oH6sCgtgYgQ8DQF2AMz/xH3QxJ+RlfTRf9LkKRjTqp1mXf5oZwqqW7CQ8DJCUjZ53y6IiaceZDpj9kAEaJ8LmpdAwxA0tEAzQ2lo4RfEogsy9xIgCCYnGmqiHp9NaOdpZBrbW4jp88i0rBkTJtcQkM/NDoA8hlpreAkLqIAsTd82awXvN2oqrcdVBQE+PtCocFFXxR7mp5DAMw7se3jOB4wAIkCTC+n/xhw8vo5MX5DvMSVHgebL4CGTCRCgoZ8P0Y5TyDTnox6m9GNQGtP2yJOQDyHTsBAmTHoiwA6Anmi7Xha92dAkK9clH5OgmP2v123w2FX9TntXqiJV2HdbNvLmQFIIurUw/Y5VwhoORaahAppLsBqPyUHg4QIEwiAKxnIXIH+CTD2ZmDgkcghouIeGdxxm4IspEVBxhf7jqNDDOrRB4E1US+OimIhT53IV4Bt8+xfXIC/ZvnQ5yBIo3tN37NZNmM5zAeQfhGdooMbmSawqDRFQPOldeEzzBzSJnIm6mVIikBMvrUN2tlH3x7xTkWmoABMmPRBgB0APlMXKoF10XhIT/U+qWt589qh+Xhot8/uvpLSPaBiga7mKaWdK5+5H61cD7RKYTja+zQgkR4B+46rhBZo/QPMGaMUBLWPMi9eYtEGA3uhpe/KaLqrPjPnfR2ZKFwE1Geg/hxpNrEU1AtT4Z5JRGuTrC1M7dQNqfGX0qJJ9rjL9DotruxB6D0Zu3iiugCU9HQGaSEsxByiQEcWZpuECGof29XRgFNa/FurahkxzNDBxmXqiBPUGYMKkNQLsAGiNsJh++g8wWEz0P6nvmrcGmVC8/2lSc1QrfwEoLxl34Kt/1sOJ27fUGMRaPBkBmpxGEwZpJjo5A+QUiDZanoxj8rq3wxPq9qeokngoRDROSPM5hIQ9RUhVPdkBUIWkWj0UHU2qi7JliVLQvzo542oNk9U2vEFjKRU0BNB/8Z+QkJgopYeFGYFkCNBEQRoWoEiI1MX0DN7jXgEEwQXqi3n/RA5CliWOCimLoJPy7AA4CZTO2XrJlOfn7W3f1EdGh1ayNA9Atlfin/Pn4JMNa7UykfV6LgI0RNAAq0+7bVKvAE0cpHFpvMSUCgKE2Rd473dkmnyJiTTdl9bg1grUVY4dAHVYqtJEbyNSr8kU6a9ktuyq7FGqx9vLC95rKB+LgIYCVp06odQ2VsYIJEOA/h/SxEFyBEbj9fzITI8iQPuS0J4R7z56WeosDqUpLgAmTFojwA6A1gi7rr8ritD4JCauU7agICUNrOslOy/RrXxF6bkJiUlJ0HvBHKAtg50vmXMyAi4jQEGFXkMpCmRDb7m0lwGeejzRKqVliIJUbyXKP04r8cI9ZKZUEFB5mR0AlWiq0UXj/8Ka6O1fZr29cMEuCHp7ecEHjZ5wQcJx1psREdB59nSIiI11nIGvOo2Av58X5MsZBBVLZoYna+eGHi0LQ//OxeHVHqVgWN+y8H7/8jBicBX49vWq8M3QKvZjOv9wQAUY1qcMDOtdAl7vjjLt8kHXprmgSdUsUKFoCOTJ5g9+vm7xM+MPADTOTW+n4/E4E7KnEoVmph0dn1QMQALqo6iBmDDpgYBb/M/UAyidyqDd0mqLlkVj/wNMOPHPUX2oF6CJ5CZBpHfH5YvQec4MiE2g3w66wuwKAvlzBUHYlq4QvbMHXFrdEfbPbQ2rxz0Bf4yoB+M+qAVjh1e3N/afDaxkdwTefK4MvPV8WfsxOQafvFIRRgypCiPeqAnfvYMyn9SH2SNqwbqxNeHAlNpwZWEDiFnXFEJXNIZTs+rB+jHVYMKwsvBOr8J2R6FaqYyQOcTHFZONzktj3i+iEX8j50T2NCqHFaZlflUwVU1vokLe+QtBSJ3U3mEHQC2estpoAhL9wAjp6VKuIuQOoR5LIXFdhWw2G/zSpoOSGAU0F6DPwrkcKljgCXp72SBDsMIJ717YmPvjdzAkO0BQZgAfP7tVGYN9oFi+QGhcJQv0a5MXvuxfHGZ/UgF2TagJd/9qDLeWNoLNv9SAsUNKwfMt80LFYiHg4y38X8FepsYftFRtOpZhaiPRPpXUCJVRgJ+CmKqkJFQ2HPkHZCYdEfDSsSwuKn0E6qefJfUcL9cQ7jxIXamGd0pky65sc6JZB/fDS0sW8PJADZ+Xy6p9/NEJyAJAzoB/EIAt9Z+bbJl8oW75TPDq0wVg0rtlYf/k2hC2sglsG1cDfn6jNPRplReK5KEl4mCmv6fQmI7InkCdsJIrkPGB4qc6ovE72uqc4jCo0+qmmlRXK/X/kapLYn3OIEA9AM7kS5EnX8aMUDt/gRTXzX7hzboNoUKu3ErM/H3PTuj552weDlCCpkIlXt4A1CuQAXsFAjICeGMvgRPqA/29oFbZTPByh/ww8Z2ycGZOPTvTEELPZrnt8wucUKN1lgFaF2AC/RSUbC7aEYCskmi5H0VipJ4UlXpZl5MIsAPgJFA6ZMNfRqBuRaGi2pUqCzabTUjWSCFfb28Y17YTUKrCjrmHD0DHWdPgPk8MVAGnYh34/fTDt/jgbP/2DHj7uqyfegFoCGH6B+Xt8wuOTK9jHzZ4olpWo4YM6mElvJHdkfCBAb2ZU9e86rbiKgJGLzzUq4CHTOkjoD6H6oeq3kLP0VgRqyr8Q9K+dFkUtyZRiOBvnmqpzPgVJ49Do4m/wqWwUGU6WZFiBGhuQHBWAGIaKhBUX6ZQsH3YYM0PVeHaoobw+/Cy0LpOdvDXb+VBMJoeguxuhOM38AdW6m1k1XQYFdJ45T5MmQxEgB0AA8F/rOgij507ferv4wONChd1Or8ZM75Wux50LV9RmWn7rl2FuhN+hpO8b4AyTDVRRL0AQZn/7wj4SRVB8wj6ts4LS7+pDDeWNIQZH5aHjg1zar0MkSawxUsZbj5hfCCwBs3qjqyaaPkgzXWiAEuqdbu1Pi0qxw6AFqiK6RR2AMrlwB857EoXK9Y8Ur+1exrKYl1UWXQ5LAyemjoB7kVHq1LJerRCwO4IZPnXEfCWcwTIRFp18MxTuWH+FxXh0vz68N2rJaFsYXpZp7tK+Sxqi0B2FwrCilCAH2qk8VApzUJtLZA50A+CYAZiB8AMT+FfG4QdgEq5pfYN+rd0E3yG+PnBnK49IYM/9T6qMehiaCi8t5aCi6nRx1o0RoAcgWB0BILwJdTJyYLpWZQjsx+83q0gHJ5WB7b8UsO+DDEkUHi07fHi5j9+weLnH6P9dZFV0xhUSFv9xmDK5DIC2giwA6ANriJahR2AKnncwwEg0MpgD8AfT3dXNimQdE7dt5t7AQgIKzHNC6DJgrRqII3lg65WqU75TPZARFcXNYTxb5eBMoXEewWol+HM/Kbtk7a3KumqHSbNnx3tohn/mCgj2raTQimTXjpWppgVySPADoA8ho40+OJFGtDugul7yBOQFyNvRT6JfBr5EvJlZDrej2lNZCEqkTWbkJxZhVqVLA2TO3QBL0WrGiLj4mDzhXNmrS7blRYCtGqA4gj4BaWVy+V71APwYtt8cGhqbVg8ohI0qIQ9Di5ooQBKv6EDUSSHVwmIizuWtK3N8qRDXaw+GbADQiA//oJK/k9RmNJv4FhMmSQQ0EqUHQA1yGZCNfSfh7q5qJEPw3Nq1Odg+jlyP+S2yDTztTimNGMvH6b06k7H5CwE4rkQZQlU++MoZIRioe4VKsFPrduDDf+pUM2TAVWgaJAOcgQDMgBQjwANESg0w8vLBm3r5YCNP1a3Bx16ulFOoGtpFUGTDed+VsEeytieLynJBnHRLeFe+K2k7e1esl+z5gf9Dqmy/DYqor0C3G2IBKvlPsQOgPizpMaburYoJvgtVLMAeRAyNfKqA2ag2tQpa6Cw75C6UhPc6V+9Fnz5ZHMllthsNiV6WImBCNCcgOCsAIEZATR4nhR0aN7nFeH4jDowpGtByJXVD5L/Fc8fBO8/VwSOTq9jX12Q/J79OCneH2Ijf0na2up40tYOhe3XrPWhqgeDJkbSJMIt1qq+Wa3Vzi52AFzDln4RuqLIWuSLyKORGyL7IBtGWd2wB+ABmG/XbwTvNWz64FQ4dbdhEmEg3EHQFx1e6g3w1cbPpoZ+1KCS9rgCNFfg+B914ebSRnByZl347IViQJMK04QxPrYkJEaeTtre9vs085nvJr21y1q1GxXQJMJjmDKZHAEvk9tnFvPwtQM+RGMuIM9GphbJNNjRLoBok9vSp02fgu9btBGeExDk6wt1C1rxhcxtH6l8xby8AQJx5I2YjuU1OtSQG3sBShYIguyZfMGlv8REL4iNGpq0peXlpM0dKqchS0te6G2Zhgn7Y75myNjFgZ/6k+wb+19ocmPka8hMihDQUo2XlsrdQDfNrhuJ9TiP/AlyLmTTkSeEvR1cux5Mf7obiDg7z1WuBpkDtHlbNN2XwdMMol4ADXsDpOFMiMOhwqjdSdvaffOYLmr4P8JrNBmYdtijicLj8JzWrF7B9GfkLMh60jIsjMrGxGWajBLtkSm+PyZMVkCAHQDHTwn7GGE43jqN/AayqrExVKWewop3bT8AABAASURBVGM9Y2ltt/KVYGnP512KE1Aoc2b44gk18wjUPznWqAQBmg9APQGBmQFsJvxJS0zwgrjIt5K2tTqdtKtTHgCg5XY0WZjW3NMxXnqEaG3iy3iFQubWwlQvisWC6HcPE5eI6tEHJeKQmZQioK0yE/5v0bbCTminoPSHMN9XyNjHiJ8mp/AYz3AA6DE8UbQ4rHu+P9Duh3SeFlfLmw/+6fsyZOK3/7Rgcp97vvhSTb0BCiIJagJKXGzRuIjwC3myBdA4eRUnyiBnYT3m64ysF03DgmhuEybpEoVApqEL6h1NNzNnMB8C7AD890zIE6fx/eV4iZbmYWINik1IsIahiqysmicvHBr4OrxetwFkdBA1MFtQkP2tf3O/l51yFBSZxWrMgIAX/qRRJEF/eok2g0GP2jByxlmfq7ejCz56Nc2zQLxLy4mHYaoXDcGCiMMxTY2od5TG+yemloGvyyOgtQb836J1EZbQ3wKtPIBMM/wxsRZRUBJrWSxvLTX83zZrBRdefweWPPMcfIPHdL782T72a8MbNFYaTVDeYtagKwL+OGpHjoCJhgTi4pNgzDyaR+wyEjaUGIFM8wRcnI2IUmJEvQAlUPR1ZJrcR8MR+/B4JnJP5DLIm5GZLIyApzsA3vjsaPyKJr9QdxueWou8vbygaBZapGAtu1VZS/sGUOTAN7A3gHoEmhcvCQE+PqrUsx4rI0BDAfYhAb3azLTB2n08DK7doWH2tPOlcZe626kxzpxGHpW3rqOyUcitkMsj07DFM5jSNsE83o9AaEvaa/dkByAHwrsK+SNky+JQLU8+cOc4APhsmBgBcQTQQYagLACKQwmLGHTiYqSI2OMyT+AFevMugCkTIyCFgGUbPqlaA9DmHTQLt6mkHsPFh9VvZLgNbAAjYGoEbNiDHpABIBDZ1IY6bVxZzLkRuSgyk5sioEe1PNEBqIPAUsCLYphamtqXLgvElq4EG88I6IWAbxDYewMMmhdQNC/N51NW2cKoiZyA0pgyMQJCCHiaA0Cvy9Ttn00ILRMJ0XK4GU93B5sN325MZBebwgiYGgEfPwDaT8DLR3czq5XKCJlDlJZLG4rRXiQqN/HRHRcu0BEC+lzzJAeAxs6WI6whyLqQD44/VsmTF16uURt+aNkWFvboDVtffAUODRwKJwe/9ZC39x9oD3Azrm0noMlsLUuUguxBjpcx5c+YCca0agcrevWFQF9f4D9GgBFwEQEKHUwrBBTvLJieFYH+XvBCW2qz08vp0v2cmJtiBdTAlIkRcAkBT3EAaiIqC5GxDxA/NaSKuXLDZ02b2YPV3Bn+EewaMAh+bN0eBtWqC21LlYGa+QpAmRw57TP3afY+cfW8+YEa/Req1bAvZ6Nod9fffh+ODnoD5nfvZY+DP7FDZ/i77wA4O3QYDKxZRzguvoZVZ9WMgHUQoGEAmhxIoYR1tPqjPkVB8VAAWZ8VP9Yg054CmDBZHQG97PcEB4DWq2r65l8gUyagXev2vTwY9iK/27AJNCpcBIL9/KSeY8ls2e1j/BQH/7nK1aB+wcLc8EshysKMQDIEaPiMQgj7BSa7qO1hSKA3rB5VFQrmClBdEG0gtAKV0hwnTJgYgfQRcHcHgDzjxQiDJmP+RbJkgV/bdoTTg9+Gr55sARVy5caimBgBRsBSCARg26lj5EDqAdg2rgbQnADFONG4IcUJqKJYL6vTFQH9CnNnB4AGyOcjlMWRlVIJfDOf0rErHB/0JrxYrSZ4e7kzjEqhY2WMgDkRoMiB/hl0sy1PNn/YMLYatK2XQ3WZtH8J9Xgq/91TbSjrMx4Bd265vkZ4GyErI19vb3tX/4FXhsCzlapww68MWVbECJgAAf8gAIoXoJMpNByw4MuKMKwnrehTWih1Ra5DjQWRmSyGgJ7muqsDQKErh6gEsiJ272954RWgrn4/dARU6mZdjAAjYBIEKGKgjk4A7eMx4qXiMP7tMuDjrXRJL0UKXI2o5kJmYgQcIuCODgB5v1Oxtkr+N9nABu81bAo7+r8KtAsd6mViBBgBd0bA7gTotlrYjuSLbfPBoq8qQXCAt/1c0QdFPF2CuvQb28DCmGQQ0FfWHR2AnxBCJZP+/H18YEqnLvBp06d4ZzkElYkR8BgE/IJ1HQ4gXFvVyQ4rvqsCGYN96FQV10BFc5GVehaoj8kNEHA3B6AbPpNOyNJEgXhW9e4HPSvyhFppMFkBI2BFBKgnQMfVAQRR/YqZYc2oqpA1I81hpitKuDlq+RaZyeQI6G2eOzkA1Gf3nQoA82XMCJtfeNm+7l6FPtbBCDACFkWAVgeQI6Cj+TXKZIR1o6tCzixycUQeM3konvdDZmIEHiLgTg7Au1gr6Tib2YKCYEWvflA8q5JRBDSJiRFgBCyNAE0K9PXXtQqVimeAjT9Wh/w5lJb7C1aiCTKTKRHQ3yh3cQDyI3RDkaUog7+/PSZ/2RwUXltKFQszAoyAOyEQmBnAR2ljnC46pQoGwd/oBCiMGkjjCnOwYMvvhIp1YFKAgJcCHWZQ8T4aIRVbkzbumd+tlz1WP+piYgQYAUbgUQQobLC30gl6j+p3cEZRAyl0sMLhgOxYDEVHpYBBeMhkFgSMsMMdHACKotFXFryPmzwJTYuyYyyLI8szAm6LAO0dEIQ9AbSRkI6VLFkAhyW/qwKZ1K0OKIvmT0a2ITN5MALu4ABQ1z91bQk/Rtq45+16SoMGCtvCgowAI2BiBGzeANQToHPTWaVEBvsSQYVxAjogyoOQmUyBgDFGWN0BQHccpN7+abnf9Ke7g7eX1aEw5gvEpTICHoeAjx9AgP496LXLZYKFX1UCf19lv1Uj8dnVRmbyUASUfZMMwq8PlkvL/zARozGt2kLeDBnFhFmKEWAEPBMB3wAA2jtA59o/WT0rTHmvHHh5KemCoJ7T6VgF/b0ZLJTpPwSMOrK6A/C8DHC18xeEruUqyqhgWUaAEfBUBGj3QOoN0Ln+3Z7IBV/2VzZfiRT9pnMVuDiTIGBlB6AGYijcetvABiObtwabzYZqmBgBRoAREECAlgd66f8zSjsIPtcyj4DBDkW64NWXkJkMQcC4QvX/5qqra3cZVZ3LVYA6BQrKqGBZRoAR8HQE6AWCnAADcBj3VhmoV4GmQSkpfBRqKYfM5EEIWNkBoFmsQo/KBjb4qPETQrIsxAgwAozAIwh441A6DQc8clH7E5oMOP+LilA4d6CKwgJQySRkH2QmHREwsiirOgDU9V9UFLgGhQpDmRwc7U8UP5ZjBBiBxxCgCYE6RwokCyhA0OKvK0GGIG86lWUaVn1DVgnLWwcBqzoAT8lA3L96TRlxlmUEGAFGICUCgRkBDJgPUKFoiH1lAI1GpDTK5Ssfo0QZZCZdEDC2EKs6AE1FYaPNfjqWKS8qznKMACPACDhGwIY/pwbEByBjOjbMCYOeLkCHsvxgKEBJl4KsMSyvLQL4jdW2AA200xezgaje7uUrQYAPD3OJ4sdyjAAjkAYCtCzQLyiNDNrd+vaVElC9NPZCyBdRC1UMQWbSGAGj1VvRASiFoGVAFqKnipUQkmMhRoARYAScQiAgBIcC6D3FqdzKMvn5esHsTyqo2jPgCzSsLDKTGyNgRQegqujz8MHxuYaFioiKsxwjwAgwAk4gYAMIMia4Hu0eOGG4knab9j4e60RlOYswAsYLWtEBqCAKW418+SFTAA1xiWpgOUaAEWAEnEDAyxfAoKGAzo1zwssd8jthZLpZaK5Vp3RzcQbLImBFB6C4KNpNilDUS1FplmMEGAFGwAUEDBoKIAu/e7Uk0DbCdCzJtGEQvzVJguhI3AzXrOgACLfilXPnNQPmbAMjwAh4BAI4FBAgPF1JCqFAfy+Y/G458JbfNIjGTN+SMoaFTYuAFR0A4bUupbLnMO2DYMMYAUbADRGg4EC0c6ABVatTPhMM6iz8c5nc4uF4okQR6mGyI2COD6s5AN4Im3Dw6yKZs6A4EyPACDACOiJAvQCKovS4avUXLxaDEvmllyWSgm9cLZvzmx8BqzkA1IIL2Rzs5wfE5n8kbCEjwAi4FQIUIMg/xJAqBQV4w2/DyoCX/FBAN6xAQ2QmBQiYRYVQY2qg8cJRLrIFkhNroOVcNCPACHguArQiwMuYAGSNKmeBVzpKrwqw4cMbgczkRghYzQHwFcWeo/+JIsdyjAAjoAQBGgpQosh1JV/2Lw55stHSftdlk0nUweOWyExSCJhH2GoOgLcodH7ewqKiRbIcI8AIMAL/IUBhgmlS4H9XdDui3QK/HCC8gCq5nZ/iCfUGYMJkdQSs5gAkiQIeHR8vKspyjAAjwAioQYBiA6jR5LKW3s3zQM0ywqOoD8qrjgftkZkEETCTmJeZjHHClvtO5HGYJSIu1uF1vsgIMAKMgG4I0DwA30DdikteEE0EHDOkFChYkPAJ6rVa24EmMz2OgNUeorADcCsyEhKThDsQHseNzxkBRoAREEPAPxjAoE70WmUzwXMtpAOiVQSAp5GZXEbAXAJWcwDCED6hvvy4hAS4ESHsP2CxTIwAI8AIKEDAyxvAoF4Asv6rl4pDxmDpFQnUC4AVIY3MVkXAy2KGJ6C915CF6Ozdu0JyLMQIMAKMgFIE7HEBjOkGyJ3VD97sXki2OmVQQVtkJhcQMFtWqzkAhN8l+hDhg9evioixDCPACDACahGw4U8vxQZQq9VpbUO7FYQcmf2czp9KxqGpXOfLFkEAv4UWsfQ/M8/+d+ja0arTJ+Gvk8dh3uGDdl56/ChsPH8W9l+7Cufu3YXIuDjXFHJuRoARYAREEfAPAlAwIw8E/kICveGN7gUFJB8RociA1R65widpIGC+W1Z0AA6Lwrjg6GFoM2MydJv7h53bz5wKTSaNh6q/joFiP3wDGb74EHJ/+znUHP8jdJ49HT5Ytwr+PHIITt25zRMIRUFnOUaAEXCMAPUC+BizIoAMevXpApALhwPoWIK5F0ACPKNFregAHNIStJsREbD7ymUgZ+HLjeuh65wZUGrMSMg24hO78/DNpr9h26ULEJ+YqKUZrJsRYAQ8AQHqBTConsEB3jCsZ2HZ0ruignzITOkgYMbbVnIAMiGAPZFfQtadwmJi7MMH76xZAfUm/AJ5vv0CnlswB+ZjD0FELMcY0P2BcIGMgDsgQCsCDIoOSPC91D4/5M0uFSKYwrO/SrqYrYeA2R0AHCSD5wFgGfIN5OnILZANpztRkTB9/17ogj0EuXDYoNf82bDuzGkeKjD8ybABjIDFEAgINszgQH8vePsZ6RUB/bECxlUCCzc/mdNCszoAZRGuMciXkScht0KWnrKKOjShqLg4+OPAPnhq6gQoPvoboKGD25GRmpTFShkBRsDNEPDCl2hvZIOq1bd1PsgcIhUXICua3h2ZyWIImM0BaIb4rUemiX6DMM2MbCk6f++effJg4VEjYOCyRXDy9i1L2c/GMgKMgAEIGLgkkDYKeqGt9DA+9dSHihVRAAAQAElEQVQaAJw1ijSrlWZxAJ5EgLYir0RujGx5oiWFv+7cBmV//N6+4oBWEli+UlwBRoAR0AYB3wAAWhUAxvwN7lIQfH2kAhPVR8tLI7sL0a5J1Ba9gRWaiEzD0NMxfRu5OLJbkNEOQB1EcTvyauTayG5HtP8AxR2o8NMoeBV7BGiVgdtVkivECDAC8ggYGB44fw5/eLpRTtk69JZVYJA8zV8gB2Ywlj8N+SgyhY2l3uiReNwHmYahaRL613h8DHkCcgZkJ8i8WYxyAHIjJOOQNyHXRHZ7ik1IgF+wR6D02JEwZttmSOBlhG7/zLmCjIBLCPgZFxOA7Hyju/RkQHIAzL4/AHa1AL1s0soFml92EOseivwP8g/IzyJTT0ZabSPVsR/m24KcDdmylFYltagUlTcEFR9HppmjdI6HnkP3oqNh6IqlUOu3n2DXFeGoxp4DGNeUEfAUBAxeEli9dEaoW55WWwsDThMJnhKWVi/ohyqrI9PS8d8w3YscjkzDzWMxpXkL5TGlBh0Tl4lk56BUmmMneN+0pGcDTO7lGkRiFDKNr2DiubT36hV7PAGKK0C9A56LBNecEWAEHiJAcwEenuh/8GI7asOlyqVGVUqBoDAtY6iMsvRm/gumO5GpsaeUzl/Ac7pP+fBQGTVFTU8jW5L0cgBoDOUAItQEmen/CFA0QYosWG/Cz3D0JoU5+P8NThgBRsAzEaCgQAZOBuzcOBfQPgES4LdHWaluBJR3hih6EY3L03JxeqOnxp7e8Glsnt746c2fegCc0SWbh5yOVHSY+7LWDgAF8vkDIaBZlB7/1o84OKQ92BtQG4cE5hwiH8lhFr7ICDACnoCADXuTyQkwqK7U+HdpkkumdBpjby2jwAlZcjJoIh7NzKfl4jSmT+U6IapJFlotgA9OE92aKtXSAaAg05vR+h7ITOkgcD82FnrMm2mfHxCXkJBObr7NCDACbouAwcMAfVrllYW2g6yCNOSH4b0FyNS+YGIKIucjmyNLzH5NKweAuvpp7IXGXMyOgansoxUCrWdMhtDoaFPZxcYwAoyATgj4YM81TQjUqbjHi6lfMTMUz0+dt4/fcfq8JeakRhETpURv/l+hRjO+bVsy9KsXgqmauqHCFcjZkXWn7EHB0Kx4SXipRm0Y8VRLmNm5B2x54RU4N3Q43Br24UOOeP8ziP7gc7j4xjuw+6XXYPmzfWBKx652mWcqVoYyOXKCt5cW8KQPydozp6DRpHFwKYxWp6Sfn3MwAoyAmyFg4DAAjUI83zKPDKAhKKx6NQCN+dMyPTM2/uexvg4cALxqclLdwtHSvhlYZ3Rh8VMHKpQ5MzxbqQr82rYjHBw4FK699R78hY35T63bw1v1GkLX8hWhVv4CUCBTJsgSGPiQA3x8wNfbG/JmyAiVc+eB5ug0kB6SmdapGxxCXXeGfwQb+74Eo1q0gSeLlQA/zK9DlexFHLx+DepO+BmO3bppP+cPRoAR8CAEDB4G6NU8D5AjIIG46mEA2gSusIQ9Woou1FK5lrpVOgA0NvMrGiu6phJFnaM8GTLA4Nr1YHv/gXBmyDD7m/uL1WpCWXxrt9lszilxIleInx/UK1gIXsOyVvbqi87F+zDj6e7QpVxFyOjv74QGuSyXw8Lgicm/wRFeISAHJEszAlZDgDYHMnAYoGCuAKhWKqMMam1RWGVbQMPKqNJ0RGO13zmyygrXVDkAb2FlRyCra31RWXKit/WeFavACmyIz2N3/vf4Vl49b/7kWTQ/zhQQAN0rVIJZXXrA5Tffg1/adIDS2XNoWu61++F2J+DQjeualsPKGQFGwGQI0FwAA03q2FDqt42EKbyuqhrkU6VIsZ6BqO8isiVJhQNA4R8pPrImAFC3O3XNH8Iu+amdusJT2BXv7aXCbDlzg3x9oX/1WnD41dfh774DoHXJ0mDDf3JaHUvfiLgPT075jXcWdAwPX2UE3BMBA+cBEKAdG+akRIap215GPrlsZPITExzHow0vI9MSd0weJ2ucy7akFAGJALCpri41sEPq1IfTQ962d/EXz5pNdRHK9NUvWBgWP/McbHvxFfuQgTLFyRTRJkLt/pgCtyIjkl3lQ0aAEXBbBOw9AMp/Wp2Gq0yhYChVUGo1QFOnC0s/I4WPTz+X9jnIEZmNxVREpiFvTKxLMg5AA6w2TfhTOc6DKsE+xn500BvwXfPW9kl69osW+KieLz/83WeAfZ5A/ozqg2GduH0LyAmgrYYtAAebyAgwAlIIYOPv4yulQVZYshegGpav6odwCerSm5KwwBPIM5FpW+BGmNLqtu6YHkVOlaxyQ9QBKIQV/BNZ6Uy4gpkyA022ozF2LRpQtFdzstls9nkC5MC836ipfaWBykK3X7oI/RfPV6mSdTECjIBZETB4GKBDAxrKFwaHXg4bCks/KngQT7V2As5iGXORhyE/gZwFuRTyM8jfI29EjkJ2GxJxAKhPaBEiIPXNQPlH6LnK1WD/K0Psy+0euWHRExrC+KTJU7C538vKJwrOPLgPRm+jIIsWBYfNZgQYAecQsA8DOJdVi1w1y2SCHJn9ZFSrHAagMXdVs6Fp4h5FFHwPK9ccmd7si2LaFfkb5HXIgoFYUNIiJOIAjMW6VUJWQsF+fvYx/okdOuuytE6J0S4oqZY3H+wcMMgeq8AFsXSzDlv9F/xz/ly6+TgDI8AIWBgBLx8AAzcHsuEoROMq9CIMon8ql+9dRiNIH72p46HTdBVzUu/BR5jSPgW5MS2I3An5S+RVyLeRPY5cdQB6IkJ9kZVQkSxZYOsLryhvHJUYp1BJkK+v3ckZ06qdsiEB2i+g/+I/gbcSVvigWBUjYEYEDO4FaFJVygGogJDS2zUmSojG3ukF9DPU5mgLVbr2F96j+xQ6mJYP5sXzdsifIi9HVtWLgKpSkpWuuOIA0KL7n1VVrlb+AvYQveVy5lKl0vR6BtasA4t69AYKMKTCWJoUyDsIqkCSdTACJkbAW6oLXrpiTatmldFBbQxNnpPR8bhsOF74EDkPcjlkWm5Ik9Jpbho1KK3wGt1fjOkVZKZUEKCHk8qtFJd/xCtSoaFQ3k60ln/Ncy9CzuAQ+7knfVDI4bXPvwi0Z4GKes8/ekiFGtbBCDACZkXA4B4AWgqYN7vUfO8aGkGbiHqPIK9E3oR8AdlgslbxzjoANFZC3SnStaOAOfQWTN3i0sosqoAiGK7q3U+JE8B7BVj0S8BmMwLOIkAhgQ2cB0BmSg4D0HJAUsNsMgSccQDorX+MCrufKFoc5nV7Fvx9fFSos7SOSrnzADkBmQMCpOoRE08BqaRUsDAjwAiYHQHaG8BAGyWHAaoYaLquRVutMGccgK+wUjSRAhNxotnwf2LjT6F9xbW4lyQ5AX926yXlENHGSO6FCteGEWAEUiDgbexLU53ymVKY5MIFCuNq1p38XKiG+2VNzwGg2ZYvyVabGikKlZtBhx30ZG3VW75xkaIwod3TwsU2LERLV4XFWZARYASsgIDBPQClCgRBSCDF9REGq6qwpGUErWdoeg4ArZtML0+atfbx8oI/OveA3CEZ0sznyTefqVgZhtZxfeMsby8v6Fu1uidDx3VnBDwDAYNXAnh52aByCanfcHYATPhNTatxr4z2dkCWoi+eaA4NCxWR0uEJwiOeaglNixZzqaqvo9NQ3MSbJLlUGc7MCDACqSNAEXloMmDqOTS/U7WklANQTXMDDS7AisWn5QB8jBWyIQtThzLl4I26tDxTWIXHCFJPyaIez0GrkqWdqnNHxPazps2cysuZGAFGwA0QoKiABlajakmaDy5sAL1QCguzoDYIpOYAUHcNRU4SLpXW+NPYts0m5UMIl29FQVoauahHb/imWStIbb4ErRr46skWMLvLM8qiCloRK7aZEfA4BAx2AKqVkuoBoPC7UgrM/bytaV1qDsD7WB2plnvEUy0gS2AgqmFyBQEvdJio1+TskGHwU+v29jDJFDvhhWo1YFKHLnB26HB4u34j8PZK7dG5UhrnZQQYAcsgYPAQQOlCwRAUIDURsLhlsPYQQx21IuSptZGpf72ChaB3JepEkNHi2bLkPL1Uo7Z9DwFaQTGubSfoXbmqW26Y5NlPmmvPCDiJgMEOgI+3DUoWoM1gnbQ3ZTa3dQBSVtUaVxw5AH3QdF9kIaKx7LGt2oPNJtWBIFQ2CzECjAAj4LYIGBwLgHAtnk+qV5cdAALRRPy4A0CtNjkAwia+UK0mUIAbYQUsyAgwAowAI5ASAQoHbHAvQPH83AOQ8sFY98rjDkBDrEoJZCHy9vICWpomJMxCjAAjwAgwAmkjQE5A2jk0vVtMrgfAtXXOmtaElRMCjzsA/eiiKHctVxGK8bp0UfhYjhFgBBiBtBGwSU3CS1u3E3eL5+MegMdhsvJ5cgeAxv3bi1bGBjZ4qx51IIhqYDmzI3DoxnX47O+10H3uTGg29XdDudOsafDSkgXw/ZZ/YPOF8xCbkGB2+Ng+RkAeAexllVcirqGE3BBAXizZH5nJJAgkdwDqoU0ZkYXoqeIleOxfCDnzC92KjICuc2ZA5Z9Hw8fr18Dcwwdg7ZlThvKiY0fgt9074K1Vy6HhxF8h97efQ79F82DXlUvmB5QtZAREETB4DkDe7P4gsRTQhtXOgexGZO2qeCUzv0WyY5cP+1bhSI8ug2YBgYuhoVD7t5/gzyOHIAn/mdXk0OhomLx3N9Qa/xO0nD4Jjt68YVZT2S5GQBwBgx0AWtyVP4fUS3xO8cqzpGoElDgAwX5+0KqEcyFsVVeA9WmHQBx2q3ecNRXO3r2rXSEaaF516gRU+XUMfL1pAyQmJWlQAqtkBAxCwOA5AFTrHJn9KBFlt+oBEAXBLHIPHAAam6koahRFqiMnQFSe5cyJwKS9u2Dv1SvmNC4dq8h5eXfNSqC5ApFxcenk5tuMgEUQMHgVAKGUIzNNF6MjIc4pJMVCmiDwwAF4ErXT+AwmrhPN/nddiiXMjsDve3aZ3cR07Vty/Ci0mPY7hMXEpJuXMzACpkeA+uANNjJnFu4B+PcRWP/zgQMgPIAf6OsLLYqXtD4SXINHELgfGwu7r1x+5JpVT2iVQKvpE9kJsOoDZLv/Q8AEDkAOHgL473lY/OiBA1BJtB7V8+YDcgJE5VnOnAhcux8OZp705ypqWy9eAHYCXEWN85sSAYOHASR7AHKaElMBo9xB5IEDIDz+X7dAYXfAgevwGALBvlLdfI9pM8cpOwHmeA5shSQCBscCkJwDkFWy9iyuEAFyAAqivizIQlS3AIkLibKQiRHIGRzslts5sxNg4i8dm+YkAsLTtZzUn3a2LBmkJgFK7SaUtmV63nWPssgBEH77t4ENarMD4B7fhMdq4e3lBW1LlXnsqnucshPgHs/RY2th8BBAgB81G8LoSwUREC6VBR0iQE9SeAF/gUyZIHtQsEPFfNH6CAyv3xhoe2fr1yRlDdgJSIkJX2EEnEHA35ea3sKfTgAAEABJREFUDWdyOszjFg6Aw5pZ8CI9ydyidhfKnFlUlOUsgECp7Dngm2atLGCpmInsBIjhxlIGI2DwSgB/7gEw+AugrnhyAIRnZRbMJDx1QF0NWJOmCAyuXQ9GNm8N3l70VdG0KEOUsxNgCOxcqIUR4B4ACz+8x0ynX3VhB4B7AB5D001Ph9apD7sHDIKny5aHIF9ft6slOwFu90jdu0I2Y6snOQcgwFjrufTkCEg5AAUz8RBAcjDd+bhCrtwwp2tPuPH2B3DglSGw5rkXYFXvfobwoh694cVqNcGG/1Rhzk6AKiRZj/YI2LQvIo0SPH0IIA1oLHeLHIBcolZnCeAVHaLYWVWOgj6Vy5kLmhQpBk8ULW4ItylVBn5t2xHGt+sEXgrHQ9kJsOq30tPsNtYB8PORKt/X056WmevrhcYJT+P38/ZGcSZGwBgE+latzk6AMdBzqYYiYOwOl3HxUuXHGwqddOHupYAcgETRKvmyAyAKHcspQqBPFXYCFEHJaqyCgFT7K1/JuAThJoMK5605CQWTMDkAwl8nXzedGW6SZ8NmOIkAOwFOAsXZ3AQB4Z9sJfWX7AGwtAOgBEATKSEHQNid8/YicRPVhk3xWATICRjXlucEeOwXgCuuGwLsAOgGteYFUQsu7ACEx8RobiAXwAg4iwDNCWAnwFm0OJ9lEUgytgcgNk64ySDIY+nDmux+Vks5ALciI90PEa6RpRFgJ8DSj4+NdwoBYx2AsEipeXzlsIrLkHsjZ0RmMhABcgDuiJZ/M/K+qCjLMQKaIUBOAC8R1AxeVmw0Agb3ANwLl3IAaBlgK4RwCvJ15CXI5AwIr0ZDeV3IHQshB+CqaMVuRkSIirIcI6ApAjQngJ0ATSFm5UYhYLADEBoh5QAkR42iArbBC+QM3MB0DnJbZHISMGHSGgEpB+B6BPcAaP2AWL84AuQE8JwAcfxY0qQIJCUYaljofWUOQPJ6BOFJF+TFyJeQf0SuhywVdQjlFZF7qiEH4Jpo1Y7eJKdNVJrlGAHtEaDhAHYCtMeZS9ARAffpAUgNNNqfZiDe3IR8Fvlr5MrITIoRIAdAeAjgCDoAcQnGeqOK8WB1bogAOQE8HOCGD9YTq2Rw40+QX72t60T+Qljm28h7kY8gf4xcCllXctfCyAGg7hah+sXEx8OJ27eEZFmIEdATAU2HA2J5Oayez9Kjy0qSWoKnBLprtw37vpfBCnyEfAx5J/LryPmQmQQRIAdgv6CsXezgdeERBLs8fzACeiGgWU/AwjkQFqfrW5FekHE5pkPAeAfg8i3DHIDkT6M6nnyHfAGZhgoGY0pDB5ioJvfVRw7ASaye8Gy+XVeEOxCwWCZGQF8ENOkJuHoZWv61kJ0AfR+lZ5ZmgiHXq8b1ADh65tSG0WTBH/AmNUZLMe2JHILMlA4CBB65lMK9ACtPnUinCL7NCJgLAeoJUD4x8MZVaLx0Hmy4eglux0TD3ZgY3ThUYggiEceU74bFgifxvXAL99Yk0s+1cf+f8OsC1/SdA+BKZWn5YGsUmI5MMQZmYdoe2R9ZmNxZkBwAqh9NsKDUZaaJgOfv3XNZjgUYASMR0MIJ2Hf7JjRd9ifkmDYOsk37VTeuPH+GMJQXr0VC1gZzPYqz1J8L/tVnQtVuy+Gr3w9DWISF9qcxeAkgdf/HyIUCFv6uuihIywq7ocxCZBqnnojpU8jeyEz/R+CBA7Dn/+dCyYpTx4XkWIgRMBIBLZwAI+vDZTuPAMWz33vsLrw7Zh+UaLMY1u2gNsJ5ecNyJhq76ur0ZUuGf8+Mz6sP8ipkGiYYg2kdZCdiDGAuN6YHDsAWmTr+dZIdABn8WNY4BNgJMA57s5R84040tHh5PazeKrwiWr+qGNwDcPpylH511aak3Kh2EDK1eWcw/RK5OLJH0gMHgFrw06IIrD59Em7zxkCi8LGcwQiwE2DwAzBB8XHxidB92Ca4E2ry+QEG9wCcsmYPQGrfsMJ44x1kav8WYZoivgBec2t64ABQJWmHJkpd5uj4eJi2X2oUweUyWYARUIkAOwEq0bSmLmr8v5t61LzGUwwAmoVnoIVu0APgCD1qB9vhjX3IbyJ7DFHFH1T2rwcHIumEPTshyeAvp4jdLMMIPECAnYAHSHhuOnvlOfNWPlGTGPwu1ffQGeEV45C9YXUILlrApfJ0zkybE32LZY5H9gbATzen5A7Aeqyr8NOlfQE2XTiPKpgYAesiQE6A6rDB1kXD8yw/ffG+eVcFGNz9T7P/T1wUnwRY8PmOUG3KV1B92tdQqE8nCCxAw/Gm/I69iFaNQHZ7Su4AUHindTI1/mnHVhlxlmUETIGAFsGCTFExNsIpBGgowKmMemdKMLYH4PDZCIhPSBKqtc3LC4IK5bXLBhXOB4X6doIaf4yEKuM+gXxdmoNfNpqob79tlo830ZDOyG5NyR0AqugU+hDlP48chAMcGlgUPpYzEQLUE6A6WJCJqsempIFAjiz+adw18JbBQwAHTocLV57e9r38KE7PoyoylC0GxV7rBbXmj4GKo9+F3G0ag0+G4EczGXf2AxadAdlt6XEHYAnWVHhBLEUV+2DdKlTBxAhYHwF2Aqz/DF2tQYUSmSE40MdVMX3yG9wDsP+U8AgxBBXJnyZG1EOQuWpZKDnsBaiz6CcoN+J1yPlkHfAOMMoZs5tLGw3RcID9xB0/HncAKCTWZJmKLj1+FLZevCCjgmUZAdMgQE7AH527g7+PSRsF0yDlHoY827qIOStiXwFgbBjgnUfDhLEJTscBSK7Y5usD2epVhdIfDYTaS362p3RO15Pn0+n4JZ3KMaSYxx0AMmICfogN9KAg0XtrV1LCzAi4BQJdylWEDX36Q5EsWdyiPlwJxwgUzhsMr/Yo6fim0VfjjY1PQJETdx+XcACKpt0DkBq81ANAPQHUI0A9A9RDQD0F1GOQmoyK68l0lMBjk34p0DJJcuQAUECgtTJ6/z53Bqbs2y2jgmUZAVMhUDNfAdj70mB4o24D8PPmcOKmejgKjMkY7AsLfmgEQQEm7ekxuPt/H3b/R8eK90CElJLvWaG5ATRHgOYK0JwBmjtAcwgUPP70VNRPL4NV7ztyAKguo+hDhl9fsRSuhIt7jDJlsywjoAUCGfz94ZtmreDEa2/BkDr1IUewaSYraVFdj9FJ4/5bpzeHyqVM3MOTQKOzxj2SbYdDhQv3y5oJAvLkEJZ3JEirBmj1AK0iqDHrOyj8Ypd05xk40uP4WoqrBVNccZMLqTkAy7F+25CF6V50NLy0ZIGwPAsyAmZFoECmTPBd89Zw8fV3YM1zL8AHtepB+0JFoWzmrJAvOASyoKOgJ2fyE58o5eVlgywZ/TyOSxfJCE8/WRBmfVMf9s5pBWWLZjLr1+1fuwx2ALYeEt/xNUNZbUPtB+bLBQV7t4fqU0fY4wwU6NUOAnIrdTiy//sQ3O8zNQeAavoRfcjwshPHOESwDIAsa2oEfHEooEmRYvBx7Qaw4Km2cKhzL7jYox/c7vWSrryvU09hnArkCoI7/3TxOD66sC3M+64BdGteCLzRCRIGUA9B+/I/qWlZUlZSgNcNe+8K68hYTlsHILlhwUULQJH+XaHmnO+h8i8fQd6nmwH1QCTPk96xg/t+Dq65xaW0HABaz7dJtpYDly2CvVevyKpheUaAEWAEPBOBBGMnAB4+ex+u3RG3IYOODsDDL4jNBhnLl4DiQ3pDrQVjoeBzHR7e4oP/EEjLAaBc0r0AEbGx0O6PKXA5jOcDEKDMjAAjwAi4hEC8seP/a3bdccnc5Jlptn6G0vITAJPrdPWYbAjI7WwvvqvarZ0/PQeAQgNLbRJE8NBkwG5zZwDtGkjnzIwAI8AIMAJOImDwEsC1u8UdgODiBcE7kPbYcbKu5sxmM6dZ8lal5wBQCa/gRwSyFFFwoBcW/QkULVBKEQszAowAI+ApCNDkPwoCZFB9af3/3/vEx/8zVytnkOVixaYi5dEOwDkE5QNkaZp5cB88++dsiE9MlNbFChgBRoARcHsEDH77p8l/4ZEJwjBnqVFBWJYFtUfAmR4AsmI0fmxFlqbZh/bDM/NmQlyC+JdK2ghWwAgwAoyAFRAw2AFYsuWWMEre/r6QuZJJgujZnHmJT7WqUsKpajXBDWcdAHplp5jISmaj/HnkEHSaPZ3nBJjgC8AmMAKMgEkRoPV3NARgoHlLN4s7APmqlYJSOf3A19lWRst6yjkAWlpmqG5XHs0BtPQzZCW0/MQxaDZ1Aq8OUIImK2EEGAG3QyA+Bqtk3Pr//afC4dy1KLRBjArWLQ/BPklQKnMSBPmI6VAl5Uz7n0ZZHt8D8ACbL/BgKbIS2nzhPNQYPxY2nD2jRB8rYQQYAUbAbRCwOwDG1WbhPzelCicHgBRQD0DJTEmQzbqLAdgBoAeJTEMBvTA9hayErt+/D82m/Q6fbFjDKwSUIMpKGAFGwC0QMNgBmLnmmjCMIbmyQI7SBR/K0xt4wZAkyBv88JLJDjzTHFeGAB4gREGhO+NJJLISSkhMhE83rIUBS+ZDEo17KdHKShgBRoARsCgCNPnPwN/CPSfC4fgF8Z/4Yk9WB6BWHx79yxWYBAXQCdD/lVqqRCnhRxEw15mIA0A12I8fA5CV0sQ9u+D9dRSBWKlaVsYIMAKMgLUQsPDbPwFtdwDowAFnRyegSMYkR/6Bg9yKLjlwRpJrTueYHQAHAE3Ha0riA6Ceh/T1P3/D3+fOPjx3twPq4dh95TL8tnsHfLPpb2Z3wGDXNvh6/y7DeNxRmp8r9j8l9H4cfD3xiCV48qIzcOpCuFhFrSYVRxMAjTE6MTEJZkl0/wdmyQD5apSCtP4y+QEUy5AE3no1rXqVk1alTXhPtAfgQVU+x4MRyMooCZJg8F+Llekzk6JFx45AuZ9GQc3xP9q3Sn5nzQpgdgMMNm+Ad3ZuNoxHoPMh+j2/Fx4Lw0fvtQT3+XArlGi7GBo8vwp2HLotWmXzy9m7/xMMs3Pt7rtw6WaMcPlFmlQBL2/vdOUzkBOAPQE+hjfO6ZpqfgvTrYLjDLIOAGl9Bz/GIiujg9evwbZLF5TpM4Oit1cth06zpsHxW3Iza81QF7aBETASgU17b0L951bBxIWnjTRDu7LjxJfeqTBqwtLLUmqKP1XdaflgX4DimUDzngCbzea0TZ6UUYUDQHgNxo+JyMpo5+VLynQZrWjk5o3w3ZZ/jDaDy2cE3AaBuPhE6P/Jdvhrk5ttNU4T/wwc/795LxZklv/5ZwiCgnXKu/Q9C/RJgmLYE+BlUBvthLHmtcwJ49PKosoBSMJCPkQWnzaKwsnpTpQyVcnV6n58/t49+HD9at3L5QIZAXdHIAHHql/+fAdExxjXXa4c4/hoAHIClCt2TuHUFVeBNgByLnfKXCVb1QYKAZzyTtpXqCegaEbQd2Ig8J8qByAXQkmtXBCmSqhw5ixK9Bit5JedWyEmPt5oM7h8RsAtETh/NU5q7lkAABAASURBVALmr73oPnWLQwfAoNqQ3zFhqVyPStmODYStz+CbBEUzADoB9D4Jav9SHQJwqhjuAUgDphx4bx1yGWQl5OvtDc2Lm2QTCckarTx1QlIDizMCjEBaCKzYLNdopaVb13uJ2JNBEwB1LfS/wlbvvA3Hzkf8d8HFoyxF8kDuSsVdlHo0e0a/JCgcAmCyFtdk5oCyP9keAHrjX4LWlEVWRl3LVYTcIegKKtNonKLzofeMK5xLZgQ8AIGzl++7Ry3jjB32/GGu3MTrMh3E3/6TP8DM/qA+YmAqPQDJy03jOEca9yx9S8YBoHUeM7H2tZCVUfagYBjZvJUyfayIEWAEGAHzI4Dd3rHGzf4/im/+K7aLL620eXtBmXb1lMGcMzAJsgcgJso0Sil6CqVppZvb9QTIOAAjEZR2yMoowMcH5nbrCTmDsQ9ImVZjFRXKlNlYA7h0RsDNESiSzw1+L2Jx7J8G4Q16VqPx7V+m+IJ1ykFI7qxKrc+PjzXEV41Km5ejps4l3a9i7t+QpRWhDtOQaGV6Yg2GICujjP7+MKdrT2hYqIgynWZQ1KJE2hGxzGAj28AIWBmBlvXzWtn8f203sPv/xt1YmLZSfOMfqkDFZ+glmY7UMb1uF8mYBAHU1yyp1jdzBkkNdvF++DkN2QfZLUjEAaiENR+PrIxq5MsPuwYMgtYlSyvTaRZFL1WvDdSzYRZ72A5GwJ0QKJw3GDo9UcDaVUqIA0gwbqXQqDkXIDI6QRjDTAVyQpFGlYXl0xKkKIHkBFCaVr707vnnTNk7kZ5MKvefweuzkRX1TaAmA8lVByAQbaVxf5r8h4fy1K9qDdjY9yUoljWbvDITaiiUOTN82rSZCS1jkxgBayPg7WWDXz+oBf5+3tauSEyEYfbfCYuDn+bLLaOs2OMJsOGz0KoS1ANQCF/gqUdAtIzAvLnAL7uypeWd0I7JyK62nyhiLnK1At+g+UqW+3l7ecHI5q1hfLtO4Odt8f/ACEpa9EbdBvBWvYZpZeF7jAAj4AICfr5e8NtHtaB53TwuSJkwayK++RsY+W/03IsQHin+9u8b6A/lnm6kObC0PDBHoMSkQHRQcjSumcxO6UPqCRglrcVgBa44ADTIM1CFvbTOf1qnrjC0Tn0V6iyhY8RTLWFRj95QJkdOS9jLRjICZkWgUfWcsHlKM+jToZhZTXTeLgPf/sMi4mHsn3Jv/6Xb1QP/jMHO11ciJ472AEUMFFWRt3Mz8PJT2nP/GtqifEdc1KkbOesAUNf/L2iVTC8MigP4+/jAvK49oVt5mkpgv+QxH21KlYFDA4fa5zuMa9sJPmr8JLxdvxGz1TGoXhuGVapuGL9cpqLw/6GM+Is6rG9ZMDt/NrASTP6sDpxe1h42/P4UVC/nBkOGFPjHwMh/I2edh7vhccLfHbDZoFJPei8UV+GKJDU+hTMkgeh8gMB8uSB/j9b2IhV+fIq6XkK2JDnrAHyItZN2t32w2/+Pp7sDNYSoz2OpSp688EK1GvBh4yfgqydbMFsdg3qN4asa9Qzjt9H5AMG/LBn9YMTgKqbn9/uXh+faFYWitDZMsK6mE4s1buz/2p1Y+H6WXOCfoo0rQ7YS+XWF1Q9brAIh4kMBhZ7vCFnrVlFt80+osC2y5QjhTNdmWsf2Rrq50slgA5t9vL9DmXLp5OTbjAAjwAi4OQL2t3/jAv98OukMREjM/KenU+Ol9pTozhQpMLvgfACbjzeU/XQQZK6mtB2idnQ6AqFkfhzq0Y3I8PQK+xozSA+cvNeoCTxXuRqqYmIEGAFGwMMRoLF/8RdZKfBOXIyECUsvS+koWLc85K4o3SksbEO+YAA/bzEAvfz9oPy3b0L2RjWEy3cgmBGvLULOjGwZSs8BoKnr0m5ep7Ll4WMc77YMKmwoI8AIMAJaIUAz/+OMe/sf/uspiIsXazwfQFLToLf/B+VTw1Uo5MGZaynl9vL1hTKfvAq5WiidiF4CddMyeW9MLUGEY1qGfpHWTWfuFc+aDX5v3xlsNpsz2TkPI8AIMALujUC0cZsXrd55BxZsvCGFb95qJSFfjdJSOlQIU5jgrP7immze3lDq3QGQr3NzcSUpJVvgpS+RLUFpOQCNsQZS7hGt75/RuTtQmF/UxcQIMAKMgGcjQFH/DFr3T2/9g0cfl8a/5ksdpHWoUpAvxNVVAY+VjC+mxQb3goLPK63TW1hKK2TTU1oOwPuy1r/bsAlUz6vvLFFZm1meEWAEGAHNEIgx7u1/7J8XgXb9k6lb/pploFD9CjIqlMrSkkAVC0MK9+sM+bu1VGUbdXdPQmW5kE1NqTkAldDqJ5CFqWKu3DC8PnUiCKtgQUaAEWAE3AcBWvMfH2tIfWjZ3yeTzsiVjW/L9d7oJqdDA+ks/kmQyc85xWnlKjrwGcjVkqa9pZXL6Xs5MSc5AeQM4KE5KTUHQCrinw1s8HObjuCLYyzmrDZbxQgwAoyAnggkAcSE61ngI2UNGnUMKPLfIxddPCnRvAYYOfM/LXPzByeBzZaUVpb076GDU3JYP8jWQNlqNepSGJR+wcblcOQAZEFzeiILU7cKFaFOgYLC8izICDACjIBbIUDL/hITDakSTfqbt0Fu4p+XjzfUHdLFEPudKZT2g8rhb0sna/q3aWJgmY9fhcxVy6af2bkctIy+CWaVmK6I0hqRIwegO5YVhCxENPHvyydoIqSQOAsxAowAI+BeCFDDHxtpSJ3u3Y+HV0cdly67fJfGkLlQbmk9WirIjb0A3vI+gH2/gLJfDoHAgnlUmBuAStYhU9jH05j+hTwa+RXkJ5ELIiuwGrUIkCMHoJeAnoci3StUgkKZMz885wNGgBFgBDwaAer6T5LsnhYE8O2fT8KVWzGC0v+J2by84OCsdXBq9S64vOsY3Dl9GWLCqE37L4/RR9T450ojQqAr9vkEB0G5L4eCdzBtg+OKZKp5KTZAUbzbAvk1ZAofvBrT88gE5D5M5yB/jtwbuRYy9cZjoh097gBQIIPaosXZwAZv1lU2iULUDJZjBBgBRsAcCNCSP5r8Z4A1f227LR3x74HZ+2eshnWfTIJlr42Geb2+gGlthsOvtV6CiU2GwOKXv4etY+bByZU7IPSi3FDDg/JE0xzYd+1PTa2ogmRyQYXyQun3XwbwsiW7qskheRk08b4Lan8PeQryNuQ7yAToJkx/Rx6G3BG5HLJ0dF7UAY87AJ3wonBtW5cqDeVy5kIVTIyA+yMQl5AAa8+cgg+3boT2q5ZAuXnTIP8fEyDbtF915crzZwiDffF6JGRtMFc3ztl4HlR4ehkM+Gw7bN53U9huSwjSW3+UMRP/boXGQd+vDgOZoCVW4dduw9kNe2HHL4tg+ZCxMLnZG0C84YtpcH7TQUiIkdhtUMBwatByoxOQUlTsSrb6VaHQ89TmiskrkMqBOuoh90UegTwf+RDyPeQNyNSbINzlTnihjofU7uGRwMFb9fjtXwA2FrEYAhdC78HrK5ZC/u++gmZTf4cvdmyBJRfOwNF7d+BKZATcjYnRlUNjxbt4ExOT4G5YrG58824MHDp1D8bPOwX1n1sFnd/4B8Ii9G0kdPu6RWPjn5SgW3HJC+r/zVGgpX/Jr+l1TL0A+6evgoUvfgPj6rwMS14dBafX7IJEdJj1sCGrfxIEKOoFIHvJASBHgI5NxOTmNEJ7RiNfRv4QmeYbYOI8JXcAaN2icPd/5dx5oH7Bws6XzDkZAYshEIYN+5srl0HJMSNh9LbNcAsbe4tVwXTm/rnmAjR4fhWEu5sTQOv9DYr3P3HZFaCZ/2Z42HFRMXBm7R5YOmg0THpiKGz/aQFE3LiruWmP9wJIFUjLA4e/CH5ZM0mp0VCYnIFPUP9u5OLITlNyB4BmJCY/d1oJZexSriIlzIyAWyKw/dJFqPLLaBi1dRNQ179bVtKgSh04cQ+HBHYYVLoGxVK/e3SYBorTV7njaBi89oP8rP/0S3I9x/3rd2Hbj/NhYtOhsGzwGLh17ILrSpyUyIy9AKK7BToqwjdTBig57AVHt8x0jdYubkeDqiA7RV7JcjVOduzyYedy5gkP6bLxLMAIpIHAnEMHoPGkcXDunvZvLmmY4da3Zq04B7uP0JwnN6gmdf0n6t/1f+pSJLR5ex9EROtftitPjYYCTq3aCX88/T6sHPYrhF2+5Yq4U3lpIltOmlpnz63mI2vdKpCnbRM1yrTTkhVVL0MuhJwuJXcAhGtWNU9eoF3/0i2NMzACFkNg4p5d0PPPWRCr0/ilxeBRZi69NP+x/JwyfYYpss/6j9K9+Jv3YqHlW/uAUt0LFywwKTEJji3eDFNbvgV/fzUdou6EC2pyLJbdH8DHy/E90atFB/WEgLw0Wi6qQRc5CmAwGUsiPwiT1OkBPNkxi0tjB5j/IfHb/0Mo+MCNEKDGf8CS+ZBIrZMb1cusVdl+UP2boK51pQl/UWG6FkmF0Rs/vflTDwCdW40T4uJh39SVMAUdgeNLtygzH4fuIUcAgDKFqMg7MABKvTcAKGIgnpqZqEef4gmkaeMDB6BqmrnSudm6ZJl0cvBtRsBaCHDjr//zohUC+peqsERq/JP0DfebgG/R3T86CDT2r7AmhqiiwEIr3vrFPj9AVW9AjsAkUL2MP1PFUlD0lR6GYORioRQ3IM1egAcOgPDuBxn9/aFsDtN3ibiIG2f3ZAS48Tfm6WdVsaWbMaYDUKx/mvmvc/nvjT8NS7dYvOfkMcxofsD0dsPtSwcfu+XyqbcNIItfksty6Qnk69oC8nejvX7Sy2nofXozr5+WBQ8cgPJpZUrrXvV8+dHDStPJSEuc7zECpkKAG3/jHkeV0ppHPtWmctTwx9zXRncaWudtuAHf/OEG8yYc1DHydph96eDGr2ZAUkKigxzOX8oWqE37VPTVnlBy+ItAwwLOW6N7zhZplfjAASiZVqa07tXKVzCt23yPEbAMAtz4G/uoujUvbKwBIqXTRj9RFJRNRFhc5vDZCOjz5WHNI/2JW6hGcu/UFbBk4CiIjYgWUkhCwT5JEIhMx6o5d+tGUHPO95C/R2vwzZJRtXoV+tKMzvfAAaA9AIQKq5W/gJAcCzECZkKAG39jn0bzunmgUfWcxhrhauk0OTQSG39KXZWVyE87/HV8dz/cjzL3cj+JKj4ievbvfTD3mU8h/Ir4UEfWgEdUKj3xzZzRPiegzqKfoNrkL6HEW30hf/dWkK1eVQgskBtsPgrDErpuOe0x4JWaGN3IhjeFQxxVzp0XxZkYAesiwI2/sc+uYJ5gmPJ5XWONECmddvlLjBORFJYhX6PXZ4fg5KVIYR1WFLx14iLM6voxXD901gXz/8uazR/Aps1IADz8wwKCixWEPO2aQtGBz0C5Ea9DjT9GQv3VE+0pndN1up+5ShnwyyYcwv9hkU4cZMA8xZEdEjkAuR3eceKit5cX5MlA+p3IzFkYARMiwI2/sQ+ldsXssGVqM8iVTcNXNC16mcLdAAAQAElEQVSqGBsFQKyF7jR0jlt0SatJf9THfhCLXoT8O/I3yMP/z+9i+jXyeOSFyPuR1S7aR4XpUeTtUFjQdwRcO3A6vawp7ntj459Zg8mAKQpycIF6AKgngHoEqGeAeggqjnkPai/8EeqtnABVJ3wGpT8aCIX6dIKcT9aBkFJFwDtI6f+HVCMDkgNAQQMcmJ3+pVzBIeCDTkD6OTkHI2A+BLjxN+aZZAj2hRb18sLMr+vD5inNIF9OCmVujC1CpSbEAhgQ6pfW+b/500khk1MRom1ne+M9mgNGD4HiuXfA8xeQhyF//X/+ClNyBgZg2hG5MjL1GtPQcQ88Hot8HFlzigmPhIUvfAPXD55Jt6zHM2T1Ry/g8YsGn1NDTw0+NfyF+nayOwLkEJBjUHvBWCBHgRyGoEJSPe30vBzWlByAHA7vOHExX8aMTuTiLIyA+RDQovGvki0HbGjTGW72GgC3e72kG+/r1FMY4AK5g+DOP1104/vbukHYlq7w189NoHuLQuDlZb4f5TTBTIgHiAxNM4sWN2m9f+8vDqsM80tv+c+jrdOQyatwda0c5T+FsrOQaUva0pgWRSbHYR+mmhE5AYsGjIS7Z664VEYG7AGgngCXhAzM7Jc9C9BQAQ0ZZK2b6ku8MxamKkwOQAZnNDjKkzcDOwCOcOFr5kZAi8a/Ts48sB4b/4a580E2/wDI4u+vG2fywwFOEPvzwnHLLBn9QC8ODvQRM9QMUhTkJ4om/SXqbs3XM87B1kPKHI9dWIFXkVUTDdDT0AE1OBRbhnoYxPeqTsO6qLvhsODFbyHyVmqYpBQmVzMTOgEp75j/SkjxgjJG0vNwKE8OQIjDO05czB0i7Ds4oZ2zMALqEdCk8c+TD/5q2QEy+vqpN5g1mgQBfOGNvAdgwCY/B8/ch08mUduqBIrbqKUzMo35Y6IZ7UHN1MNAvQI/4TGOm+CnQqJVAcuH/oiPxPnVEFaNNRVSsrAMcrS8xuEYAjkAwaKavb1IXFSa5RgBfRHQpPEvUBCWd+jKjb++j1L/0ijMb0Kc/uViiUPHnIDYOCW9DtRSPoMqzyPrRdRPT70NpbBAmkCIiTq6vOsYbB45O4XC1C5kxM4yK7ZagQXzgFeA1AuGw14AK2KR2rPl64xAqgho1vg/2xcySnTBp2ow3zAPAjERAHFavzA7ru7iTTdh7e47jm+6fvUjFFmFbARRyMKOWHAb5EvIymjPlBVwcsUOp/RRg0dzAZzKbKJMNnzZDi4qFXMnVQcA+7bEakpjKmKSLMUI6IeApo0/jvXrVxMuSXcEaHtfA8L8Uj3prV/hrP/FqPNLZKNpGRpQEXkOshpKSoI17/+WbFJg2mozS71Ip61by7uSwwAOVwKQQ6Skb0nLirNuRkAUAW78RZFjOXucXer6NwiKH+dfUhXwh2b503I/4Zc9xRDcRX3dkAchxyNLE4UKXv3+BEhKTL+KGazqAJQoJINTqj0AkaJaE9HzEpVlOUZAawS48dcaYTfXHxUK2KIYUsnboXHw2WTX17o7MJZm4XfF61gZ/DQX/YjmNEMmhwATObq69yQcmrMe0tPii6+9ARZcjBIi5wAUQVxShB5EKEA4otPNSBwbQ61MjIDZEJi0dxcMWDIfVDqpdWjCH435c7e/2R63entozJ+6/9Vrdkrj6HkXgGL+O5U57Uxv4W1N1+Wjfhlaj8INkGmyICZytOm7WXD/evr+RIgFHQAKM2zzFt5XgEbsaV+ARwCWcgAuh5nRqXykfnzigQjQm3//xdz4e+CjV1TlJACK869Im6tqwiLi4cc/lcyTo3F/est21QS98x/GApsgX0WWotj7UbDx6xnp6gjxxWecbi5zZfDy8wVaDSBhVYphAHIArosqvBwWJirKcoyAJghQ489v/ppA6zlKadZ/onFTo35bchnuhksvObyGD6wvslVauhNoa3Pk9F/fMVNadPKv7XBpx9G0skCIb5q3TXtTchjAoQMg3PVyJTwMEgz8j2Lap8SGGYIAN/6GwO5ehVK0v1jhaVHSWNC0ql8XXZbWgwoGI1PQH0wsQ7QZUTu0VjhoEMraaftPC+xpah80D8BfuDc9Na3aX1e9EoB6AIQdgHhs/K9H3Ne+1lwCI5AOAtz4pwMQ33YOAWr8qRV2LrfyXKt23gba9EdSMS21U7fMTtIYF8U3Yf43kKWIegAu7zyWpg4rDgNI9gCUQUAe2WaQHACayXcDbwjRwevU0yQkykKMgBIEeMKfEhhZCWBvuQFb/CYHftJy4fexB2qo+4KW1z04t2JK8xamuG74oxLbf067FyDIghMB7T0ANtujFXX+jAY+yiXPTg4AnR+nDxHedumCiBjLMAJKEKA3f57wpwRKVhIbbdiyPwL/flQCLN18iw5l+DsUVrZxAOoyigZiwRS/ABMxurjtCFzZTVMLHMtbcV8qn5AgCMiV3XGFnLv6yDyABw5A6iilo3TbpYvp5ODbjIA2CFDjzxP+tMHWI7XGowNgYMWXbL4pu93vPTT/e2R3IOqZfgkrgt0y+OkEOcqy/4/Vji7brwVacA4AGR5cQt3OgA8cgAOkWIR3YA+AyrXWIjawjH4IRMTGwqEb12H92dOw9swpQ3jp8aP2Nf785q/fc3f7kmiXv3jpuWdSMC2Rf/sfhQaQE4CJW9A6rMU0ZGE6vXY3xISRL5FShRf2pPtZ0AmwDwOkrI6zVxz2AOxyVvrxfPeio+HYrZuPX+ZzN0Ng/7Wr0Hn2dMj17edQ6ecf4MkpE6DZ1N8N4fYzp8KE3TtxxFbq5eCRJ8RBfh6Bw/NOKPCPgbVOTEyC1TulJu1Twz/awCpoVTRNCKS6paPf8e2EmDg4vmyb45t4NdBb3W8IqtOFJCcC0j4MD1784cEBRYoSjslMb4K61JwLMQSB77b8AzXG/wgLjh6GqDjp9cmG1CGtQrnxTwsdD7mXQBFzjavrruPhcCtU6v/WXLTeHSOz3cJ6STk2Rxf+gyockxWHASQdgGBEoiSynR44ADRzdL/9isDHomNHBKRYxAoIjN62Gd5etdxt4z1w42+Fb6HGNtKyvwTh9x8lxm0+KPyS+6D8GQ8O3DAlByBN5yatOl87cBrunHa8usKKewL458wGvpkypFXl9O49HAZ44ACQwHr6EOF/zp+FW7wvgAh0ppahoR1q/E1tpIRx3PhLgOdOogn45k1OgIF12nZYuH0jq2kpVuqvuZTD2kzRAcfKVOHcRurkTqkhwNuW8qIFroSUlNoZ8OHWwEocAAoINOugcAeCBeD2TBO/3rQB6Nm6Y+258XfHpypYJ3IABEVViW0/IuUAzEY7EpHdmX7FyiUgO6D0L13YStsNpMzn52W9OQBUi+DiUg6Awx6AjahYeB3MtP17UZzJXRCgEM9LjqcdT9uqdeXG36pPTiO7E43t/qf1/xeuC//0Eiir6MPNmeIjp76mL53KU1TAhNiUz9kbX4FpNUA64qa7LbkSwGEPAMX0XSNa011XLsHOy5dExVnOZAjciIiAu1FRJrNK3hxu/OUxdDsNBo//n7gYCRIjEDh+AVvd7pk4rtAkR5eduRYfHQtX9zoOd0P7Ajijw0x5JCcC5sC65Ed+uAqAjokX0Ycoj9m+WVSU5UyGQEScsWuitYCDG38tUHUDnRQDwMBqkAMgUfxxlHW80B1vuBktxvrQhHVMXKeL2x1PVreiAxBYIDd4B/i7DsJ/EvZhAOwA+e8KHpEDQB4lHrpOcw8fhAuh0rNZXS+YJZQjkDskA9jwn3LFBinkxt8g4M1erP3V29hx4Ms3pbr/HbdqZsddzD4Cioaqk0k7f3jruOOotVZ0AGxeXhBcXCoioH0Y4HEHgCL6rHAe0kdzxiUkwJcbhRcTPKqMzwxFIMTPD6rny2eoDaoKr1ewECx/ti9k9PdXpZL1uAsCScbPnbt+R6q37ZS7PAon6yE8TH37lOMhal+LTgQMUTAR8HEHgJ6BVOjFyft2w5m7d0gPs8UR6Fe1hsVrANC+dFlY2asfN/6Wf5IaVcAMDsBdKQfgqkbImFXtIw6AK0aGXboJNBfgcRlfK84CxEoEyy0FdDgEgGqBxllu0IEIUy/AsNV/iYiyjMkQ6FOlOlTLa81eAD9vb/jqyRbwZ7dnIdCXdsE0GbhsjkkQMLb7n0CgVQCUCvJ1QTmritF6PqGwjUmJSXDnTMqAQL6OXoMtgE5IicIyVtI6wiyOqk7g/iajef6RQ/bNYmR0sKzxCPjgONP87r2gWNZsxhvjggUtS5SCfS8PhrfrNwKbzeaCJGdlBPRHICZWahhCeFKc/jVVUiKt5aOJjwDgur67DhwAAOOdQNdrAhBcND/Y8EVHRBZl6IexsiMHAO/BL/ghPBkQZWHgskVuGTee6uZJnD9jJtj6wivQtXxFsOE/s9Y9c0AA9K1aHXb0fxWW9nweSmWnlS5mtZbtYgT+QyBazgGgiXH/KfOMI+oFEKpp1J3wFHIWHQEALz9fCCqUFyT+qqTmAFDQhVkSiuH4rZvw4XrhuA0yRbOsYgSyBQXBzM49YP8rg+GTJk/ZnYEnihYHI7lDmXIwoHot+K55a9jU72W4/vYH8Fu7py07ZKH4kbE6ZxEwwctfZIxwgDuqJfXYUupJbJ/4KFLh6NCUKyZTawRF9OstIxsSOK26f4mVkeqboo1kNpw7g2qY3AGBcjlzwfuNmtqdgVW9+4GRTGP7P7fpAEPq1Ada4ueDwxXugDHXwfMQCI9kB8DFp37bxfwPs0eHOXAAbA9vW+5AMiBQmbQcgGOIBm0xiYkYUTjZZ/+cBdfvU5BBMR0sxQgwAoyAdggY3wUQHknD2sI19MQhgLsAYnjFhKZsi7xs1vQAkuLiIfrqLTEg/pXKn5YDQFk+xA+puQBXw8Ohx7yZQKsDUBcTI8AIMALmQSDRDA6AVA8AOwAufJtiwlOGN/eyGf8dcKEK9qy3N++BXb2HweV5K+3ngh8h6TkAJ1Ax7cKEiTj9jcMALy1dIK6AJRkBRoAR0AQBqVFOJRZJ9gBQ8DYldlhISYKorTbvlG/7XikviarXXC7q4jU49PZIODz8e4i6JL0CNCI9B4Aq9Cl+SMf3nbx3N3yxcR2qYmIEGAFGwCQIJBrrANwOjYO4eOE3UBo7CDUJknqa4SdamLevTwrRpCTzewDx9yPh9Njp9rf+O1v3paiD4IVLzjgANMjwrmABj4h9uG41fLt54yPX+IQRYAQYAcMQSJLqfpc2+9iFCBkd9Nss7D3IFGysLAjH9Pb2801heqKZ4wDgENX1FZtgV8+34PKcFZAUr/T7utMZB4AAG4cfW5Gl6Z3VK2Ds9i3SelgBI8AIMALSCFh7J0Bari0NgQUVBIra7OXjnUIU29gU18xwIXT/cdjzwgdw/ItfIfZOqBYmrXTWAUjE0vsjS685TUJva8hfS+Dj9cIhndEMJkaAEWAEFCBgsANw7LxUD8BpBQhYTgUaXABZiHz8oi5PowAAEABJREFUU44emM0BiLlxG45+/CPsH/Q53D95TqieTghR79FyZx0A0ncIP5QMBaAe+OzvtdB/8XyITVDapUGqmRkBRoARSB8B6v43eDOg4xekIvl6qgNAcezTf74OcoTkypLiapJJIpwmxsTC+UnzYSd2999cuw0gKSmFrQovfI26Yl1xADA//AAAa5GV0O97dkLTyePhSniYEn2shBFgBBgBpxEwwcvH7uNSv30nna6r22S0V6Sw/VPgI0Pe7CmkErVtaFOU5+jCzXXbYdezb8P5ifMhMTrWURaV12h131hS6KoDkIhCvZCvIiuhrRcvQI1xP8Lf584q0cdKGAFGgBFwCgGDu/9PXIyESzelRlX3O1VP98tUTrRKGfOldACSDFwFEHHqAnb1fwFHPxoL0deoV160Zk7LUZdTF8xt/+K56gCgHFDj3xUPpAIEofxDunY/HJ6c8hu8sXIZbyD0EBU+YAQYAU0RiNf8TStN89ftvpPm/XRu0u+v8KY46eg27W00jN7+c2MqRBkd9ADEadrT7tjMuNBwODlyIuzp9z6E7jvqOJP6qxQFiRr/Aw9UizgAJLsJP4YiKyPqhvlh6yaoNm4sbL5wXpleVsQIMAKMgEMEEox1ANbvvevQLCcvHsF8McieRrVFK+zt7wvBOVPOAVC7sg7S/bv1907Y+cxbcHXROkjSLw4Fvbi3QOOWIz8kUQeAFPyEH6OQlRLtItho4jjo+ecsuBAqHX9IqW2sjBFgBNwEgYR4wF9fwyqTmJgE6/dIOQAeuJba/rjq2T8FPnKWLQw2B2H/9OwBOD12Bhx5fzTEh90XqIGwyEyUrICcIgiPjAOA+uBN/JDaMAjlUxAtFZx1cD+U/fF7eG/tSrgVKbVUJoV+vsAIMAIejoDBb/8b99+Dm/ekeiA2eOATpJB97UTrnadScYei8eiMObyh+OL5yQvg8py/FGtNUx2FDGyEOZ5BdriDoqwDQJMCe6PyVcjKKSouDkb8swGKjPoaXlu+GM7evau8DFbICDACHoiAwQ7AtJXUIyuMO41a/y0sbVFBNLs6ckFkIcqdmgOgwyTAe3uO2Gf4CxnuuhDtDzEAxQivFG/9eP0hyToApCgaPzogK1seiLoeoUh0BH7asRVKjx0J7WdOhT+PHIKYeOzCeyQXnzACjAAj4AwC2H7G0xw6Z/KqzxMVkwjzNtyQUUwxWa7LKLCo7NMyduep7LgHIE7rUDTYw3Dmxz9wyAm/dzIVSF+WvtS0VL8kZh2PnG7NVDgAWA7Q7ELqmtE0vF98YiIsPX4Uus6ZAfm++xIGLJkPC48ehrAYT5wLQ7AzMwKMgMsIxOHvhYEBgBZtuglhEfEum51MYEmyYw85BAriT0vQhepLy/9CcmdNKYttcjz1Y6e8o+zKvb1HQMOIfg/spF74SnhCk/OdnjynygHAciESP9ogz0XWnO5GRcGE3Tvh6dnTIec3n9kDCn2wbpXdITh/757m5XMBjAAjYFEE4uh9xTjbJy67LFu4JzoAnRG0vMhCVPSJag7lYtAB0Lj9h9ub9zgsW9HFU6inPXJzZJfXE6p0ALB8QNcauuMBrRDARB+KS0iwBxL6cuN6u0NQ9IevIcfXn0Gt8T/Zz4euWAq/7twGp+84nAehj5FcCiPACBiPAL35G7j+f9exMFi9U2r9P00e2GE8kPpagKW9hixMxZvVcCgbLdUR41Bliot3dxxMcU3BhXDUMRy5PPJiZCFS7QCQEeRQvYoHryDTmAQm+tOdqEjYdeWSvUdgzLbNMHDZIig5ZiTUGDfWPocgKQldP/3N4hIZAUbASATioo0sHb6YKh3xlJZ00W+sofXQuXCayS68/j8oWybIW7mEQ5Nj0h0ldyjm9EUK+BN5gXw2p0XSy0gN1xTMVAqZ4vnTSzceipGXmJhTUr9grieRpWa7oLxS2nP1in0OQSccOgiNNvbHQGnFWBkjwAikj0Cscd3/B8/cBxr/T9/INHNMS/Ou+930AoCRMtUq9mQ1sHk7bupiEmhloYz2tGXDDp5UOflvO5ZGjtDzmCrxKhyjgtoVES1BqIa61iObihYfOwJd5swAmlhoKsPYGEaAEdAGAXr7T4zXRrcTWuntX7LjkfqS9zlRlDtloTXstJxNuE6l2tRJVTYqgV6oU70tfSPsIO27I63mCmp4DpkqonT4R2sHAG2GS/hBPQE0XmHYkADakILWnjkFk/fuTnGdLzACjIAbIhBD85SNqdeWQ6EwZ530yj3qVTWmAsaUmhGL/RJZmHKULgT5qpdOVT5G4yGAUDkHgLr3R6Dx1N0/FVPl3ooeDgDaDTRmReMV1H2xly6YhX/ZudUsprAdjAAjoBUCNPEv0Zj3j3h8y3zlu2Mg+fYfhtB4Wvf/D1jnAsjCVLlXs1RlY7FVik/UbgggMS4O7h+XmvNBL83vYAXuI2tCejkAD4yn9RA18eQNZFPE9z144zrcj5UKyYlVYWIEGAFTIxBj3M/NT/Mvwv5TNGlbCqE5KK1ZQ4C6zUYUXK4PgLhZQdkyQqnW1GvuWEekxv5g2MGTkBgrVYjmQ+d6OwD0JGgQ7ns8KIs8E1l5twbqdJoSEhPhZoRxPw5OG8oZGQFGQAwBevs3KPTv1dsx8OHvZ8TsflSKouA5nsr+aD53OCuAlaBIdpiIU/muTYB2AExNQ0S8dm//VObtf6SGl2mtKM35IFWasREOwIPKXMADmuBBCzQ1CyOMZTAxAoyAJyMQI/32LYQe7fjX58sjslH/HpRN+9jSeu9MDy64aZoB60WBjnJgCqLsnzEYqjzXIk3xSHoVTTOH3M3bm6jDW1jHPyiJgxT4qSEZ6QA8qBa5STRJ8Am8QOEMMdGPvL28IG8G+s7pVyaXxAgwAjohQBP/EjT+pU+lKl/POA8rdygNPkaz2ajX1CeVIq1+2RsrQPWjkLZ4KE41X24PAZlCUlVA3c5aOgARpy9A9DXakydVE9K7octmT2ZwAB4AsQ4PKJxhVUzpS6DLwHyxLFnB38dd/z8hkkyMgKcigMN7EGvMsPk/++9h1/9pLZBviUpnIVNsfEzchqgtGoe1aY38fxJLMhXICZWeeSpN4Sj0CRPJC0gzl/hNybd/KtjjHACqNPFe/KChgfyYvol8DFkzeqqYpwyraQYhK2YEzIlAdJjKICxO1/HmvVh45pODQLP/nRZyLSPNB5iHIv7I7kD0BkbR7fqpqEy917uBtx+pTF1bRJwt9ZsK7tzeRB3bwoquoaQu8R7I68KyTEnUf/IdWlYGmVYO0DLCk3islNqXprmISlWyMkaAETAaAdrxL56WUetrSER0ArQdth8u3dS8bNp9dSHWjtbKY2JZ8kPLqUfjWUwfIZGT/DXLQInmNK0sbekwqcn5aeuOPH8Fwo9JLf+juR6aj/9TLczsAJB9D3gnHtCayJKYVkB+HXkpstTsniyBgdCwUBFUw8QIMAJug0BiAkB0qO7ViYtPgs7vH4DtR3Qrm2a50W9jOd0rq6ZAmu2/AVVRjwYmcuSfIQiafdUfwJb22z3FY7iv4QDztaVUJZD5I8dORt5pWas4AMkrdAhPRiG3Rc6KLBzJp1WJ0uDrTfNOUAsTI8AIWB8B+nWPuqd71z8V2/erI7Biu9JJf848D3op2oYZaRdWTCxDFKGH+slTWajvej0avfssZMibPV3BcOz+1+r1OikuHq6v2JSuDWlkoJdamg+XRhZ1t6zoACSvfTyeFEQWokaF+e1fCDgWYgTMikDMfQCdZ/3Tcr9XRx2D6auU7M8igixNd6eJ03NROC+ymSkYjaPh3L8wlVrqh/IPqfhT1aFMhwYPz9M6CNfw7f/25j0Qdy8sreLTu0e4aD5+9MAIqzsAmbAi+ZCFqFzOXEJyLMQIMAImRCA+GiBW33j/sXGJ8Mynh+DnBbTlieGYdEYLjiDTVuxm/G2n6H6H0b63kdO0D+87TSG5skDTT/o6nV/L8X8F3f8LnK6IgozKHoICW0RUFBYRIhkb2KB8ztx0yMwIMAJWRyA+DiBK6s3LZQTCIxOg9dv7YPZa6U1+XC47DQF6KfoJ71NDSxPrzDDGSd38y9EmatwKYaqMfIMCoN0vb0BgFudiucTS9BBkZQYkUxR1+Trc2Xkw2RWXD2nyCE0AdFlQVMDqDoBwd1eRLFkgxI8moIpCx3KMACNgCgSoyz/qrq7j/pdvxkCT13bDml0UsdUUKDxuBAUNmoYXjyK/iKz3agEblkkxC2hG3Jb/H2PiDDmXx+btBS2+fRlylHHep7irYff/pZnLAOSCC9BqCF27sKzuAORx7quSMleJbOlPFkkpxVcYAUbAVAjQjP9IfRt/muhXpe922H1c3x4HQdwp0AnF1acJCuQQUNRVLXsFaEXC52jrKWR662+EqSbU4K0eULQpxY1zXv1djUbXY2/fg+vLNzpviOOckxxf1u6q1R0A6u4SQiejf4CQHAsxAoyASRB42PhrNaf70XpSYJ93xp2CVm/tBQr28+hd8bOg7JmgQrem4gqckwzCbDQksBrT28i01OxVTMsiyzgEeVC+C/JoZOr/plVa7+FxUWQhckao0rPN0o31/7ieaOz6j9JoA6BLs/+CxDiak/54qU6f05DNdqdzK8podQeAZr8KQcHd/0KwsRAjYA4EHjT+lOpg0fELkdB40G4YMf0c0JI/VUX6Bvrbx7CbftwHar7UXpXa9PTQixMVNhYzUsND26FS5DlaSfAJXhuC/Dwy5aGYutTAE/fHa+8iT0Bei3we+QryHOTXkMsja060yU/jd8mXca2ouzE0KuGajDO548Puw9VFBIczuVPNMynVOxresLoDECiKDTsAosixHCNgMAI05h+BY+86NP6R+Nr4/m+noeLz22DzwXtKK24fw/5uIOQq/+9y5DqDO0Od12giv9JinFFGIYUrYUaKJfAhphRnhRok6iVYhedz/s8Uq/8LPO6HTF0WwkuwUT4VSvsyOUkNh/cESCfYDzj4uxvj4KKCS5fnr4aEyGgZTSQ8VUaBqKzVHQDh7RyCeQKg6HeG5RgB4xBIiAWgxj9J+27/xZtuQrle2+CLqWeBlvuprnSjd56Fok2qPKK25svtof6b2A4LNHCPKHLDk7pDuwI5SSJVi4gDiMEhABHZtGSSEhLg2mLpuD1TsQwKfY+JvmR1B0D4kd6PxR8SfbHm0hgBRkAGgbgoAJrwB8J+v1Ol0yS/BgN3Qft39sO5a1imU1KuZarapxVU6km96ynlqvVrDa1/GAR+wZ43TyklGgC0sc8Tn/WDGv3bOrrt1LXbGnX/391+AGJu3nXKhlQyJeL175ENIas7ADR2JQTcrUhhUaHyWIgRYAREEcAGn3b2o3X+eCiqJS05GtdfhG/8NV7cAS3f3AubDqjt7k9eNjX+Dd7Ct/zkFx87Lt6sBnSb/TFkKezZsUootG+X6R9A+c6NH0PI+dME/M7cpU5250Wcznlv3zGn82YKow0AABAASURBVKaScQleP45sCFndARCOwHErUtflloY8XC6UEbA8AjTef/8OQKw2b+IXrkfbu/jLPLsFOuAb/65j2i7tqzGgHTR4uwc4M4adtVg+6DbnE5eXuoFl/x41vFD9CvDMn59BrgpyCwpuY+NPr9mgwR/t/CepdqSkvJS4xzoAt7kHQOqLw8KMgOYIUKNP4/2JUsurUphJS/gmLb9iD+RTpOtmoEl+NMs/RUbFF2oP6gR1h9BkeucV0w53bX8cAk982hfo2HlJ6+b09ve149R+3FsQkFl4oZcdAHz5h1tRNvuxFh8JEVIvkrvQJqmdg1BeiqzuANwQrf3pO7chkfr9RBWwHCPACGiDADX4NNZP3f4KxvvDIuJhyeabMHTsCaj0/DbI1W4j9P3qCGzYexdoIx9tKpFMq81mn9hX65WOyS66cIjy5bs0gV7Lvgba9MYFSUtlJWML1C4LPRd+CdRTYvOSb7jvxwLEaPX6jwZ7BwkvRENpoBgKMjEYSIcUW90BEB4CCIuJgVPoBEihx8KMACOgEAF8X6Pd/O7fBojHX24nNNPs/DthcXDmShTsPxUO6/fchXGLLsPr2NhTwJ5i3TZD1lZ/Q7vh++GHORfgwOn7Stfxp2ciTeRrM+Y1oIl96eVN735wjszQesxgaDN2MGTIky297Ja6T7H8m40YAJ0mDlc67+FmtLwTkRaQAbmkIsrSRnYt09Kv9T13cADiREHac+WyqCjLMQJugcDF65GQtcFcc3B9tOOJ5fYGmxrt9Ni/6Togztb6b6CGvnKf7dB08G54aeRRGIWN/V/bbtsdgwS5+OzCzzlTwZzQdeZHUOzJ6sI6HAmSvudWjoTGHzwHwTmzOMpimWt+IYH2AEi9//oGyrSvD87MjQAn/6ISbBDmnB/ppMaU2TLXkI599EJKrfpdsboDQI0/RbISQmz3VXYAhIBjIbdBgLrA7+KvpCk4PA7uusD09m/WB1GwbnnoPucTyFYiP2jx5+3rA5WeeRKeR0eAAuMEZcuoRTGa6aT5DDQk0nftKPva/oBMcmP9jgy9hsPzSY5uKLyWuVpZ8PKX2lSuNZojvKkdykqR1R0Aqvxu+hDhjefOiohZQubYrZvwxsplUGPcWMj+9aeQb+SX0HzaRPh5x1ag4Q9LVIKNZAQshoCXt7f9jbb9+DdBi0btcTh8AvzsMfH7rv3BvjNe/pplQOVbNCj+y1osHzR4qwf0wYafJkX6Zwy2l6D6g4L+hMao1ppSn09wEGRvVAMk/nxQ9nlkQ8ijHYDdOARw/t49Q4DXqtC4hAQYvvovqPjzD/DD1k2w5+oVuBsVBdfuh8Oa0ydh0PLFUO7H72HlqRNamcB6GQGPRIAat64zP7S/0Xp56zu3y9vfF0q1qQtPT3kXei//Bqr2bQUhucwxPEBv+7TZUbdZH0GvpSPsttE1Lb8k16JsCqaPOmdhnrbiMQr+X0I/TLWdrIAFOCKPdgCS8Cuy8NhhR7hY8lpodDS0njEZvt28ERISU5/6eiU8DNr9MQXmHT5oyXqy0YyAmRCgmP40yU/FmnUV9aLgQfSW3W/9aHhm/ud2hyRP5eJAdqrQ74wOGvqgTXs6jH8LXtg4Fmizo9yViqciqvZyLI79axX4x5GlmSqVhsACuR3dcvYaBTqgvRWcza8snzs4AAcQDeHOnvlHDqG49elSWCg0mjQO1p455VRl4tFB6LtoHpy5e8ep/JyJEWAEHCPQZsxgoPj99BbuOIdBV202yFGmENAGOl1nfgQv/vMjtPvldajz2tNQ7IlqkCGv1Az2h5Wi+QcFapeDKr1bAM3kf+HvMfDs4q+A5iYUalARaJjiYWYdDq5GAb7a6VDQgyIQ5zxtmzw4E00NmQzoDg5ANCK+HlmItlw8b/nlgAevX4O6E34GSl0BISI2Fj7ZsMYVEc7LCDACjyHw91fT4fbJS49dNd8pLbUr0rgK1Hy5A7T5cQjQBLwB236BHn9+ZncM6C291sCOUKF7UyjftQmUaFkLSrSo+S/jccUeTwJN3Gv8Xi9oMfIV+3DDi5t+AuJOk4ZDw3d62mfyu7oyQSVSUfEAd4RfB8UtydWiAdh8fcQVAHREYTUeGSpyltzBAaC6LqIPEaZgQKNwrFxE1gwy+65dhSenTIDLYWIhTGkYIDKOFlOYoTZsAyNgPQTCLt2EOT0+gXMb91vO+IBMIZCzbGEgx4DG6Wu/2gmaftQHnvikL7T6/lVoNWrQv4zHTT58DmjiXqVnm0Gp1nWAJhzS27+ZKn05Aq1JQtaZfLNkhGx1H93Z0UUT/DF/L2RdyV0cgMWImvBjn7JvN9yMoG8OarEQ0QS/ZlMngMzGRtHx8XDg+lUL1ZpNZQTMh0BsRDQsHfQDXNjM82pcezrqctOs//A4Q+bS2SuRp10TeyrxofswgLs4AFcQ9J3IQhSFb8C/7NwmJGuU0IPG/7aCTY3uReGgmVEV4XIZATdBICE2Hpa8+gNc3nXMTWpknWrQ29+VSOMaf0IqS/UKEJBbqhe/LOqph6wbuYsDQIAtoA9RHr1tE1y/f19UXFc52segzYxJ9uV9KgoO8afeJxWaWAcj4NkIxEfHwpJXRkHoxRueDYSTtVeV7WaUDaITVGkT1ONlg1ytGwkKPxTTtRfAnRyAyQihcODHe9HRMHzNX6jC3HQj4j60mj5JmbPi6+0NlXLRnhTmrjdbxwhYBYGY8EhYPvRHoB4Bq9hsZTvjEgEo6p8Z6pC7VUOweUk1q12wHpmQdSEpS3Wx0PlCrmHWucjCNG3fXth84bywvNaCNGu/7YwpSlcttClZGjJwD4DWj471exgCNw6fhX+++cPDau1qddXkv4Qdtwk0BqBGnZQW/5zZIEutijI6glG4B7Iu5E4OAAE2lj5EmQIDDVq+CGITjO5LclyDFxfPh11X1C038sO3/48aP+m4ML7KCDACUggcmLkGrh04LaWDhdNG4F4MwL1YY8f+H7fQSjEB3M0B2I4PYweyMO2/dhXeXrVcWF4rQQrrO/vQfmXqbWCDUS3aQIVcUhGslNnDihgBd0MgKTEJNnw+FSh1t7qpqI+sjgTs+r8UYZNVo1w+a93K4Jcts4zeaihcFVlzcjcHgAD7gT5keOz2LaYKk/v3ubMwbLW6+QleNhuMbd0OXqpRWwYmlnUDBDKEZIDX+w81Lb/c+2Xo072PZvxc1+ega9uu0PqJ1lClfBXIkklt/PzrB8/AscWb3OCbYr4qXI60AY3/m80yG/as5mrZQNYsXSYDuqMDMBuR34ssRS8u/hNO3L4lpUOFMG3k03v+bKDQvSr0Bfj4wJyuPeFlbvxVwGl5HTabDQL8A0zLWTJlhpCgYPD389eEAwMCIWuWrFAgXwGoVbUWdGvfDZ5u/TTkz5MfVP3t/n0ZQJJJBqlVVUpaj5yC8DiA2xQDVk6NZtK5WzcGwP9bIP73DIoGIWtK7ugAYMcQvCWLWlhMDLSdMRlo4xxZXTLyg5YvhkthoTIqHspmDgiAlb37Qccy5R5e4wNGwOwIBAUGgQ3/6WVnjmw5oM1TbaBl05bgr2CC7O1Tl+H8ZvfYc0SvZ5BWOfGJNjgfbksri+H3AvPngsxVysjYkQmF2yNrSu7oABBga/FDeiD/1J3b0Hzq72BUlMC5hw/AzIP7sCrylBF/yJY/2xfqFywsr4w1MAI6IuDt5a2kIQYX/wrlLwSdWnVSMiywf/oqF0t37+wytbtwH0zZ9f94nXLLbxDU7nGdqs/d1QEgnIbhh/R0/iM3b0CLab8rC7qDNjlFd6Ii4dVli53Km16mYD8/WNLzeaiVv0B6Wfk+I2BKBAKx98qmYy/AAxAyZcgE7Zq3g5DgkAeXhNILWw5B7P0oIVkW+g+BG1E2CBWO9vKfHj2OsjesDr6ZpL430lGF0qunOzsA1Oc2Oj0AnLlPG+40mTwezt2760x2JXk+XLdaKsb/AyMo0M+C7r2A3/wfIMKpFRGgxt/f388Q0wMDAqFFkxbg4+MjXH5CXDyc+0fdKh5hQ0whKGZEZDzAVQtt2eLl5ws5m9cXq+y/UhShLcO/h9p8urMDQIi9hx9HkKXp4PVrUPu3n+Cf8+ekdaWngJYijt8ttZrxYRFjWraFJ4oWf3jOB4yAVRHw9zUuZHX2rNmhagW5lVln10vPTbbqo5O2mwL9nA0HoAle0sr0UqBm4md2Lc11dweA5on2QgDjkKWJ5gI0mzoBJuwW3nfIKRuGrlgCCYnyX/XBtetB/+q1nCqTMzECZkfA29sbaD6AUXZWLFMRgoMoUJuYBdcOnBETdDMpV6tD6ydo0l9sgs1VUcPyJ2GPz/EvxsHlOStkbcB+D1kVqct7pX7Lbe7swZp8iqyEKErggCXzoe0fU+BiqJrZ+ckNW3P6JNC6/+TXRI4bFioC3zZrJSLKMoyAaRGQ6YaXrRSVXaFMBWE1oRevQ1wkvZMIq/BIwSsR1hn3pwcUH3YfDrz+NVxfKR3/gd4C75BOrdgTHADCbgR+/IOsjJafOAYVfx4F43ZthyQ1XT122z7ZQAsY7IfCH1kCA2FKp674tuQpj1cYKha0GAI+Pt6GWlykYBHh8iki4O2Tl4Tl3UPQtVrciQG4YaG5k9FXbsC+Vz6F0H1HXauo49zn8bKmsx48pYWgbpROCOZpZGVEsQJeWboQao7/ERYdOyLtCKzGt/8tF+mZy5n4a5uOUDCTVChKOQNYmhHQCAEjhwCoSrQqIItEtMCwy8YHF6N6WIEj4m1AS/6sYCvZGHb4FOwd8DFEnr9Cpyr4bxVK0tLhKQ4AYUD/89riwT1kpbTn6hXoNGsaVP11jD2EcKJgj8A3m+Wfd9fyFaFzOfFuSqXAsDJGQDECRjsAVJ0smcXDBdNWwaTDU9nZelOI3zNhgC9V1hj3v7VhBxwY/CXE3UOjna1k+vnmpp9FLocnOQCEFPXLdMCDWGTldOD6Neg29w/I/e3n8NKSBbDpwjn8AtMUlvSLOnn7Fqw/IzdJiIL9jGzWOv3COAcjwAgII0CRCUWFY8I07dEVNctUchTp72SoDeJpBNxUljk25vLclXDko7GQGKO0WaHVa9IzCB1b/N9VT3MAqOb0mv0SHmj29bodGQm/7d4BjSaOgxJjvoXBfy2B6fv3wvFbN1N1CH7ZuQ1oO2K0S5g+a9oM8mXMKCzPgoyA2RGw2fCNEMlIO2nvBNHy46JwUFtU2PJy6VeAlvudxpfomIT08xqdIykhAU6OnAinx0wDSHTuRc8Fmz/AvJq1UajbTp7oAFDFJ+FHH2TNv2Zn796FH7dvgecWzIGyP34P2b7+FJpMGg/PzJsFry1fDJ9sWAM/7dgKU/fTYgW0SJDK5MjJG/wIYsdiFkNA+W+ta/WPjhafye/t5+taYR6Um9rQM2E2oIA/Zq92QmQ0HB72HVxdtE4LU9GjgPlaKH5cp6c6AITDVPzoiRyHrBuF4o/HxvNnYfah/faG/9PIGJX0AAAQAElEQVQNa+2OAO36J2PEh42e4Fn/MgCyrCUQSFQQH0O2ohFR4t34fkEBssVbVj4tw8mnOxdug/u6/hqnZVHq92Ju3rHP9L+z/UDqmcTvbEXRV5B1IU92AAjg2fjRFVnp4A3q05Uq5srNE/90RZwLMwqBxKREo4p+WO6du+JLs4OyZ3qohw/+ReBB4/8gxn9caDjQcjrihGhzDZncP3kO9vb/CCJOX/jXeLWf1Pi3RJX3kXUhT3cACOSF+NEM+QayJendhk3Ai8ZGLWk9G80IOI+A0T0Ad0PvQmi4eACwjPlzOF9Zt8rpuDLkzp26HgunVu2EEyN+g5093oStbV6GHd1et/OW5i/Crt7D4dxvcyH29j3HSnS6emfrPtg/8HOIvaXJnjB/YjWeQBb/cqGwq8QOwL+I0cTAani4HdlSlDdDRuhQupylbGZjGQFRBOLije0jPnNeYqUOOulZCucWrbpbyUXcuAsHZq+D2f1GwopmL8GR90fDtWV/Q9Sla4/UMwmHfCLPXoILUxfB9i5D4NT3kyEuVLcX5Ie2XJm/Gg4P/x4SosTnfzxUlvJgJF6inmjdQx6xA4DI/58oRBdtvzj+/+eWSF6sVhN8vb0tYSsbyQjIIhAXTzG9ZLWIycfGxsLBowfFhFEqS6Fc4J9RfC8BVGFZogBIx5ZsgQ2fTYEZHd+DCY0Hw/qPJ8GNLfshMdY5p47i619ZsAZ7Cd4AWnqXFK/5HG777P7TY2fAqVFTgJwRxQ+Avswvo863kBORdSd2AB6FPAZPByD3RhYf6ENhPcjbywteqFZDj6K4DEbAcATiE+LByCGAvYf3QnSM+Btg7solDMdQawMSYuPh9qnLcGr1Ltg5fgksHzIWJjR6DSY9ORRWvv0L7P9jDdw6huPngsHSyP748Aj70rvdz78Dd7btp0uacGJ0LBz5YDRcnvOXFvrDUWk75F+RDSN2ABxDT8swyuCtmcimpXoFCgENAZjWQDaMEVCIAL2BK1TnkqqrN67C/sNyjU3hhhVdKtNsmaPuhsONI+fg/KaDQG/z+6auhK1j5sG6TybBogEjYXLzN+Cnqv1getvhsOy10bBl1Bw4uXIHRNzQZMzcHnL30FvfwqG3R9qPVeIVeycU9r/2BdzauEul2ge6qLe5AZ5o4lmgXqeJHYDUobqBt55Bpi31zmNqOupYhsf+TfdQ2CBNEKA3/xjsgtdEeTpKw++Hw6oNq6R6H7x9faBwg0rplGSu2/Q2f3LFDnvj/mutl2B83Vdg5tMfwMIXv7G/zf/91XTY8csiODhrHZzbuB9CL9yApAT9e7Jpch71BpweOx2od0AWxchzl2HfgI8h/OhpWVWO5PfhxdrIct4kKlBB7ACkjyJ5adTSvodZbyObgmxggw7sAJjiWbAR2iMQHRstHSlTxMpbd27BopWLICo6SkT8oUzRplXBLyTw4bnZDy7vOgbT270Dy4eOtTfuMiGM9agrzQe4PGcF0CqCKwvXoCMiNj/g3u7DsO/lTyD62k0tzF6OShsiX0Y2BbED4NxjoMgfX2LWIsjvIN9CNpRKZs/OO/4Z+gS4cL0QSEhMxLH3GL2Ks5eThGPUx04dg4UrFsL9CPlZ5xW6N7XrtcLHnsl/wbzeX8K989esYO4jNlIMgVPfTYY9fd+Du7sOPXIvvZPrf22Eg29+A/H3I9PLKnL/FxRqjxyObBpiB8C1R0EPbwSKkCPwNqYnkQ2hugUKGVIuF8oI6IkANcQRkeR/61MqlXfx8kX4c9mfsGHLBohXsOoge+mCUKBWWX0qIFnK/umr4J+v/wBAB0hS1f/FjUkizlyCg0NHwOF3RkHUpetpG4F1PTdhHhz/cjxQT0LamV2+m4gSbyJTdD+a9Y+H5iF2AMSexX0U+xa5JHI95HHI95B1I3YAdIOaCzIQgaiYKKDZ/45M+HdeQAzExLrONJs/LDwM7oXegyvXr8CJMyfg761/w9S5U2HZ2mVAXf+OyhS5VuuVjgA2G5j9j8bxaVzf7Ha6Yt/tTbthV+9hcObnmZAQkXIYJzEuDo599gtcmLLQFbXO5qWuhC6Y+TtkUxI7APKPZQuqoN0F82BKwRymY5qOy4k5JKlGvvySGlicEQCgt+uJsyfBL1N/hZ+n/iLEP0wYDd+PHyXE3/z8LXw59qtU+YffRsOvaJsjHj99PEyaNUmIJ8+eDH8s+ANmLZoFi1cuhnWb1sHRk0elx/of/07lrlQcij9Z7fHLpju/d+E6rHjrF0iiHXkUWmcGVRQ/4NLMZbCjxxtwdcl6gP/XkQIKUS/BjdX0Ew6q/6gNoHGf+aoVq9THDoA6NKNR1VzkXsjkDNCUXwryMAXPacanskFMG9igaJasqJaJEZBDICEhAa7duAZ3Q+/a34bpjdhVjoyKxDH6aCFO7e1erlbmkLZ5e0HTj54HMPnbf1xUDCwbNBrMPtEPJP/i7obByW9+hz0vvA83126FfS9/DKH7j0tqdSh+FK/WQTZ9ZFl2APApaUBJqJO2iqIgD/gLAJUBgEKAlcD0SeTnkDcgC1GukBAI9vMTkmUhRoAR0AeBan1bQ44yJp+rg+Pfq9/7DW6duKgBKOZUef/keTj68U8QdfGaFgZiFwPQsPBZLZSr1skOgGpEU9eXgLdOIa9Fnoq8D1mIimTJIiTHQowAI6APArkrFoM6rz2tT2ESpeyeuBxO/mX6F1WJGuoqSr29LbBEbSIfoWLVxA6AakSd1yf8Cp8lMMj5UjgnI8AI6I5ATHgk7J2yAsKv3ta9bGcLvLDlEGweNcfZ7C7n8yAB6vH9COvbBzkW2TLEDoBxj8pftOhAHx9RUZZjBBgBHRC4e/YqbBo5CyY+MRTmPvuZPQZ+1J1wHUp2roiwSzfhrzd+AiMi96VhIfWSbsb7FHStB6aHkc1ONLeL9o75FA0lRwAT6xA7AMY9K+Et/AJ9fY2zmktmBBgB5xHAMfYru08A7YI3oeEgWNj/Wzi68B+IvZ9ySZrzSuVyxkfHwtJBoyH6Hq1mltOVurTTd2ggnoZEu6NETuT6yBR0bRamNHfqVUxvI5uR7qBRzZFp5Rcm1iN2AIx7ZsLRTbxt/NiMe2xcMiMghkBiQgKc/+cArHpnPIyvP9C+YQ5tlkMNsphGMam1H/4ON4+dFxOWk6JAOHtQxU/IzyIXQ6YVUzQpejYeU4OKyUOi/JSX4q2MwavO7RuMGXWg01hGXeS/kS1L3JIY9+jCRIsOldiSVLRMlmMEGAF1CCTExNm3zF0+ZCz81uBVWDV8HFAgHnIS1JWSUhPNS6Cd/FLeUXolEbWdQaZ9VL7DtD8yvdlnxrQaMr3Vz8CU8mCSLpFjMBhz0dLqFZgaTVvRAFrmp8kaQtStG7EDoBvUKQoSHhC8G2Vc92GKWvAFRoARkEKAhgOOLtpk33WPhgnWfzoFLu8+rjwoz6XtR2DTt9SzLmXuA+GreECN+PeYvoFM8U9oiXN5PKYlz/R2TzupUhjc3/Aaje0L93qiPNFR/GiJ3BrZqMaXYr1QgJ+baIPliR0A4x4hebVCpd+NogiTQqIsxAgwAiZGgCYKHpi5BuY9+zlMemIo/PPtTLhx5Jy0xbQaYfnrP4KiHgb6AaKGmLrxqfEnJ4DGwWmJ82EAiJY2OG0Fy/F2BeShyHouufsay+uGrHX9sAh9iB0AfXB2VIrwINyZu3eANi1xpJSvMQKMgHsgEH7tNuyZuBxmPv0BTHpyKGz+bjbcPXPF5crRcMOywWOAnAuXhR0L0MY2FN3U8V19rtJ8gB+wqOLIND+A5gvgoSZEqxMGoubhyEnIbkPsABj3KIUjRd2PjYXzobruPWQcSlwyI8AIQNjlW7BrwlKY2noYTGszHLb9OB9CL95wCpn1n02B6wfPOJXXiUwjMQ8FvMHEMel8lXpSaX4A9QhQz4Dq4mmpRHtU+jOy2xE7AMY9UuoBEPYmD9+4bpzlXDIj4BkI0Os27fRJDcAJs1T5zunLsP2nBTClxZswr9cXcGDmWoi663hK0f4Zq+Hwn8omqq9DDN5BNiMdQ6NobkAHTCniKibSRPGRKazvMmlNJlXADoBxD4bGkYQH93ZfuWyc5VwyI+AeCND4Mb0aH8LqbEOmsHgjMKUJbTSJLR8e006fizFti+zcKzdm1INo577Lu47B+k8nw4QGg+yTCI8t3gyxEfTTAvaJhBtH0Dw9JdbQCwuNf6fT1a6kLBkli1C4HPLbyMIrrVCWnJ1amB5AdltiB8DYR7tLtPhVp03zQiJaBZYzAQK5cuWCrVu2CPPiBevASO7Zo48MijR2TA09dR/Tsi5q4OgNlya0kWOQXDf9h6O3wZPJL5rlmCb30TLClcN+hd/qD4TlQ8bC8sFjITGehq+lraRlR51Qyy1kKxCF4/0WDS2JTBuy0TkeOkVUR5pc+BTmvors1sQOgLGPd6do8TsuX4LbkTQZV1QDyzECAH5+flC1SlVhLl++MhjJOXLm0vMxUtcyrWP/EQtNRDYlUWAhCjAUeTtUlX3UC0IBfNLVZ7IMNE76MtpUFPlz5P3Ijoh6NTbijUHIlJcmF5r2+aKNyogdAGVQCikSdgASEhNh9WlTvowIAcFCjIBFEKDBdmooyqK9vyDLdDOjuOlpDFpIoXoxsSzReOkHaH1lZNpKlZw4esMnpmsUt6AR3iPHjp4vHnoGsQNg7HOmfTipe03IimkH9grJsRAjwAhII0CBaGg5HHVBtENt05BlA92gClMRBe95y3mLLJGTlk9Rb8YatJaYegVcGSJAMfchdgCMfZbU+FPXk5AVK0+egFN3zLpPhlCVWIgRsBoCNONuCRpNO8LRZjZd8XgpMq1Tx8SyROPfXdB6j20cse5uT+wAGP+IhdeuJkES/L5HeBTB+JqzBYyAeyFAk3IoVCytGMiPVaOY9/QWnYTHViJyamg5HTkBTtvNGa2HADsAxj8zYQeATJ+4ZxeExcTQITMjoCsCSSZo1mJjpV5QtfyPQ0sGf8IHQpvgFMZ0GPI+ZCsQRb3bYQVD2UY5BNgBkMNPhTTNLBZeDngrMgK+3aws0IeK+rAOD0HADA5AeLjUHDy9JnxdwK/EN8hVkGny4KeYmnUGL01snIj2uUic3YoIsANgjqcmNct21NZNcClM2ZIfcyDCVpgegcRE47sALl6i+DTCUEl5D4Kl0o52H6FsSeTyyJ8gC4cFR1mVRNvcDlGpkHWZGwF2AMzxfP5AM4T7MqPi4uDzvylwFWphYgR0QiAh3vil0idPUgRY4QpT0BdhYQWCh1HHx8i0oU1jTCnssFGzeins8dNog9DvEMoxWRABdgDM8dDoP/0iGVOm7NsNF0O5F0AGQ5Z1DYH4OGN7AC5dvgCXL1O4dtfsTpabovslOzXskDwpGsejgDt50Io2yBSNkDaiwUPNiRr9zlgKT/pDEDyJ2AEwz9P+TsaU2IQEmHvYrcNWy8DDshogEBtH7ZYGip1UuW7dRlrPMAAAEABJREFUSidzOsxGEwDN0vWe3EBaPrgML9B+BLSskMITL8RzshcT5USxgp9DrVuRBYnFrIoAOwDmeXIUFIjeAoQt2naJ5hoJi7MgI+ASAjEx1Ha4JKI084KFs2X0USAfYyuQvvUUJ4Q2KOqIWXMj90VejazKblruR43/LNTJ5IEIsANgrodOG1gIWxTKywGFsWNB1xCIw7f/hATjhgB27toK+w9QQDfX7E6WW8rZTqZHr0OKYDcJC2uGTDEGXsOU3tpFHwJ1F9ZGHTOQpYiFrYsAOwDmenbL0ZxtyEKUNTBQSI6FGAFXEYiKVPUS6mrJ/+Yf9cNX/x6If1p51uw1rPZY5LrItHnNu5geRHaGdmMmilpISxIpDC6eMnkqAuwAmOvJkzf/OppEKSauUZXceV0T4NyMgAACtP4/IpI2UBMQViCyaPFc2LZ9k4ymOBTegOwOdA4rQd5QRUzLINNGRTSBcD0eU2NPQwaT8Ziul8O0OjLtW6BoAgdqY7IsAuwAmO/RUbcejfu5ZJmPlxd0KUe/AS6JcWZGwGUEoqISINGg7n9a9//xpxRUz2WzkwvQ7EHqUk9+zR2OaU0k7WhHEwibYoWosachgz54TNePYMrECDxEgB2Ah1CY6mA4WuPSmr4Xq9WEIllop0uUZGIENEQgPJxeoDUsIBXV9++Hw8uv9IbQUOm2WyrwVirmeeRlrrS1EWAHwJzPj7r1yGt3qp+1Zr4C8E2zVuasCVvlVghE3I+H+Dj9e48jIu7DiwOegSNHnR3qThX2O3iHdu/DhIkR8GwE2AEw7/NfgKa1R6ZNRTBxTAUyZv5nZe9+sUG+vo4z8FVGQBECidjuh4dRzBhFCp1Uc/XqZejRsy1s30Eb6zkplHo2mjxHy99Sz8F3nESAs1kdAXYAzP0EaVVASTSRBj1pdy6KDEbTry/htZnIjS+G3WuYIcCf1gfjzzNeYWIENELg7p0YSND5W7Zy1RJo064RHDqsZMI6bf4zRiN4WC0jYDkE2AEw/yMLRRNpJ7FamGZA9kEugPwMsn0ts89H78wASHoDz4VWD6AcEyOQJgLU9R8dTb5nmtmU3Tx85AD0faErvDzwObh7j3rtlagejVqUKUNdHk1ceesjwA6A9Z+hvQbeH7/7QxLYnscTY2ZoYcFM7olADDb8oaHad/3T5L6Fi+ZAr+c6QrsOTWDD32tUAkrbBo5QqZB1MQJWR4AdAKs/wWT2+3w8fGqSzUY7ekUmu8yHjECqCETcj4AJv/+eKv86bgL8+PN4+GPmFJg5Sy1PnjoOdY+Et4e9am/wq9cqAa+/+RJs3vI3JFGwgVStFrpB29xGCEmykAME+JI7IMAOgDs8xWR18Plo+BIvsD2Fly4jp0uRcXGw6NgR+GLjOnh/7SoYt2s7HLpxPV05mQw3IyJg/7WrcPD6NaBjGV0sK4fAnbt3YOCrA1PlwUNehXffGwrvfaCeP/3sHfh+1Jcwb/4f9jH+hATNhhho0wDaUEcOLJZmBNwMAS83qw9XBxGwfTx8ixf4VrYB/AWp/EXHx8PH69dAvpFfQKdZ0+DDdavhq3/WwytLF0Kln3+AwqNGwMt4vOT4UbgRQXMPU1HkxOULofdg6r498My8WZDzm88g97efQ9Vfx0DlX0bbj8v++D2M2bYZYtAmJ9RxFkbAFQROYub+yEwKEWBV7oEAOwDu8RxT1ML28Zu3bBDTBmxAccIfiSdwJyoSmk4eD5/9vRbCUtlA6GJoKIzH3oAOM6dCnm+/gGI/fANd5syAt1Yth592bIUFRw/D2jOnYPuli7D7ymX45/w5+/mcQwfg+y3/wJC/lkCLaRMh1zefQ5FRX0OfhXNh9qH9cDsyMoWtx2/dhKErlqJNv3GPQAp0+IIEAvRl64byYchMjAAj8BgC7AA8Bog7ndo+/jjR+6N3vvLy9iqPvQFrqG6JOLbafe5Me8NN587yuXt3Yf6RQ/bG/bXli6Hz7OnQbOrvUHfCz1Bz/I/QeNI4+3mPeTPtTsLY7Vtg9emTcCvS+WFX2s64y5zpkEALzp01jPMxAo4RoPGEZ/HWXmQmpQiwMndBgB0Ad3mSadTD9sGw4zgs0CwJbM9N2L0zjN7c08hu6C3qSZi8j/YwMdQMLtzaCCSh+f2RKZgWJkyMACPgCAF2AByh4obXbGBLolUCg5YtpDDDpq7hqK2btJgFbuo6yxiXkKRzdB4ZY7WXpTd/avwnal+UZ5bAtXYfBNgBcJ9n6UxNcsQnJVVwJqOReY7evAFHkI20waWycVjFpfyKM4fFar9GX7HJWqmLQcXdkScgMzECjEA6CLADkA5Abna7KNbHhmx6MvMwRQrwEqnHOcVV3S7cj4vTrSwTF3QWbWuAPA+ZSTMEWLE7IcAOgDs9TTeqy4nbtyxUG2MdgLA4j+8BoLH+qviF2YnMxAgwAk4iwA6Ak0C5SbaTVqnHpbBQq5gKtnhjx+CvR9FqN8vApdLQq6isJ3In5HvITBojwOrdCwF2ANzreaZXmzuYYQuy6emyhRwA0C6CnVPP6UToXafyuVGmaKzLD8hlkP9AZmIEGAEBBNgBEADN4iKjrGD/2Xt3rbESgMb/DZ4EeByxssIzVWAjBZX4HvXQXJahmFqnmwiNtT5xDdwNAXYA3O2Jpl8fmiRFY6bp5zQwx92oKDh157aBFjhZdFy8kxm1y3bcvXsAaILFJkRvAHJ+5DeQqesfEyZGgBGQQYAdABn0rCtL46YrzG7+zsuXzG4i2OKNnYF/NyYG3HAIgBp46tp/Ab8AhZFpdv94THmcH0Ewirhc90OAHQD3e6bO1CgKM7VGHoRs2lZ2x+WLaJ65KSnW2B6ADVcvQYL4EATNXvwNER5vEI/Bcr9EHo7cF7kucjbkvMjkpP6O6QVkJkaAEdAAAXYANADVIirpx/9HtJXGU2n7YDo21Y/tqtPmX7RgM3gN/vorUk7SUXz+FDWPuteN4MFY/nvIXyNPQt6KTBNVMWEyFwJsjTsiwA6AOz5V1+pEfdi0URD1BhRC0ZLI1PU6DdPDyIa94tIugRQVEG0wJ9GmRbEEn3Hmrbos5bNZYkWIcehyyYyAeyPADoB7P1+R2tFrN3W99kbh8sghyNWQuyC/iTwWeSbycmRqQGjnnge8Ea8tQ6b7NFt7CB7TGyYmYrTo2BExQR2kbDHGBuDZdeu67Pg/PT8dkOIirI4A2++eCLAD4J7PVWWtKL76HlRIqwe+w/Q15GeQaQ5BPUyrJ+NGeNwGme7TbO3ReExjzGcwFaI5hw8IyekhlBRN0OhRkuMypp2kHnzH95y8yg6Ak0BxNkbAHRFgB8Adn6r56rRS1KT9167Cpgvm3MDQZqADEIfDD7NOnxCFleQu4Af19mDCxAikhQDfc1cE2AFw1ydrrnoJOwBUjZ920NwwOjIP2xv/BJpHaYxNf5w+DjejaTGHcPnzUZLW2GPCxAgwAp6IADsAnvjU9a/zOixSuL98wdHDcDHUXEHfkiIpGi3WygBKTEqCr/dL73tj+mBQBkDLRTpAgC+5LwLsALjvszVTzcLRmMXIQhSXkACfbKCFCkLi6oWw+90WZZwDMO/sKTgmF/73OoKyGZmJEWAEPBgBdgA8+OHrXPUpMuVN3b8HDt+gdktGixpZW0QkAL6Fq9HmmhYa+/90zzbXhFLmpu7/hJSX+Qoj8DgCfO7OCLAD4M5P11x1o3kAFOJVyKoEfOsevsYE0Yup4b+PDoBQLeSFRh3aC0fuScfKGSdvCWtgBBgBqyPADoDVn6B17KeAQtNlzF1+4hjMOrhfRoW0rP3t36DJfxcjwuGzPdtl6/APKjAWRDSAyRoIsJXujQA7AO79fM1WOwo3LBU6b/BfS+D6/fvG1Ive/sONefun6fqvbFoPEfKbD9EzMAY/LpURYARMhQA7AKZ6HG5vDK09nyFTy1uREfDS0gU4BE9NoowmAdnwCIAEY4bOvz+4B5ZdPCtg9CMil/FsATITI+AEApzF3RFgB8Ddn7D56jcCTZJaQL/42BH46p8NqEZHwobfdh8dAB2LfFDUjpvX4L2dSoL20c57Uj0wD2zilBFgBKyPADsA1n+GVqvBcTSYZqFjIk4frV8NNCdAXIOLkvfCARL173W4FHEfuqxZDrGJ0j0PZ7DGE5CZGAGnEOBM7o8AOwDu/4zNWMN30SipnXQoGM6z82fDnqtXUJW2ZIuMAiPW/d+NiYFWKxYCTf5TUMOPUYcU5ijPxAgwAm6EADsAbvQwLVQVikH/g6y9odHR0GLa73Dg+jVZVanLY9c/0Nt/6jk0uRMVHw/tVy+GQ3dvq9B/CJX8gczECDiJAGfzBATYAfCEp2zOOn6BZkm33LcjI6H51N81CxJkuxOKXf9SUxawmq7RvdgYaIlv/puuKendIONfRgukxxBQBxMjwAi4EQLsALjRw7RYVcLQ3reRpekGjpM3mjQO1p89La3rEQX05h+jb6/5lcgIaLx0Hmy8RhP2H7FG9ORXFNyEzMQIOI0AZ/QMBNgB8IznbNZaTkPDlCxLuxsVBS2nT4JJe3ehSnmyRUSB3rP+99y6AfWXzIEDd27JV+BfDRcxeQeZiRFgBBiBFAiwA5ACEr6gMwL9sTzpoQDUAbRp0AuL/oT+i+dDRKz4m7uN3vrvYdc/KdWJfzqyH+ph438unDpGlBRKSxZeQk3KFKIuJo9AgCvpKQiwA+ApT9q89aTX3X5oHjVYmMjT73t2QrVxY2Hn5UuuKyPH4fZdAGXWpG3CjahI6Lp2OQzasgFiaMJh2tldufstZl6OzMQIMAKMgEME2AFwCAtf1BkBaqiowVJW7Mnbt6D+778AhQ6m4QGnFMfEge0WNv46rPenZYy/HD0AZeZNhXlnTzplnguZKErSey7k56yMwEME+MBzEGAHwHOetdlrSmPVS1UaGZ+YCD9u3wKlxo6EX3Zug9g03rBt0bFgu30H9Aj2s/ryBai9aDYM3LweaK2/yjqjLtpxsQemtPkSJkyMACPACDhGgB0Ax7jwVf0RSMQieyIfRlZKtFTw1WWLoMTob+H7Lf9AWEzMI/ptUVEA1O2v4Zs/jSgsPn/G3vA3/2sB7Lp1/REbFJ1QrOKOqEvJnArUw+RxCHCFPQkBdgA86Wmbv65haGI7ZHqLxUQtXQoLhbdWLYcio0bAoOWLYfOF85AUeh8b/1AA2ulPbXF2bWfDw+DTvduh9Nwp0GH1EqC4/vYb6j9iUeXTyNuRmRgBRoARSBcBdgDShYgz6IwAxax/Esu8gawJ3YuOhp93bIWGE3+FYr+NgTe3/wNLL5yF0NhHewZECqdhhy3Xr8Lne3dAw6VzofjsSfDx7m1wMvSeiDpnZaj35HnMvBKZiREQRoAFPQsBdgA863lbpbZH0FByApTEwUVdqdL5++Hw/cE90G7VYsg+bRxUXzgTXti4Bkbs3wV/nj0FtDb/THgo3I6JhuiEBKAGnsbtz+Kb/cE7t+yMHokAAAMmSURBVGAVjuePPbwfXt2yHpph137Wab/a1/J/uHsrUCQ/6vpPtXA1N6jxH4iqZiIzMQKMACPgNALsADgNFWfUGYGDWN5TyDeRdaEEHAagBn/iicPw7s7N0GXtMrtDUHz2ZMiBzkHQpB/Bb+JYyIaNfDF8s680fwa0wEZ/8NYN8PORA7AGnYH7cXG62Pr/Qqiw3nhM0f4wYWIEZBBgWU9DgB0AT3vi1qrvXjS3FvIxZKZHEaDxim54aQYyEyPACDACLiPADoDLkLGAzgicxfLqI3M8ewTh/0S9ItQ7suD/55wwAtIIsALPQ4AdAM975lasMc0FoAZvshWNV2zzNtRXDfkfZCZGgBFgBIQRYAdAGDoW1BmBaCyvD3IXZE2n1KN+s9J4NKwRMm3ygwkTI6AKAdbjiQiwA+CJT93adZ6H5tdE3oPsKURLIrtiZQcg03p/TJgYAUaAEZBDgB0AOfxY2hgEKHh+bSx6CPJ9ZHemuVi58siUYsLECKhHgDV6JgLsAHjmc3eHWtMSuNFYkYrIy5DdjWjyY0usFL3506Q/PGRiBBgBRkAdAuwAqMOSNRmDADWUbbDo9sgHkK1O1N3/GlaiNPIKZCZGQGMEWL2nIsAOgKc+efer92KsUmVkmiR4GFOrUSga/CFyMeSxyDzWjyAwMQKMgHYIsAOgHbasWX8EKPIuTRKkYYHOWPxaZLqGiWmJghy9itYVQP4M2d3nNGAVmcyEANviuQiwA+C5z96da07x8f/ECtJ+AtSV/j0eUywBTExBtKRxIVrSHLks8k/I4chMjAAjwAjohgA7ALpBzQUZhMAJLPcN5FzIDZC/RqZVBJjoSlFY2lLk55DJlo6YrkI2ew8FmsjkvghwzTwZAXYAPPnpe1bdE7C6FE54OKYlkasg02S7PzA9g6ya7qJCWp3wPqaNkbMht0WeihyGzMQIMAKMgKEIsANgKPxcuIEI7MOyabJdT0xp4l1uTCncMAXbGYHHc5Ap7C6N0Z/DY2rQaQMeGl6g40t4jXoSdmNKDf0YTAcj04qEUphmR6bjLzD9G5l6ADBhYgTMgwBb4tkI/A8AAP//INHm4QAAAAZJREFUAwBUpbP7yDm6/wAAAABJRU5ErkJggg==;fontFamily=Garamond;" parent="1" vertex="1">
          <mxGeometry x="952.49" y="387" width="75" height="75" as="geometry" />
        </mxCell>
        <mxCell id="mUBdkkdLRuT3rxrUyl42-37" value="&lt;font style=&quot;font-size: 14px;&quot; face=&quot;Garamond&quot;&gt;&lt;b&gt;Consumers&lt;/b&gt;&lt;/font&gt;" style="rounded=1;whiteSpace=wrap;html=1;strokeColor=none;" parent="1" vertex="1">
          <mxGeometry x="928.5" y="180" width="110" height="30" as="geometry" />
        </mxCell>
        <mxCell id="mUBdkkdLRuT3rxrUyl42-41" value="" style="endArrow=classic;html=1;rounded=0;entryX=0.396;entryY=0.451;entryDx=0;entryDy=0;entryPerimeter=0;" parent="1" edge="1">
          <mxGeometry width="50" height="50" relative="1" as="geometry">
            <mxPoint x="520" y="331" as="sourcePoint" />
            <mxPoint x="580.0799999999999" y="330.928" as="targetPoint" />
          </mxGeometry>
        </mxCell>
        <mxCell id="mUBdkkdLRuT3rxrUyl42-42" value="" style="endArrow=classic;html=1;rounded=0;entryX=0.396;entryY=0.451;entryDx=0;entryDy=0;entryPerimeter=0;" parent="1" edge="1">
          <mxGeometry width="50" height="50" relative="1" as="geometry">
            <mxPoint x="678.92" y="329.572" as="sourcePoint" />
            <mxPoint x="738.9999999999999" y="329.5" as="targetPoint" />
          </mxGeometry>
        </mxCell>
        <mxCell id="mUBdkkdLRuT3rxrUyl42-43" value="" style="endArrow=classic;html=1;rounded=0;entryX=0.396;entryY=0.451;entryDx=0;entryDy=0;entryPerimeter=0;" parent="1" edge="1">
          <mxGeometry width="50" height="50" relative="1" as="geometry">
            <mxPoint x="871" y="325.072" as="sourcePoint" />
            <mxPoint x="931.0799999999999" y="325" as="targetPoint" />
          </mxGeometry>
        </mxCell>
        <mxCell id="mUBdkkdLRuT3rxrUyl42-48" value="" style="endArrow=classic;html=1;rounded=0;entryX=0.396;entryY=0.451;entryDx=0;entryDy=0;entryPerimeter=0;" parent="1" edge="1">
          <mxGeometry width="50" height="50" relative="1" as="geometry">
            <mxPoint x="360" y="330" as="sourcePoint" />
            <mxPoint x="390.0799999999999" y="330" as="targetPoint" />
          </mxGeometry>
        </mxCell>
        <mxCell id="mUBdkkdLRuT3rxrUyl42-50" value="" style="endArrow=classic;html=1;rounded=0;entryX=0.396;entryY=0.451;entryDx=0;entryDy=0;entryPerimeter=0;" parent="1" edge="1">
          <mxGeometry width="50" height="50" relative="1" as="geometry">
            <mxPoint x="275" y="331" as="sourcePoint" />
            <mxPoint x="305.0799999999999" y="331" as="targetPoint" />
          </mxGeometry>
        </mxCell>
        <mxCell id="mUBdkkdLRuT3rxrUyl42-51" value="" style="endArrow=classic;html=1;rounded=0;entryX=0.396;entryY=0.451;entryDx=0;entryDy=0;entryPerimeter=0;" parent="1" edge="1">
          <mxGeometry width="50" height="50" relative="1" as="geometry">
            <mxPoint x="195" y="331" as="sourcePoint" />
            <mxPoint x="225.07999999999993" y="331" as="targetPoint" />
          </mxGeometry>
        </mxCell>
        <mxCell id="78iPDaDjgWr_lD_-Sr2U-1" value="&lt;font style=&quot;font-size: 14px;&quot; face=&quot;Garamond&quot;&gt;&lt;b&gt;Data Warehouse&lt;/b&gt;&lt;/font&gt;" style="rounded=1;whiteSpace=wrap;html=1;strokeColor=none;" vertex="1" parent="1">
          <mxGeometry x="549" y="180" width="170" height="30" as="geometry" />
        </mxCell>
      </root>
    </mxGraphModel>
  </diagram>
</mxfile>
